<mxfile host="app.diagrams.net" agent="Mozilla/5.0 (Macintosh; Intel Mac OS X 10_15_7) AppleWebKit/605.1.15 (KHTML, like Gecko) Version/18.1.1 Safari/605.1.15" version="26.1.3">
  <diagram name="Page-1" id="I7JYIsM9WMS8IBCO0GxI">
    <mxGraphModel dx="950" dy="2132" grid="1" gridSize="10" guides="1" tooltips="1" connect="1" arrows="1" fold="1" page="1" pageScale="1" pageWidth="850" pageHeight="1100" math="0" shadow="0">
      <root>
        <mxCell id="0" />
        <mxCell id="1" parent="0" />
        <mxCell id="qDxGLgxu04z0kNvVjK_c-40" value="" style="rounded=0;whiteSpace=wrap;html=1;" vertex="1" parent="1">
          <mxGeometry x="40" y="-1070" width="1510" height="1020" as="geometry" />
        </mxCell>
        <mxCell id="qDxGLgxu04z0kNvVjK_c-1" value="" style="shape=image;verticalLabelPosition=bottom;labelBackgroundColor=default;verticalAlign=top;aspect=fixed;imageAspect=0;image=data:image/jpeg,/9j/4AAQSkZJRgABAQAAAQABAAD/2wCEAAkGBxAQEBAPEBIQDxAQEA8VFRUVFRUQEA4QFREXFxURFhgYHSggGBolGxcVIjEiJSkrMC4vFx8zODMtNygvLisBCgoKDg0OGxAQGy0lHyUtLy8tLTArNS0tLS0tKy0vLS0tLi8uLS8tLS03LS0vLS0tLS0tLS0tLS0tLS0tLS0vLf/AABEIAOEA4QMBEQACEQEDEQH/xAAbAAEAAgMBAQAAAAAAAAAAAAAAAQQDBQYCB//EAEsQAAECAwEKCQkHAwMDBQAAAAEAAgMEEQUGEhUhMVFSkZLRExRBU3FzgaGiFiIzNGGxssHhBzJCYmNy0iOC8JOzwiSjwyVDRFR0/8QAGgEBAAIDAQAAAAAAAAAAAAAAAAMEAQIFBv/EADURAQACAQEFBAkCBwEBAAAAAAABAgMRBBIhMVEFE0HwFCIyUmFxkbHRM6EVIzSBksHhcgb/2gAMAwEAAhEDEQA/APuKAgICAgICAgICAgICAgICAgICAgICAgICAgICAgICAgIKkW04DSWuiwgRlBc2o6UHnC8tz0LaCBheW56FtBAwvLc9C2ggYXluehbQQRhiW56FtBAwxLc9C2ggYYluehbQQMMy3PQtoIIwzLc9C2ggYZlefhbQQMNSvPwtoIGGpXn4W0EDDUrz8LaCD1DteWcaNjQic1+2p70F1AQEBAQEBAQEBAQEBBo7rpx0OAAwkGI69JGIhtCTTUB2lBrbJuZhxILIkR7wXioDb0ADkyg1KC55JQOcja2fxQPJOBzkXWz+KB5JwOci62fxQPJKBzkbWz+KB5IwOcja2fxQR5IwOcja2fxQR5IwOcja2fxQPJCBzkbWz+KB5IQOcja2fxQR5IQOcja2fxQR5HwOcja2fxQPI6X5yNrZ/FBHkdL85G1s/ig5u3LMEvG4MElhDXNJy3pxGtMxBQZpacmpM+aaw6/dPnQz/Hsog7CxbchTIoPMiAY2E4+lp/EEG1QEBAQEBAQEBAQEHN3ceihdYfhKC9Z3qULqmIK9EE0QTRAogmiBRBNECiCaIFECiCaICDn7rIWKE797T3EfNBcEK+hQ3kVD4bCcxq0VQaSds90M8LBJF6a4vvMOdqDp7m7oRMAQotGxgMXIIoHKMxzjtHsDoEBAQEBAQEBAQEHN3ceihdYfhKC9ZvqULqmIMCCUEoCCUEoCCUBAQSgICDTXUt/pMP6o+ByDY2dDvpGEczD3OKCk5qDS2nIlp4WFVpBqaYi0jHftzIOpuZt0TLbx9BGYMfJwjdMfMIN6gICAgICAgICDmruPRQusPwlBfs31KF1TEGFBWnokRt7wba5a4r6iCrxiY0TsFA4zMaJ2CgnjMxonYKBxmY0TsFBPGZnROwUDjMzoHYKBxmZ0TsFA4zM6J2CgnjMzoHYKDYyznFgLxR3KO1BlQaa6k/0mDPEHc129BtrMbSRh+2H8Tq/NBRc1BicEGhnoDpeI2PCN7R1RT8Ds3Qfog7qxLUbMwhEbicMT26D+UdHKEGwQEBAQEBAQEHNXc+ihdYfhKC/ZnqULqmIMSCtOzfB3vm1rXloBRBVwv+QbX0QThf8AINr6IGF/yDa+iBhf8g2vognC/wCQbX0QMMfkG19EE4Y/INr6IGGPyDa+iBhj8g2vog2MtFv2B9KV5O1BlQc7dVFq6HDGUBzqdJoPcUHWw5SkFkKtL1jG7IG5BhNljSOpBRm5EtyVKDWR4YcC0ioIoQg09mzjpGZqamE6gd+aHXE7pG8cqD6Ox4cA4EEEAgjGCDkIQekBAQEBAQEHNXc+ihdYfhKC/ZnqULqmIMaDBNTTYdL4E1zAH3oK+E4ei7U3egnCkPRdqbvQMKQ9F2pu9BOFIei7U3egnCkPRdqbvQMKQ9F2pu9AwpD0Xam70E4Vh6LtTd6BhWHou1N3oLsCKHtDm5DrzIMiDnbWsmM+K+K0tLTSmOhaAAKIKMSTmOWIdtxQVokrEGV/icgrRIbh+LvKDG0v5HOHaQgiZMUgX984DITjp2oO0uEtExILoLjUwSL3q3VoOwg9lEHToCAgICAgIOZu69FC6w/CUGwsv1KF1TEGNBjjiHi4S99l9Tuqgw3sv+lrCCb2X/S1hAvZf9LWEE3sv+lrCBey/wClrCCb2W/S1hAvZb9LWEE3st+lragXst+lrCC3DDaC9pe8lMlPYg9IPEYeaf8AOVBr3SrnZB8gg84Hr951OgV7yg9NsKDy3zuk091EGZlky7ckNvbV3vQXpWShUI4OHQnQbjFOhByn2feni9T/AM2oO9QEBAQEBAQczd16KF1h+EoNhZfqULqmIPCDBNSbYlKkilciDBghmk7u3IGCGaTu7cgnBDNJ3duQMDs0nd25BOB2aTu7cgYHZpP7tyCcDs0n925AwOzSf3bkE4HZpP7tyC7LwQxoaK0GfLjNUGWiCKIJogUQQgILEr80HGfZ/wCsRepPxtQd6gICAgICAg5m7v0ULrD8BQbCyvUoPVMQeUFWekzFvfOpSuLKCgqYHOkNSCcDnSGpAwOdIakE4GOkNSBgY6Q1IJwMdIakDAx0xqQTgU6Y1IGBTpjUgnAx0xqQMCnTGpAwKdMakDAp0xqQMCnTGpBnkrNMN4dfVoDiApWo5UGwQZ5b5oOM+z71iL1J+NqDvUBAQEBAQEHMXeeihdafgKDY2V6lB6piDygqzzIpveDNMtcdD7EFXgZrOdoIJ4GaznaCBwE1nO0EE8BNZztBBPATWc7QQOAms52ggngJrSO0EDgJrOdoIHATWc7QQTwE1nO0EGstK2WyxIjzUOG4fh4Rromw2ru5bRS08oazesc5aSL9oEAZIkd/7WkfFRSdxdH39Hhn2hwTldMN6Wj5OKz6Pc7+rZyN1cCNQNm2NJNKRHcCa5vPoD2LScV48G0ZaT4ukkIce+Dnuqwg/iDg7FipRRpGxQZ5f5oOL+z71iL1J+NqDvUBAQEBAQEHMXeeihdafgKDY2T6lB6piCEFWejRG3t42+rWuIupqQVOOzGh4HIJ47MaHgcgnjsxoeByBx2Y0PA5BPHZjQ8DkE8dmNDwOQOOzGh4HIHHZjQ8DkFG2bpHSkIxYwvRWjRekOiPpia2pyralJtOkNb3isay+d2ndTaNoEta4wYWhDJhtp+d+V3Rk9iu0w1qp3y2spS1zop57+xgAA7TuU2iHXotCypZuUV6XH5FNDeSbNlj+ED+5w+aaG8wRbAhn7jnN1Ob/nasM6vMjOT1mm/gRCIdcbcb4Dv3MOTpFD7Vpalbc29bzXk+rXIXUQrQhEgcHGh04SHWtK5HtPK092TppZMc0lcx5IvDppf5qNI4r7PvWIvUn42oO+QEBAQEBAQcvd76KF1p+AoNjZPqcHqmIJQVZ2cEK980uvq8tBiQVsMDQ8X0QThkaHi+iCcMjQ8X0QMMjQ8X0QThkaHi+iBhoaHi+iCcMjQ8X0QMNDQ8X0QfMLv7QdOWgyDjayE2GwCtQ0vAe9/SQWj+0K7grpXXqp57a2+TqbhrOgumBDc1pbDhOe1hxgkOaKnPlJ6VtntNacGuCsWvxdfdhZ8KLJxi9rb6FCe9jsQLXNbUAHMaUp7VWw3mLxos5qxNJ1fIrxdJzUXiAARkxLDK1LxL7zXY8WsZitZhtEqdzMUylrQAwkNfFbCIzsjUF6fYHFp/tChyxrSUuOdLQ+5wPmqC+4r7PvWIvUn42oO+QEBAQEBAQcvd76KF1p+AoNlZHqcHqmIAQYZmYYyl/wAuQUr2oMGEIGbwoJwhAzeFAwhAzeFBOEIGbwoJwhAzeFAwhAzeFBOEYGbwoJwjAzeFB8lume11tRHN+6YkvTFT/wCPDHvV/D7EefFRy+3PnwblhisiNiwnXj2ZCMo3j2KWdJjSUXGJ1hatS1pyZZwcWI28xVa0XocRkLqDH0ZFpTHSs6xDa972jSZanibvZ37lJvI91HE3ez/OxN5ndYLxZYZZVnndhWs8mYa5o/8AVpT/APVI/wC6xaW9mflKSvtR84+77vA+a5zoOJ+z31iL1J+NqDvkBAQEBAQEHL3feig9afgKDZWR6lB6piAgwzTIRpwl7y0qb1Bg4GVzs2zvQTwMrnZtnegcDK52bZ3oJ4GVzs2zvQSIMrnh7Z3oKVsz0jKQXR4t6QMQa1xc+I45GNFcvuxk5FtSs2nSGtrRWNZfNJq6uemXHi0IQWA5IbeFcBmc99RXoAVuuCsc+KrbNaeXBi4/a+lE2IX8Vt3VOjXvb9WvjSk8+Lw7mRDFJab6ja1AABoMWQDkW8RERpDSZmZ1lYv7TzRNlm5ZYL+080TZZuQRwlpZomyzcg3NhcYLX8Yvr6+F7UAYqexYZSWLdpoxtmWtdQY3UOLkHSmmsGujUwYtLTlXuNAJqTJJyACKwk9FFFlmK0tM8oifskx6zaPnH3fboVtyo/8Afh5c64vpuz+/H1dTub9HJ3ETcODHiOivbDBhUBcaAm/GJPTtn9+Pqdzfo7+XmGRBfQ3te3O0hw1hT0yVvGtZiY+DSYmOEsq3YEBAQEBBy133oYPWn4Cg2Vj+pweqYg9IK81JNi0qSCK5EGDA7NJ/duQTgdmk/u3IJwMzSf3bkE4GZpP7tyCcDM0n925B8ouyicZtDikJxMOC7gwcR88Y4r8WahH9ntV3DXdrr1Us1962nRvIcJkFjYcNtA0Yh8znJU0cUMycMcwWdDV4iTYbjdet6TRN3U3tFV9ssHt6Afmtu7lr3kMRtxuge7endneINujQOtO7O8Y3287kY3tJKd0d410ace7KaDMMS3isQ0m0vMl9/sKxbkVVZn1yH1kD3tVHb/6bL/5t9pWtn/Up84+76Nc9YzJlsQvc9t4WgXtMdQc4XgNm2euSszL0eTJNZ4Nt5Iweci+HcrHoNOso++lrJyz48g4RoTyW1pfAU/te3lB/ymJR7uXZLd5jnh55tomuSNLQ7exbSbMwWxRiORzdB4yj3HoIXqNk2mu0YovH9/hKhkxzS2i+rKMQEBAQctd/6GD1p+AoNlY/qcHqmIPSCrPyjol7R17SuLHQ+1BUwS/THegkWS/THegnBL9Md6Bgh+mO9BWtWVdLwI0dzwRBhRH0x471pIHacSzWNZiGLTpEy+a3Dyxe+NHdjIF7U8rnGrj04htLoy57fzkZraucaDk9vsC2rEzwhpMxHNpZq1HHEzzRnyuO5TRSI5opv0a9zicZJJznGVu0QsMoQQVhlBQQsCzIsNb7kGLtWtm9VOGOFnW0yB4OwKnvC5vaeSKbJkmfdmPrw/2ubLXey1j4/bi+tXEwzwUV3IYgGpuP3rx2wR6kz8Xbz84bqij04svUSCIsN8N+MOBB6Dy9O5W8f8yk1sjn1Z1hz1w8d0KYiy7vxB3+pDNDTsJ1BOxsk0zWxT5mGdqrrWLO5XpFEQEBAQcr9oHoYPWn4Cg2djepweqYg9IKs+2Mb3gvbXID7MqCreTft1s3oF5N+3Wzegm8m/brZvQTeTft1s3oNBd6+ZZZ8wXk3p4JpxtOJ0VgpiUuGPXhFmnSkuWuXjtgyRdlc+JFcBnoA3ViV6KzaVKbbsNbMR3RHXzjU9wGYK1ERHJVmZnmxFBLWkmgxlYFlsqAKvOT20A6StZs3irC6dlhiq09ALu+i03m+6jj8tnGw7csbxuo4/LZxsO3JvM7px+WzjYduTeN1WnLWFL2EDjxVpSn7RnWsy2iG1uYsd4IN6TFi0a1vK1uXHmznMB0rxvbHaHpV42fDxrE8Z6z+I8+Dt7Fs3dR3l+f2h9dkJMQILIQx0GM6Tjjcda03IxYorCXXetq90VfdbaskLKpcPCzW3Jykb+jarHDI6LD/wC429cdZKhpPdbfWesx+/BJ7WGYd+vVOcICAgIOV+0D0MHrT8BQbKxvU4HVMQZEFSfmHsvbxt9WtTQmnsxIKuEY+gNl29AwjH0Bsu3oJwjH0Bsu3oJwlH5sbLt6Dn7vZiNFs+Ya5gAHBOJvXCgbGYeU+xS4Z0vCLNGtJcJYZrAIzOeNYB+a6dOTnX5vCmQIWGVtz2wGF7sveTyNCjtKStWphQo0448jAcv4GewDlP8AmJcvb+0sWyV1vxmeURz/AOR8fou7Pst8s+ry6t1K3MwyKXsSKeUiuLsbk7arzlv/AKDa7z/LpGnymfP0dOOzsUR60z9mfyVZzMbxrH8b2/3Y/wAZ/Lb0DB1/dHko3mY+p+5P43t/ux/jP5PQNn6/ueSbeZj6n7lj+Nbf7sf4yeg7P1/dtLIuOffAw4BZ+eJUXvtF9j1BQZc/aG1xu3nSvTlH5n90lMWDDxrHH6u7saxYcqK/fiEY3EUxaLRyBT4dmpgjXnLW+Sbr7saxbW06kcEXq13WdXnhA0jPmWve1x2iJ59Gd2Zhyd0jv+tgu5aQTqiO3KpktM7RSZ6x90tY9SYfQl7BzBAQEBByv2g+hg9afgKDZWN6nA6piDIEFacnRCpUE1r7MiCvhkaB1hBOGRoHWEEi2RoHWEDDQ0DrCCnbk6JiVmIF4axYMVgxjE4sIaddFtWdLRLW0a1mHyS5qL99v7XD3H5LqVcy3VnitoSMxU8IJe5VtXj2Y1i3JmvNRtYuix2QW8haOhzsp7BTvVPaMsYqWyW5ViZWsVJvaKx4vodxtgw4hxj+jBAFNNxz+89K8Jgrbbc1s2Xj55fKHobaYaRSjvWhrQGtAAGQDEB2LraxThEK/PjKb9Y3/gbpfpOQ3WJ02wco9/uVe23Ya87R9/s3jFafB4M8z/AVDPaWHwn9m/cWeDOM9upRTt+HrP0bRhs8OnW8gJ1BRW7Qx+FZ8/VmMM+MsL5txyYvequTbsluEcEkYojm8y+N1elabNE2yatr8KtBaH9W0YTBjo+A09AIc7uJ1K3SN/aqVjrH5RzwxzL6EvYOYICAgIOU+0L0MHrT8BQbOxfU4HUsQZAgwTUeG2nCUx5BS+7UGDjkvmbsfRBPHJfM3Y+iCROy+Zux9EE8dlszdj6IJE7LZm7H0QfGrfgCTtCLe14F73PZip/SiGtAPymo/tXQw31rEqGWmkzC3Hg39HNINQOgjkKtxKpMIloDmuJNMnzCxadSsaNZC9fH7/8Axrldrf0mT5L+xfrUfYbhB/08Tr3f7bF5rsqP5M/P/UOxtPtf2b1xAFSaBWbzFY3rTpCONZ4Qoxp/kYO0/ILkZ+0/DFH95/H5+izTB7ym+I52Ukrl5Mt8k63nVYisRyeVoyJqFUCqBVBnhvDGOiOxAAk/tAV/Za7tJtKHJxnRprjIBjTUSYd+AOd/fEqANV93Lodj4pyZ5yz4fefModptu03XeL0ygICAgIOU+0L0MHrT8BQbOxfUoHUsQZAgxR5Zj6XwrTJjI9yDHg2Do97t6CcGwdHxO3oJFmQdHxO3oJwZB0fE7egnBkHR8Tt6DU3SXHy87CvMcKK2phxBVxYeUEE42nFUKTHkmko8mOLw+azNyVrSpLWQnRWVxOhXsVjuhp84doCt1z16qlsNujDg21//AK0z/o/Rbd9Xqx3M9HmUsOebHbGjS0wxoJLnuhlrWi9IqcVByLn9qXrOyZOPgs7JS0Zq8H1S4iIGy0Qnn3dv9Ni852blrj2abW6z9odXPWbXiI6M0xMOeanJyDkC4W0bVkz21ty8I8I89VumOKRwRLtBNDmWNnpW99LdC8zEcCLMS7SWuexrhlBdQjFXOrc4cMc/uj3rPPHJXnYW2N6d1g8yb1zjkrzsLbG9O6weZN65xyV52FtjendYPMm9dPG5bnYW2N6dzg8yb1zjctzsLbG9O5w+ZN67S27a4igQIFXBxAJAPnmuJjRy46LGTJvaUp5+BWunGXX3OWXxaA1h9I43z/3Hk7BQdi9VsOy+j4YrPPnPzc/Nk37atoriIQEBBDjRBx13sSsOEP1D8JQbmxfU4HUsQZQgkIJQSgkIJCCUHpAvgg8GMEGsuhj1lowzs+YVTb/6a/yS4f1Iam5L0L+td8DV5bZ/YdC/NaquUsM0ofO7D8la2T9T+34R5eSnP2A2LEdEL3NLqYgBQUaB8lcvhi06yii2iv5LM5x+oLX0avVnfk8lmc4/UE9Gr1N+WGdudZDhveIjiWNcaUGOgWLYIiJlmLyr2DYzJhrnOe5l64DEAa4q8qudn9nU2mk2tMxpOiLNnnHOkQqXPybJmI5j3OYGtrUUJPnAUx9Kv/wPF70ofS7dHeWLYctA89gLomm81cOjkHYFe2bYMOz8axrPWeaHJmtfhLcq6iEBAQEGKYOJBxN2rvMh9YfhKDorF9SgdSxBlQSEEhBKCUEhBNUGN8RBXiRkFd8ZBrbYi1gxB+X5hVNv/pr/ACS4f1IYrk/Qv60/A1eVwey6N+ayuVCyVTVhN8Vnek0e4LC5zWjK4gfVS4aXy5K46zxmdGtpitZtLdOsdl7QOdfZ+SvRmXp7dhYu70i1t7r/AM6fv8XPjbLa8YjRpbQBEtGByhkQHpxrj0rauKa25xrH0mVqZibaw1dy0SjH/vHuC7fYf6Nvn/pT2v2oaS5CLSM/q/8AkF2lV9Cko+JBsYcVBnaaoJQEBBijtqEHG3awTwTHUxNiY/ZUEA6/egvWBbkqJaFDfEaxzGBrmuqDUcozhBfwzJc9C1oGGpLnoWtAw1Jc9C1oGGpLnoWtBOG5LnoWtAw3J89C1oPL7bk+eha0FaJbUpz0PWgqxLZleeh60FaJbEtz0PWgpzNpyzmuaY0OjgRlzqPLjjJSaT4xozW27MSp2BajYLi1xBhvP3hjDXDFfDOF43S2C847urrF43odOYTXi+YQQeUY2nUo8my1v61Z0+zauSY4SxugOHJXoVW2zZI8EkZKvHBuzHUtO6ye7LbejqywGPa4OAoQQRVT4MebHeL1jSYnXi0vakxMS3brTaG1IoQMdSL0duZeq/itdz2fW/b6/wDHN9GnXnwcVdDbTXgwoZqCavfyGhrQb15/Nlm86RxmV2tdFazrTl4MLHFaTjcQMZJzDuXqez9mnZ8MVnnPGfm52bJv31hrbkIZMR7uQNA7Sa07ldRO/k24kGxhILUJBlQEBAIQUZ2Ta9pa4BzXChByEIOXj3IwqktdEaM1QQNYqgwm5NmnE8O5A8k2acTw7kDyTZpxPDuQPJNmnE8O5A8k2acTw7kDyTZpxPDuQPJNmnE8O5B4dcizTieHcgwPuSZpxPDuQYH3Js0onh3IML7lG6T+7cgiFc7eZHvoeQ0p7lU2rYsW0x6/PwnxSY8tqcntkrMQTWGXD9ppXpByrg5eytpxT/L9aPPhP/V2u0Utz4LDbemWYntaf3NLT3UHcqdpzY/brMfONEsbs8pZPKd/Nt2itPSPgzuMbrfmH/ca0ftaXHvxdy2rOXJ7FZn5RqxO7HOVeJAmY3pC4j8xxDoaMiuY+y9qy+3wj4/iEVtox15cXmLYBeKF7wMwoAV2tk7OxbP60cbdZ/10VMme1+Hg9Qbkmcronh3LoIXS2XZLYTQ1jb0DWTnJ5Sg3UKBRBahwkGcCiCUBAQEBB4dDBQeeACBwAQOACBwAQOACBwAQOACBwAQQZZqDw6SagxOs9qDG6zQgxmzQg8GzQg84LbmGpY0g1ehZoWR6FmhBkbZoQZmSICDO2AAgyBgQekBAQEBAQEBAQEBAQEBAQEBAQEBAQQghBIQSgICAgICAgIP/2Q==;" vertex="1" parent="1">
          <mxGeometry x="320" y="-588.5" width="65" height="65" as="geometry" />
        </mxCell>
        <mxCell id="qDxGLgxu04z0kNvVjK_c-2" value="&lt;h2&gt;&lt;font style=&quot;font-size: 10px;&quot;&gt;Producer&lt;/font&gt;&lt;/h2&gt;&lt;h3&gt;&lt;span style=&quot;font-weight: normal;&quot;&gt;&lt;font style=&quot;font-size: 10px;&quot;&gt;producer.py&lt;/font&gt;&lt;/span&gt;&lt;/h3&gt;&lt;h3&gt;&lt;font style=&quot;font-size: 10px;&quot;&gt;(Simulated Traffic Data)&lt;/font&gt;&lt;/h3&gt;" style="text;html=1;align=center;verticalAlign=middle;whiteSpace=wrap;rounded=0;" vertex="1" parent="1">
          <mxGeometry x="210" y="-566" width="127.5" height="20" as="geometry" />
        </mxCell>
        <mxCell id="qDxGLgxu04z0kNvVjK_c-26" style="edgeStyle=orthogonalEdgeStyle;rounded=0;orthogonalLoop=1;jettySize=auto;html=1;entryX=0.5;entryY=0;entryDx=0;entryDy=0;" edge="1" parent="1" source="qDxGLgxu04z0kNvVjK_c-5" target="qDxGLgxu04z0kNvVjK_c-6">
          <mxGeometry relative="1" as="geometry" />
        </mxCell>
        <mxCell id="qDxGLgxu04z0kNvVjK_c-27" value="&lt;font style=&quot;font-size: 7px;&quot;&gt;&lt;i&gt;HTTP Endpoint&lt;/i&gt;&lt;/font&gt;&lt;div&gt;&lt;font style=&quot;font-size: 7px;&quot;&gt;&lt;i&gt;called &quot;streamer&quot;&lt;/i&gt;&lt;/font&gt;&lt;/div&gt;&lt;div&gt;&lt;font style=&quot;font-size: 7px;&quot;&gt;&lt;i&gt;endpoint, port 8000&lt;/i&gt;&lt;/font&gt;&lt;/div&gt;" style="edgeLabel;html=1;align=center;verticalAlign=middle;resizable=0;points=[];" vertex="1" connectable="0" parent="qDxGLgxu04z0kNvVjK_c-26">
          <mxGeometry x="0.1441" y="-1" relative="1" as="geometry">
            <mxPoint as="offset" />
          </mxGeometry>
        </mxCell>
        <mxCell id="qDxGLgxu04z0kNvVjK_c-5" value="" style="shape=image;verticalLabelPosition=bottom;labelBackgroundColor=default;verticalAlign=top;aspect=fixed;imageAspect=0;image=data:image/png,iVBORw0KGgoAAAANSUhEUgAAASwAAACoCAMAAABt9SM9AAABjFBMVEX////9x1oAAAAdGBb+/vzlcSfsaEwmEAr5vVfLx8T9/PnR0dH/zVz+////yVr5+PgKAADmbiGMjIzfcyz78uQlIB31wFthemBQUFAkIBwYERDy9PAbFBPYfjsgGxgAABDisFkmGhbGyMPq6OhNWkxINR//0V6Dh4K4urSfn55GR0LXaRTobCnmby/++O7dp24ADwCurKk8OTg8QDjb3tnefDbysFLlahVwc25OUkqclpI2OChNWkhpZmMaGxddcVpDTT4wLCmys6wcKSOZcTQZHxBTOx5dXVyLk4nqs1iAfHq7l0ssNCoRGxnZrFZwVys3HxWGYzOvhEBLJh1rLiJjOSDdYkk2Ly0LGAd7PiheLSJlWDQZLhaTTTJkbGOndTuyTzoxJBDNY0N4gXfixqfpqoTitpPUi1idh1DliFPmoG/y07p8Wi/YiD7QZihpTCvovI3RjlGRZTNLRzAbAADLmnbvvKPefUzHcSy0nFaDb0Hbu5v43szux7LVnEndiEzniD0LHQCgRDOOUC1xQdY6AAAQK0lEQVR4nO1dC0MTVxYebm6sTF4zJKhMQrRJFZLg8AomoYsVClWjVWsfalttiyTYpLqwreKWKOvuH99zzp1JAkJIzGMiuV+LzFwmw8zHeXzn3DuJokhISEhISEhISEhISEhISEhInEjEssm53GzY6cv4GBCfZwKzTl9J/yNuMBuLTl9L3+NzVoPH6Yvpc0wiSca1f5AvnnP6avocS8DR1S/Onj17DdmKO305/Y05oOgfZxEabA07fTl9jcAyUPQFkfUlbK04fT39jSRQdA25+kJG+GORZ5YfjsH3GSlMGyJNmuHqMqmtvNNX0++YqNNZqtMX05+IjXz22UiMNvM2Va60wxfVn0gnBT1Jomd2mXbyMmAdhvTBAie9MhuTVB2KgKtGlsx/xyCBLH25uooqlI04fTV9jjXg6Kshr3foK9jQ6n4QX8kuXc8nZJyvQUWDeusdGvK+xa2qH6av276ZHNgSMRxL3JgdDtQG4sjHTf/QkP80btl2tFint9iSI5fqNOJZcfdGvkYX7t9Cy7qFW9Z4nu1DbgD1aazu/qu+dRt2vr7j9V74FDbWxJhlV3dXV+/eG1Dbmt1nLcP7Ri9epG9iloJck31zxgvw36edSecu2xFY4vPb7wQv1T5oskZgktMIxfZblyCQQSjzXjkPe6OBo098EkGkfP/DqVOn1omunDUefmBz9VDkQjKsb7xDFkQwG6yUSAHr0SmBH+tNK2C1GiYs60HH/PqM3yZryI/cDla/ZgTu+BOLq1M/IDmJ6s/Ck4nEZLj+yJ+qhgWmhWHrZ0cu2imgFz62yTr1CPaeHHEkhqxf6sjykx/29GKdxkO44V+rZD1mR88LnpNk/dw0WeiGd+vJQje83dOLdRroXD9WyfoW9p4ecST2IcbqArz3JxjI9vRinQaJz3WLq/VGQpOkw/2adLgzeKqUKPhNsLX+Ce4cWfBh0GJ3vMK2vKfxYG3ARKlQU4/W1399zPYrh4MQWv8+FjveS28/bXzwyUTAUuoz4luOH33oUzri3uqtW6t/ijqod5fZJ4iv1apA9qChX51j+7A2gL35QLX7ybIN7AqRredqbsAClgVPFq0rOnF8Yz1226ZKG+DVpYH4MUZlwzOSfLCczMYGsEt6AqByVW3yD90ewsMAz3C78DgZvdTKRlnlXOFdZizNOoQ5R/IiV/H/3VRKnza5UjUvzom3TnN3/XgamoQjq+NVJCaUuux2pwpIW40n3nmuDuqmNuDIBD+RVcy43W59oYKOiP91zRuRLOOTdqE5RxZQszkVdLsvT5VMnzAmCPcY8tWOmxaS9ex0u7jrFFlIhzmug2GBI+6SC1oMcR/vuIkhWfe9/vbg/cMhsigBVoJu/fc93a0HQz4xalY2SqWtUMejFllWXfPzg+B1zLKQjjLY1XQ55Q7qJdWnmKHd6fHXKV1PTXfcD8my/Mfz0ZgspyyLcl9xyp0pKgV0xDcbpedBIMqNEX/T7EbMap+svx2zLOCrpLszZSWEkWtKF0QhMhu807K+M27ogGWRkIKsx1VgSQ9xZQMcEQ1KTwWFYakdV/RI1h+X2uPKP3TRCcsCwwE21NALt/4ctcImmFVKHy+VywtA1mZIiNROIod68p+n23FE/5V7johSpMqsbG2iFeFeZW+89Kpi8tA2mNp4SO28OKWHLtnnZz7cE713onSOHi4xFSyoZrm4F0SFpRd8aEahEIorc5PkvK8bhbVgK3rhQ9kSS2l6+KAYGAyGqtBG6XUwo1OUel22imiu+swSKq5Kl3651Xe49UFs+S+t0qtv9/DZVvQvc2uBFAJEqVTpDfieKKChxNlKXdZTG10rD+PiMZP73tYDl3/oLr22tw9Ng8cVUiQRUuPT5RBH57N+YBaCuruLXClKgKI8+5e/Vbb8tESesYmuXdohAB58KlAC0WqvbMIODXLxtQscBovUjegaxBrkP4daY8t/kx6+6PU8K7gcyAQ0rODeq4qqiJayCOdbSFa5e00agliFfPF0K4HLe+E8varX6yQxOpVfi5LGHZzeDflEHwujGep4fY93vu+3DyIp/nWnebasNHj1EMlA+QrFtYkVByd1eLhjoAnEPZ6wbR9No7wtopY7k3ppVtsyivoqBRSWOy5HD8BjJcUm1bzfK9Lg8mGtd0jsxdJ0oQBf00WMwJTYDyVDXUxeBcZzMaXFQs4sl1IZSIjjr5R0XIQsSofjQOBOqBsd+HoExBvz/NJUUhQtrKMWVIKyXoAbmZqCwhYy1pZKBnbYxcfWmBFxuSIGu9Ha1XKfTw0VxhemQ2qCiQlPtGGVQ4l4OVX0tXr3rcKaw7/bBFv+M2JZyBErlcGy4A982a7/UwXTjir7DwPnN1wCY62mCVVVfTxUUWLzbIaLxnu8Ypo+vqkH3a9N3m1PtJLiV8dWit4rtNroyDeH4kpogeJvRnRMUlvv/6WRvDQDq4LzaFGXy2AtzaXRTAWc4gYzjCRRFZutpJ6XNkIV+JWZLbXbc4j2EyifnmnMlvdOpHEa5KK7tFfYKuylpoCtF+ZBu/LhveY04OpGPJ5lUXa79doSTqk+MFwGSeI0mwilsNLZCbqxju4+WcowsXD+baOk6BUP7biOrnCQLHDCbdwqY3fpRdkMmWaIUiPYRAh2TJXHmWtMo+nGRdS19mQDDwR8Si3EcXuQV/dqRIQfRoBuOGecaefMF1MkJ0Bq6cUjU0oHkdaIiX8fmRT9l/6mI5INvEZYlv5cQXcpUNeyuLOzM16mpOWrvB7f2XupKjEGhrWIaTA8TMkMSfBM5ObmcvlY7WQwGMvj4FOP3W8AyicTi4uzYE+uUXxnnPiyERkzN1NUWbsvB/VdtdtiCxEWjzetHhHm7Wqw4aNzFll76CdKGZSPu1iG8JXZpCkEXoQkmSlgyILIzognMTMKgWeOQRAyDI3Ne6onm1xjWnVQiIIRKxcPMzpDeNlwacmwWQa318G8plKVzvdJD4WoFP84tPbxn2muGiSytkmOljNgWa9M9EaIJChVt+F2UhXIZ0hWhJo7wg54vpodIeDHFBGWsrVBbYYG4TjaG1FW0LLigaTm0sYCyI5ZKW4Gg8/LKu9qfVjDiNUQfJ8tu8I5ZhWbiFlUdnBeyLiDwTdKCWdfyjgQgipY31F9qjLBRoEVzWPFKn6NTA3TI2ovlsa7B0vHbYqSSCFGylnYHNPwMvKaK7IWntdGjWRAsYKZCsFR6X7AsiGS4m83D4Z579vzTTX6kKypoL6n+DivYKgHlio4xY6LN3wb1BmAAoeHPwebGTWYxVYWODCMRU88nZiBPKnlKGOio80k0vH0LMpXbQmOXTOAvmx+Ka1ch1ckn6BdhUX1TGUWV3vkhISYSIr7K0X/pWeiwjm20WfHrEqlsrUwhV1ek4dwzjiFxWIJQ3CFJD3kQ5RYDz1CoYI0XRL3GJ4DGrFTPcuiUWY9uB2+jYNxfNUYExngXcQ1ZmguYy6s1FmTVez0IsQj0i6rIVhPlqgGk8cvWxNkBYOZTEZI+CKY2JabIhU3sdTdVsVxHgo+LhCkaC9Ro5o3MPiDqAd+RvGBF3H7FM5XxM9ISQTEy5HBriv2BuDzB9myqsFmHtWxRKkFnEgH76hQVuS+Mrpl0f6bezT0RO2cwoGJCAtXvScH+W0Crc1YDtsWokLSAwYhZEXe0Vic4hjEr2wXFxo1AY7vH8nu1eyK3t2huQkvu9wBd9P11E7BxL65in64Z5Lu0kPWkSqwFUXTiGG0p3u2frKkIVlLRJmV2VTlHJGVAAZzRBYqNeMaOqfTC6fxKRVXNSX6LyBXzT3VRJYVdE8FFxbGN7dCYsiHraZghSaQS9ROEcaQZsCWlkdTAhez8iKn3YQCGaD2O7lynY55quHxiFlUDulljPfpnqW/Q4EdrnvVotp/Bclq7pXCsqBAA5jcZ8Xa0ILuTu2iN6Y2lGoUxgfzwDyuK3OCLKucUaHGBgJ+jtQZDSfLGgbKosAjnnKRohcGPmPO2YXmnn01tbCs5tYkWwF+T1V8PtuCwA8xDZZ2wbAWQjgUtp5QCOMdT6hrEaTMJmuERY01RUmCG9aiZHiZGJwjytA3n2jRCENhCGdw9u042iVL397vGSoUPpfHcQ50E/R1IHGVibAcQ3UwiSkuyjzWylkI7FFc0pvVxsjDqOOSBlpBglLx7CHLSkICzcGZ511j6K4OBnlywzP73bBFsvaPmi8g4v8HvsoqnhzbM3DHsQiEnKg6TLWPEaMkN4GOhW+8ARE8amjD6GLx7Aj4mzGHKXB0hjJkGKyRVCowPeZyNGwdIKs1y8KYdYAsxVewOqemCr4XicL9JbOg0KOjEJcSJJkiLJkfeXKVUWGDzWhseRksN7IIg5MoJLB4jrrw0TVuN2goeI25jPnePGZxKA644c2WLWvvwF/ah8E9CLkQfe0GkWOgzHKheIMqzxUBPW9oVBlqy2k6EWp8GjQibBgIBSGByiFpXaGLvA82r2MfcULpXUl4AG2Q5SPLOkAWV83fdfcCFIo+rN6w6BsV+huVFOiqMcMS5BGN5aimAlI9Y1bTwWDhvBaBQJZnUQ0nSriywiIRq1ANsyhsz/ao1fA+2gjwQFbGnTloWZzvTpGi8NHMInb8NYMxMQ32DhPdolh2cXUpptiKS1EnxKCRVa+9WwP1mnv4bgb7q2ida2vvwiIlrMy8W1vr5bqn/ThMZzXrhubLUqn0svYsjZgwJj/MFKwhJT67mB9ZEfeHVR5UiKpnZXZlOKzYiY2+hT0rCRoMA8S/woACuGmnQNwOB/rEDVuwLFJVWNnWyMJ6R/W9wbYfeuF7t4QpjvkcFeFtoR2dJRZq8DrLorkKXMC4YNaP23yCRjDm617+seEAWS25oVifV+eGCs5+FUHWTxWV6pLrumlqqPKMpVoJ9NGhHTc8GNoVXi6Xt17ooqV1iNAeYRoopo+TKMSHSweltrrM3lPHxfL0TEE99FHAyURi0eHGQVuoz4Z+75m/WyLLcsXqDt8TC6r2aBXS4aw42r9rEzXL8ntPPxNTFR92JlRLm1OZTCa1Hfp4+WgImyywqmdinprNH/+qI8BfFYrFYtlUT+j7G1hkeU+vCqtiLPvhj9jT2vWP29MawiN68L9YVsWW2qgluFof708gkKyxVZuqbBuPBdA0PsrSLjxP0yewVpkKq2rrCQrBlGgYn3iysvJ98o+DR1LVPNKSqhaQay8DDhg8kioJCQkJCQmJlhFP5D9bGvGc0Kquo0jnrLJnebDezPxDUP8BRoP1QSitY5LVY/A+7KoViGLa+P6//2v8OKaEYr2N6aPqJ4Gw1h43HSzEa1ydOvWrNK2GoOhe/eCU71ntc8Qk3sPTOsOyTMvpS+pfPJFkNQ9pWS0gsS9mfQc715y+pP5Fuj4bruPOoH3MTiu4XWNr/S/c7uHb1X10EHOH9x6vP35EW/JT3Rth32dsszmnL6fP8bSOq+QJXVzVOUwaNlfSB48Hn3wytzx3blbW0BISEhISEhISEhISEhISEhISEhISEhISEhISEhISyv8Bc8Xj/8OgdJcAAAAASUVORK5CYII=;" vertex="1" parent="1">
          <mxGeometry x="798.75" y="-863.5" width="175" height="98" as="geometry" />
        </mxCell>
        <mxCell id="qDxGLgxu04z0kNvVjK_c-36" style="edgeStyle=orthogonalEdgeStyle;rounded=0;orthogonalLoop=1;jettySize=auto;html=1;" edge="1" parent="1" source="qDxGLgxu04z0kNvVjK_c-6" target="qDxGLgxu04z0kNvVjK_c-35">
          <mxGeometry relative="1" as="geometry" />
        </mxCell>
        <mxCell id="qDxGLgxu04z0kNvVjK_c-37" value="&lt;i&gt;Data Source&amp;nbsp;&lt;/i&gt;" style="edgeLabel;html=1;align=center;verticalAlign=middle;resizable=0;points=[];" vertex="1" connectable="0" parent="qDxGLgxu04z0kNvVjK_c-36">
          <mxGeometry x="-0.2022" y="-2" relative="1" as="geometry">
            <mxPoint as="offset" />
          </mxGeometry>
        </mxCell>
        <mxCell id="qDxGLgxu04z0kNvVjK_c-6" value="" style="shape=image;verticalLabelPosition=bottom;labelBackgroundColor=default;verticalAlign=top;aspect=fixed;imageAspect=0;image=data:image/png,iVBORw0KGgoAAAANSUhEUgAAAlgAAAJYCAMAAACJuGjuAAAC31BMVEX////+/v7++/v99fL87Of64Nn51cv3yLr1uqjzrpnxn4bwlnrvjG/tgmHseFXrcEvqa0XpZj7pYTjoXjToXTPoWzHoWi/oWS7pYzrqZ0Drck7seVbuhGPvjnHwl3zyo4v0sZ32vq33y77518374tv87ur99vT+/Pv++vn98e775N351Mn2w7Pxm4Hvi2ztfFrpZDznVCjnUybnUiXmUSTmUiXnVirpYDbtgF/yoYj0tqP63tb87en+9/b+/f375d/40MP1uKXuh2jnUSTnVyvqbUftf173xrf629L++fj4zcD0r5vwknbselfnUibrbkjxnYT52tHse1nnWCzuiWrzqpT76OL+/v398/D1u6rrdVHnWC3qaULuhWX4zsH86uX75uD2xLXxnIL0s5/ypo/40cX98O3zrJb52c/zq5X87+v0sp73x7nvkXTwmH73ybv0taL63dTwlHn40sf++Pf++ff51sz99/X+/Pz4z8P86eTypI31vazrcUz3yr3wmH3ypY7qakPzqJL98u/1uafsdlP2wbHtflzxmn/xnoX2wK///v7nUiT4+Pje3t/a2tvm5ubr6+ukpKWcnJ2dnZ6bm5y8vLz9/f3Z2drS0tLV1dbh4eHs7O309PX7+/ujo6S7u7yrq6ybm52enp+goKG2trfFxcXY2Nn6+vu3t7jx8fKpqarKysvv7++1tbWzs7Ovr7Cfn6CqqqvW1tfX19i4uLnT09P8/Pz39/jy8vPR0dK+vr/BwcLz8/Ty8vLc3NyioqPt7e6cnJy0tLXw8PGnp6jCwsPk5OSsrK3Q0NHo6OihoaKmpqfq6uvDw8Tf3+Dd3d6lpabOzs7IyMj5+fnl5eX29veurq/Nzc3AwMDMzM26urv19fb4+PmxsbLU1NXExMS5ubq9vb7Jycnp6erAwMHJycqwsLHGxsfi4uLLy8yoqKnk5OXl5eagoKK7u7vPz9Dj4+ShoaH8/P2dnZ0nP8gsAAAu8klEQVR4AezBBQECQQAAMNzhz3G3/g2pQIBtPQAAAAAAAAAAAAAAAAAAAAAAAAAAAAAAAAAAAAAAAAAAAAAAAAAAgD/RHwxH48l0Nl8sV+tNF2LKpbZtqyXv9uFwPJ0v19v98Xy9P98fe/fiyOT7/gH8ejYqoTBzipxmJj7s2XXdo9SkZwpJBxJG1ulTKToQOn6Kzr/vH/0rHSTbjOe+7212vf4Ax/fuw3WfDNgOY4av5VhrW94/7R2H/a5yM4BEArcSRBgIlnVWVnXVHD/R0H3yVAhiYizk7Dnde/BMlb/MFGSRwGQIsgjDnX1n8/PO9TcNGPAnxpk6Nnh+6EJx+TBZuBuCSJiui9WXDjSe9AFjAKGWyweOXikeQRJoF1HAfXH06uBYdjdd7Np4/0T+pCtAAuUhEZmavnp9xgFZifmiN24e6VwPlXSEkaL2W5edBmQVZnj7b41WBkmgOjTs6rh9598QZAlmOBvvdnUOEyonRNnkwcGmELAsaKvu3e8oFQI1ERSpujQ4GwK2lzk8D8660EK9KDJ5fJ8X2B5lzD6cKw5YmAJCuLtO9DTD3sN83fcnw4QpQ4HK+dNO2FOYMf6opgIFpha5z/bOXIO9goWij69ECNOBefF2twP2AuZ4UlsUsDBNCKx4urAImY4NtOZXYHqxSkf3OyGTscU7NS4SmG4oUnjOCZmKPTtd4CZMSxSp3u+FTMQcS3NyY0UoE5VPNyxDpmErT452yo2Vv4hQKiobfe6DTMKMaK1fCJSH3EOt04SSUenTJyHIGGy2rm9YoESBI/sdHj/KR/7bLwzICGy57YhJKBG5Xp4EeBVAFQKvD4wDS38rS+0RC2Wii2+aAYz/CNUIFg76gKW5mbclhFLRhX74xnlEoCJU+k/UAJbGFtsmAyiXdcgD3/UUo0KHX3mBpSvD87RcoFz0rhHW7XOjSiM13QawtLQ80SdQttIb8MM5E5WiqV4nsPRjeObCAmUzV5vhh4kAqkXB9icGsDSzWN+H8lH1Gvx0i1A1mnrvBZZWok/LLZSvYgl+eWChchSu8QBLH45HVajE7RD88phQh8PnHMDSxOzLUkIFqOoF/DYRQB3IXTsLLB0YT6pNVMLshQ0PTdRCmIX9BrCUc7QVESpBH2Zhwz43amIVffQBS7G1t25CNQIn4A89ftSF3C/XgKXUsXZToCJ9Y5sS/EGgNmZ7D7DUCT2vIlSFDhrwh5U5Qn3oQ6sBLEV87ysIlXG3wiZ1hBpRcb0DWEqs1ZahQh3jsMlCGWrlXnUCS4EXBSYqRKuwWdNrgVqZQzmgHev+hEqVLcBmoXxCzaqPgV7MWHhtoVKHm+AvbSZqRof6QScWelhJqBTVNMNfXhQJ1My6eMcAbVjzqxKBatH5rWk+SqibVfkwBJowX10poWLhQdiiIYLaUcmrZtCCPbtfjspVeGCLlkOE2lmljx2gATt1ewTVm1yDre4SJiWCMrnrfMCU89aGUT3rjA+2yi3GJFhVBSiTKMsbAKaY93hQoHr02YCtVpIZvlPfvqcWShW5z8lSbLlWS66Q7kIsC27clv+68wJKVn7XB0xtrlCL4QMQy/I0YWLC/QrGKlG28jwfMGWe3Q6iHuYNiOlGGBMzXzrgcinKJsrrHMAU8d2NoCYjzyGmlguEidCZFoA3QZROuN+HgCnheFAmUBN3I8TWa2ICYqofACaGUYHOjwYwBUITboG6lORCbCcnMYFgL3yTR6hCxSNg8hk3Oi3UpvIFxJGXsCN0wjdvCVWgqQVg0j0vFqjP4VmI49gUxlWyBN99IVTCOtwPTLLLFwklMsswoSNOiCN0kzAO+rIC3xifLVSDLkSBSdVzxEKZylevYCLVAxDPPhfGJt55QG2wkEZngUnUdIZQquFXMzUmxiXmVmBDkkVSum3AupsWqhL4vAxMmuX5AMpFb2HtS1jE79QgvldmnFKDB344TqhMMK8ZmCQreWGUjIZCsLg6IjA2yoP4Zi5iLHT8GvywSqiMKG0DJskNl0DJaHog0QpRYALiM2LP+kr69Vz+N9UITIp77whlExecAOD9HMCYgo8ggTtu3Mqq8cFPXwOoEB0ZAybBTAehdOLHDtF/RwljcS9BAuOxfqLwQ/jl+QiqRHNOYLZ5nwqUT7yehe88r62kdrxviLNmY03Owi/dnaiUmbcCzKbQ+SAqIH6dR31YiluJvpOQSP/W5FAt/JbTJ1Ap135gNl0vEUrXbBxfBG5hXfFCIsuFhH9xL8Bvy10ClaLXHmC2RD9YuE7FGGvdWBVuYRU0Q0J1+Bf6sAa/GfOEalGNE5gNy0OEahxywk8HgsnWRzf0l8TrCdedEKiWCJ4Pwa4x40QY1aDCRfhp7RPFP18fh7eLcJPIIPyhtQxVq1iAXWONxaSsL1mBXz5uSa/ZBnHEOboqLubAH3IuomrUkQO7xP4tJFTE+gK/rV2xcLOy1m0jX/pXaakZ/uAoIFTuoAN2hYVWTVSF6mDD4wBu5u+BbawdEvinE7DJLYHKuc/BrrA7JaiMeQ42RN/FmzLGt3m9sLQRNrnnQuVEVRR2gTV9IlTGdTnBxVd0xgfbeRjcWsffMH5BoHI0PwBsx0K3A6hOXw78YX8Y/0SXYFvRqYTX/70lVK/sBrAday1Bdah6cfMsTuAf6DFsa+AMJdq+teBG9WjyBbAdWiu0UB06Dn8KPSX8Q/gNrEu64DAyCH9ZO4IaiOPNwHbEqDNRvriFqnoz/mnVOE6X42/+Y/C3+4Tqic7TwHaku1KgQhW5sEluRbx1v7hmivAXcWgc/vakBDWgwjVgO7A4R2rL1k7YxHlBbN4Pvz3fxiCLYpzp8bUTamA+BrYDbeWoEh2EzYzPhL9ZtyAZqxvBug9btQVRhyIPJI3lfCBUKXgO/nJgOP6zX3E0hGNUWzc0TaIONO+DJDHjbgCVmhqDvyy58bfDJyEZPcX4k6sfYrgrUAfXc0gPPHJHKvDBX2bexa92xuHswJ8uxkyipxJ1sKadkBTm+I9QqeFe+Jv3k8BfeiEpxq8fk6qfQQyhg4Q6hF9BUtiCC9UqeQLrYpdIO/shOb3xr+5e11+BOliTOZAEdkr1RJ26vAkK6fTJCcm5U47r6AHE1JxvoQ6BOkgC21+GalEerIv9GCFdhSRFi3Fd8A3Etq8TdRAXo8C2NV5IqFbnZVgXe1roaoSkbFRVO7shNt8coRarBrDttIVRLapehq2O+XEddTkhSaEh2pgUahgtxvfOA3GxjTMzagV6IYbZ17hu+BYkZWOhWXxahjh8Q4Q60EsDWGJfg6iWqOyBGBa7BH5X6YGktZnbLS0udQrUYcoDLKG1DoFqUX4zxBD6MR6i/1Ygaffc+A2tQlyOo4Q6UO01SCkeYWF5A8RUS/hN6QIk78UUfhP4CvFd9iM3WWnAWWihWuLIGsR0ixCR2hcheeOH1pMaJ4tay+9iFVgC+yOomMhLNGByD8IOONpp27u0citRi74xiIstjhKqJfy5ENtCOSK1n4Kd+EIbR7/iMFZRi8B5iIstlKJiVOOD2Lo7EV13YEceECJ1LUIiY68JNRCTcfPNHE8JFQvegDhm3iEd9cGO3DAR6WkIEuo1UYdgPcTBnlSgYnQ4B+IYnxRTubAzrWWIdBsSa+mwUAMqdEJs7DahYvTFgDieVWPd/8HOeCoQcQK20TaCOrifQ0xs5jWqVvY8wcrfzo9S5RQhhq9vX0Mh3KC78gvslYmKUaIR7qsl2KnxDwI7u2E7D8tRh2IPxMCWqwkVo4MQ3+IK7NRANWHRDGzHufGb6S/RsaVSVG2kAaQKzRFecMK2boygBuJQC7AtjIOEiom+GZDrIFG7A7Y1/olQg0gDsC1mLgpUzKppBrmuEn2BJEyYqAE9bQb2t68mKncCJDuBVAdJOFmFGojKY8D+4isgVM11DyRrM81zO9hsito3x7Jcv4bltBaQrCHobpT160lA04vANnuAytG8AZK1lvujkAzHkIUalPQD28TbZaFq5leQ7Ym7qgWS8iiCGlAesDgvAKrjzwXZekqqn0FSZicJFYpzjJvlEaomurwg22xfvgHJeUu4Tu/8hHtCQtXoLUjnvXIfkrTPzX3h3uwJRxpAuua5ekjS+BVC9eisFzawW6he0QuQ7/1Smuw2i3UJE3t2hlA1q90H8jmXIVl3ylCHx/Ab8/gFqmbVQWrNVglUj0Z9wGI8DKGMex+kViifcJ2uqylY6CihcoebIMVeBVAD8wYwjZ0EzTVDinWXoAZ0yYAfWKs7Kwa144dQA/r9sA+rI1TO3QiQDYOsjcdjmaMgK4ZYAI9RvY1b7FlOn0DVqMABKbdQhsptnPlnd8qyZA1t/f5ubfsZ2XlC5SLPIfXGjwh9gyzWXGOhcpXRtPhNCTUITMA37N8qVE6cXYY08JJQA/rHAADW78qav3UvavHJC3rwgcLAAUgHb4KoQ3EUAFgtoXJlrZAOGt2oQ+Q6ABuYpqz5DHsqUAd6AMBO9qF6F5yQDmaKUAfKDwG7V4rKWXOhbJkAr+twAmszUTlahbQwfgi1qBwDdpWyp2To/YRauPdB1luZI1QufB3SwmKhQB0C9ZD1nFdQvc5uSAsD1QJ1oNuQ9WbeoXrvZrKmtLKOapqBF3RQvaoWSAvPNLVY4gpPCx8FUb0OL6SFU10CtSiagWz3mFC96YHsGVCucz2BbHecUDkx6oC0sDaJeoQHQT2uNogCB6SFpouox/AEZCH9o46CZkgL0UrUg64CH4LOoq7wSSfqQfMGZLexStSg+hmkhTsR1IPvnOnuRA06liEtfAygJle8kN0WyjGLCqR5hJpUzUJ2e2hm0TYSY55QD944MzGMGrj602RFh1CTzlw+Ba1B8BGkg6bDAjVxL/HD9RrQg+xZcN/YgZbVbuoJ1n9GVuzC3mCeg6wWGrKyaBvJS0JdAq8gqzUXEOpQ4YHUezZNqAs9hqzmOyMwa64SHnuHmvCbOouFqAV9MSDlBiOoDa1CVvN2oB6HxrNhBryBavmMjhaljZBqy106g3WJW6xs6RpyK1Af6z8Dspn3k0A9roxDih0IoD7WUIiDpYX7dBbcZr+BClYgmy13CdSD5kOQUtF3AjdkxabZLLjMAFFM9aT86TyNaHoAstlitUBNhutS/oisRuKML8vviRSoiTXZBCl0rxN1oizvCn0aP8fmK0id0BdCnajdAdmsuV2gLtTRAilzbAq1EgXNkM1CNYTaBOshZa6iXlQTgmwWemqhNnRlFlIk2idQKyv/GmQz47OF+pgnIEXuo2bWPwY/S2GPRSQwOdbhKKSEp0jgDpBAu6zjkN3uEtpkjtZUuUwSmARRG4IUCB0nTI4gESypan87aaV60Z3vXTPbjNn+r8cLi8q2/6SLkn2QAv1+kVymKj7M3d2f29J88jW/emJTfQBtMj/CN8bizMKJ/Av+oCBMgM44QTvfU9ouUxismKy5+yZ3bQW+2x/mxzBt2m+iTXQXfgmNe97cL6jqNIkwjmAvaHe6NEGkaLi8+MrQ+W+ZaoZfQvOU8uNffCmI9ckJf3LM9n+sne5zB8jCrcS7btDMeYYwFrIC7qmzn3vvRJ0h2ORFEdoVfg7Z7YkL7XK3wt+MgZzGVwcL35UFiLZUDr2g18dwjHYq4C7quvm+dWzZULMRwn0Pslu0GO2igwbEsD7s6p3vKB5BS+CG8AkDdJo9Ym0eopuuw2eO1zfOLBoQ20A7ZfRByr1yT4a4OANxXfP2DJ4f+lCxMai3ihtBp8cm/kQYLKkqWG3rb/IZkEB/CV/0bpv3ikC7zAlIbGU8d//Vgtc/q13U1QT6vDhsIQrCsP/QXN7+3BaHoeOYmJhcg+zmkNDsU5cTtuf4Xu2qLnIHCG8OgC7GVcTy4o78B4PHxlcgKTlVAm0rXIQs95nQtrJBSI6xOLM08aWw6gbo8u/n+RPr077kTZhoGw2FIMvdJ7SNagZgXbLpioZAk+ZT12Bnxs8SH4SW4FUA7XPtgz3jUTlfNiPD6QjaR/kO2CNOjRLfuyZDbglK0LkEe8RzN67j+qhNTRcF2kdzPtgTFgsIJaiMQrZbPitQgtLnsCdcd6MEYnIcsl0on1ACOuOFPWB5VNJfwwdZL49QhshH2AMelqEMdBDYORNloA85kPHWzlooRS+wyy6UInD1GmS690GUInIa2Mk+lEL470GGix4WKIXfA+xZtUApqN0JGW2lllAK8WEcGHwhlCP8HjLaQgnKQXPNwCTezVmUCxlsrZBQDroLDGDJjZLQ3DJkrGt5JkoSfAgMIKcPZRl5DxlryS9QkpJcYHIvX5vqhww1W0goiZD+DAc/hkln1iAjrdwOoCyUH4Jv2MMgSmNeDUEmanChPI/hO3bMj/J0NkAG6pm0UBr3PviOLZ+1UBqqOgYZZ7yAUBpxuAnWseOE8lDBOGSY5qsmymPVNMM6diOIEpm3HZBZ2koFyiNuwQ+sp1igRO6PkFEap3Cd7CEWW6y2UCIx1QgZJHrEQpmqZuEntkooE3XMQMb4d5RQJutoCH5ip8tQrjknZAjvfAClMuuB/dL0WqBMwlx1QEYYeBtEufy5wOIc1ZHAPWFABnCcL0e5qHoRfmMfTZTL8g9C+gv1ulEyyoMNrKdSoFyi8tW4Aelt+b0LZStdgg3M104omTVypfbrmzcNPwz+dv275+tOf3fnt4V1rT/t+2Hpu8Y/LX2374fWXxbW3fnt9HfPv7v+3eBvDT+8efOm7WphOaFkdGQc/sDeB1A6QWZws3AwvMXIb5FIpPynst/csZX9Uv5bJBIZ+SW8xfdvvpkpCKWjt/AnlutHJoF7AZj0t7gZfWgBtklvAG1j1ktgm3mK0TZW2gpsM0cNoU2MPjmBxamRMqnVUTZzWKA9rKIb/saML4S2MCrwwRZswY22sOBH2Io5zxLawMTrHGDSS1mMXgKLJVqENrDOy8BiCV0i3DVG7QPAYlpyoUzW/9KcZaFEwRvAYlscJZSHCu+mt7whE+WhD7MQBzsXRnnoPKS562GUJ3AL4mEtF4iDtUt9YxAXO2FysHaHXhoQF5t5zcHaneJuYAnc5WDtCt0MAUugp4iDtRsl94AlYtwmDtbO0VMHsIQ8UxwsBW9iM+MlcbCUvOLPTZbgYO1QSSOw7Rir3GLtkDXfDGxb0YscrJ0pfgIsCXkBDtZOUG0IWBJmJgUHaweKPMCSMhHkYCUvkAcsOeNdxMFKlviQAyxJb9wcrGSF64Ela2CIOFjJoTNOYEl7Uiw4WEnpXACWPON+gIOVDHF8BXaA5RyyOFhJqBqDHWEP3Rys7UXqYWfYQD5xsLZDNcuwQyy3iDhY26jshx1jvWEOVmLmeQN2jDkLiIOViDU9DrvA+iuFzQs5jbQGg2G0QRTfg11hj4NoAx2aT3PVJtpg3jIgJbgz/F+6Qxuo3Qm7xLqLBLKYRF8u7Bp7VY4sprKPsHvs2TyymC75wAY2c4RwC2Z15IAt7HSJwL8wUbwP7GGhB2H8CxvpNcAmtvxUINvs8yLYxmauWPgHRl0ngUmwVEn4GxNF/cCkqHcj+0V0PgQmh+OtiT+xcF0ImCTjNYTyWar9D+UL/LMITJqxDkLpOuaPqvWaUDYanQUmUf9FQsmGD4ChFLwl+RX3KDCpBv0omXUCFLtvoVx0+AkwuYz6UpTLug+KXbVQKlF5B5hszXURlIougWK1hDJRyTlg8j2rNQVKRO0OUMrIJ5TJPRECBZhzPoASiQ/joNTANKFE5ecdoARbmxtGifweUGr2tUB5Rq76QBF2chQlCj4EpfpdKE/w7SIow2aqLZSGakGpiQDKIoLHl0EhFu2yUBa6Mg4KrQyRxFx5QSl27JOFspTuA4XGigRKoiFX7NhZCyWht6BQvYmShGu9oByLFqIsr3NAmWVZxQYRuX0KmAZj0yiJOQHKPHejHOV3nwHTYqY9gFLQhRZQZLGAUAZRessHTJPZIROlCE6AIg1ulMEqqW8Gps3aP0GBEtDkDCjRcpZQApraHwKmkfd2OcoQeLsCChjnTZSAqloNYFr5brkE2ic6T4MCjcVSfriObmC6NX8sttA+OjID0jV1Edpnto8B089YqCKUIH8ZJFu8GUDbRPnBFkgJlls4jPaFz6+AVCsPRtA2KjkxACnCTh6VMDkUrq8GSGR8lDD6o8ODIUgZ5s1zEdplVew3QJ43fkK7AtO5kEqs+VwfoW3FbwyQxGiwP6cQ5ZdmIcVY93QA7SL/jRBIsdLmR7uoeOIZpBybPe4mtKvz8TOQYOCWC+0KfGo0IA0w38cikjC5nwXbWo6XC7SH3JdOQnpgRvcZU6BNZlfjNbDFyD1jol0X23yQNtja1U4LbbKKHzvBhsV62w0nhWs8kE7YyvNDAbSJgqONK7BLhmfIfjc49d4LaYbN3HRbaBNV1EYN2I21E332c13QbUDaYb6Hk8No13Bf3owBO+U998n2IE+863VCWmIvLpUS2iQCr/N6QrAT3jdnygntEZG5XAPSFPM1XAgI+9Ga+uf0uAHJMZq+VpcR2hSo+noK0hhrWq0gtI3KLlxtTCJbhrfxdlWQ7G9sr30B6Y2FGtsjhLZZWHrhZcPYgAFxNc8u3D3rQoE2UWR0XzOkPeb9OhkQaJ+FI1PTt891zz67tiW9izOtj+deu5HQLmEeafNCRmAzVytRoAxkBTsPFz5dPfGxobW/2+Px5PYvPDqw+rSryD1MAu0b7qtrgkzBQrn/dBLKQmShGXa7SkoqKkpcZcGARYRy+F9GDcggzLGvxk2Y1gR1zj8JQYZhi4M2qksaUOlQowMyEPM+rC6ntI1VzYIPMhRz7p8uI0w/1Dm3MAAZjHkbRt2EacY/v+SDDMcW78x1YvoQZt/t3GbYA5jv8sF3AYHpwIp0nHhxDfYIForWHYkQppjAkoJH4/8Hewgz1t7M+YcJU4fCk6tPfLDnMEdu3oVyEpgKZFbOnZs1YE9ixvjgf0UmoWYUKJnu7XHAHsZWXnysKTZJa6qqH3Qvwp7HfMde1UyZlkDlBJn+M7eenIIswRzRj/mvy9BChYgifXMTnmeQVVio6fRql98koSZUZsWn2sGZZshCzFjO/frfh84AEUpkkVly4ebHXK8B2YuF1von/jtSERSEEljD5ZWfvnzMdV4DxkJOz/7V9qqSIFo22qmAe+rTf4/vjC0bwNgvhqOl+2Fe/tkiV3iYSGDSiNB0F39or51ofbEcAsZiCC3nPGnorZ3rqqp0RUxB31hC4CZCCCRBJAJBd0XfhdGb59v2RccdBjCWmLGy2BLtP32j9/7BozXTnw5V9VX6/RUVJRV+f3Fl3+vJI12jQ5/f3qp/0+g56dxFohgzmgeWx//NeRHtOebxeHqi0Zmc2TXnoi/Ecfp/9uBAAAAAAADI/7URVFVVVVVVVVVVVVVVVVVVVVVVVVVVVVVVVVVVVditB+zYoigIw3Xmv9IXdXds27bxbA4mSds+Wer6xvBvvDmRvlQQBKGDiFdRzMT6B9DLBoeqDQcj4ejYuENnJJogbbK3w5qarmJMZmbjqbn5hWix47gUVn+Ph8V6zBgvDS8rLYXVcVhWgXmWrKyuOUgJNz4+4BRWS2FNza2X2thcibeYz2t7ZxFS4Hb35vYVVmth7RyMl1hcPDwaHTk+2Z4xps2cniFPDjen7VRhtRZWgBoGzi/6L41p61eQnLNtXiusDsPKGw/7t/jKbpYhWbd3vL5XWC2FlQSoZ3Hnzkhafx8kYzTWxmo5rAvU5R4ejWTy5CBp794rLB9hAeG2kfzwEZL2sKWw/ISF1CVJ+zQAefV5RmG1HNYXNHIwbyS/RpBXQaKwPIWFqxWS9g3yatgUlq+w3Hcj7eYHAHlqMaxphcUkhcZ+zpKMRwHIqr+NpbB+/c6/+DKvsPyFNXBipP0BxP1VWP7Cwj8j7d5BDiYVlsewdkna/wPI+JzCajmsF+rOuCttpVvjk++/UGBnjIqAACoKCEE1vFowAdQoKCIUVDkqVUWlva3nvR/gdg/2VnESwAYqz1rn/FEZ8mTPjz17hskQ6ArWkQiQmQuRLhJC7qim5ao9ECgotqo7VU+GjDfNmTWuVDyGDQXpp4Q+3/Cfaj2VSnq6NqtcvG9WKNlSGJp6SOjLlwej5LahrwFLaIfNWrCKPSw3A8Qq5LVCMw5H9bezarE85ys4ndu1zUvNjC0haV+/alzoiYQvPnd6UkxLxFR1h0Pz/O6i6MJVI5ud+3I9nnvTUKrejJ/cTsye3q0eVHqKklCJujYOGzHdF07EFw+n7Emh6zymz90Ngs0+9aUZ/hmagr58P1bv0Zc2dvxp8WeUwolmY37FYXw7VU2bmbGZFslRh8Nh3CeS+/NK5NPE7Oxpea8YDQl/G6z9bVVtJH/d3XpcptAWhdKtw3AwsUeaeaAUmPzUHwifbpkG+1JVnVOkLWX/cFvExpRSMTw/I7wi/eGwpoqU+iml4F1eT3cNkeR4zBYCQP3AlKGQvzjJCabbsTBjdcgMLCF9mc0DhWfRQG2qTnrwFSuJmV++2O1cug18bXidXueYaZ5dzHvVuJtPcLV4qAcxnvgfDRTmjg+UYYG1JQLQNQ95LXsQoBBtu7NnRXilaYOI2TdVaItmfgc7Pp0khtqgAIvti+eunBR+i7YWfsdAOJgIvvoj6Jf/EFMtXRegLYp6dpTYq77Nmjdfi+OXx+XNIEDGdzV/9VLfTMCyTetipk0tPEuMuaQuvsqFl7Yoay7GJyuGUyvzxaB/YgAQThGObKsXMoXXch46hOGAhV1LT4VOsP4HwKkxXMbb27bY/9j/5V3CkzvCwPBDsHWxNvHlPKt722EX575KZldv2hAdV619lUBABAqo4MavZp7VFmU4iYEA5jRUYDNllhaKNUBRsdT8flWOlD8ttwIUzSy/eYz5JB8MtO8NRV/r0hAsYeY7NgN5uxbLXvi8ImtPvXuhXnwFtmMT89d395sXTtYw8EWzGqzoRACAOXS2wq1SENoGW1O2YYAl7CBYZ4QDlurASKx6/UBlffNkZXJl7z5bgsx2jnB0k2W2g8t7n9M2jyQplbpjcnOb/aNz3WMCll4nRFlBKr1zkYWia2z6UGchyY8TptCjjIjoh9NjD67xHxOtNrDnbuMJ3p7KouidmNSSisAmH0vFQ3RDC+MdmF/7wViXRsW7tJWgQNW5vd1ctRKyuR1bh+E28RFjskLPvrY/jeUqWE4Lkm1mZS2PfaA/Ce8BqxLL8MHSYuxSpdnLXS2dWtI+r843Zcbw5tIQwEpecL9RRLDyNzhp9AJVN1116bnsnJlau+cFbteHwZEbrleFqKI9snwn34WMwQovEWUq76fO+5vn4lKoj6MtGka0ifQDMYtPp4TnN81NJQD1KWTEFZIINH+7/wpoSbtSKVDvwuseLNYSPhRiB8GE74USiXEDsEJ7eaDeHXtIeFFG33kZWRuCka9IgH3Oypr0CjfXsoip5MlKsJay2CGla4fnZcnFKgq6GRo8WHYVAAoaD6ygnZCDMPibLuXVNJlX/u1jV9PEwptKQXBMiOjjTDEEq6QJl3mArP1ltFM7IkYAo7KlAnWeIVa/JGiz7E0v+T0obSBXGf3oTZ5UijoFcBY7pptuVH0sCACLafcrhfhgVcoyiItflc6BLsy2IX0jfF976AtinyXSoepZHoD6DqwDq/KFQkdMUaGjCzGjbgkDB0uIIMENDwcsrKVsDQqNHOmqJUy7mYsbnmFbBMMZXBWMwFIPil4I7Lg7IrMDAPknQjQf0HBnSVw9RXRaGn+i60XKszOEI0eMAtW57ez/AsCs1MtyQ/JeBPWEMyl5YqPtecjYF3xJ8ZhbcALQxaplYE0HsF/TnFJ472JPGvxQuOTjT/MQrMADWRdpI0W6ysMKtaZmNgC0bozACu75QD57k+vSTT/QU0n5RKHgIp1KsUx/z6N1KZ5Brgw+D5pOgd56jMD6rvQAVuMuQFtb3O5ZlQEg/0C4vigAbFYJT8IC5stjoX+wuMV7WvcDjXNDINgUK4p3l3nCOgFMwUtcsMTiko82o6S7xoMA/vCNYcl6yD7GNgOwRCcEzjycdw0AbOfsXghMc/h5UpFWDstSmZXCM8RAxTz2/J+AlVGDfv2zwO/nhh+AHgocX/foa9lttpm3pVk0K1wBANmw3eDB2i8A+5zwwTo6ps4n0l3pGuadcZMXNClAYJUPFuowxJ1XUBAX7in9XuF1xCk2XSdv9M0LAEHjoCpXFOiE5w/Aggz12Q25xZSluw18FfaJkXKYSiOCJRkLv0+HrO2vgZVm40k8Rfhgnej0USLddQwAdMdDjLWF0Y67+WAZfox/UKCLPsjz4XbJvJVd4vlCWdVvwkYBwHvzJ2D5t3fNp9nyA+H6gkeBGGoKiUxZApbbx/ZC/S2wUrNg9OFmYOlijcMcv04rOEzvfg0DdGkAVsFukE9VgIBIv/NL4XoNALaj3Gmu+pUYS9qhQI//BCx1y3wfKnYq11c4ahbHBEBgy5LifcaJzf4SWMLBHHIlXisGYAGIK6QHXQIAvTJPbVvsG0kbDyx+RYKqxjMmD3NLnyhnciKwSmYtREzkCqKX94NFJxTzL1/xFVxf9wIxljCP0wrJihrrRsWu/ztg2S5bFOG5TRI+WJzBi6vKXAYg2KUWq8cxNz7wwYoYpZYvtJ2U+JrCthuds2kdja+Ym9FxLHw/WHBoxofmBIALG88Xi5I5kr5Un2DZjMASjwYK1oMBDcXFAMtJp3ViCBb9QXrQjRfrtCoxV4T/gWVg3Zk1gljFLDXccyovZNFM0i0FWH0/WOZ7a+oYd5+b5+siaV5TtACCX63IWFoBe2+QYMk8sKT0wlwQscoEy0liDFZphvSgqZ72Nj/hBZvJ/sBaZws/EjHwmAegnX99xDc893T94p3eDwosVk0XcoTjq0xMFVoGgGkrwKrWcEo00FnhUcX2UtWU9jS1mRCByTfpIcZg8fuHN17xPv+8oUC96Q+sSQCg84ZjDi4pNV579KxlAOheD7tmG8qAwPIs+gFKGunwRbtv58VMSstWzApZ/SmvCIMDCxLNV6q9OCmyVI4KxAysMulBVQ4xHCkTeNXJ/sBCAOg1MVC0BAAdm6rd3DTdqW9BrIIGBJZy7n/7pCb6QtrMdU0xBVtQY5FiENPmkTQgsIxFIXx/gJf9Y7BmnJySwuhpoDtzsLhVVMTknDSA5dCbfu/egQcqgK8+ILD+OwsA3g6wDrBZPEnM9YNte7Ri5T20SQEy3uPqMMHKUPBmN6KIlQVguQIAmY7uNRzWJqS+wcrc9QPWg8w+qZ+/munbSh6glR4mWBgliD+Y+vr8bYfiXMWKjEWiTQrgF2NbSWEwYMnBl8qrpXCtcTfJnkawBqxV4JTQHGGX+2OhAYM1Du2bNhejLzdMsJgvsZuvgB/301oCFrmpUQCgcmxKCwnWgyWe2F9q/0BL445KlEVgHVPOpJ8jXFoBvTpgsKZZNHtR+D/DBOsSfflpD8qGrAGLaOfPO5NLixuYSIbxwKqVYF1ztzYbrBuGUwMGi6196BOz3bWuDBOsjV59TWwJVu15t136gAlLnxN7UrAUrKMBgyXM097W4qIFwF0wAwZrg7kRpO4SyNDB2uvNlyUZCyUsbTQD9JmtfPNsPzRKYB1S7sIRH4OS1jdYtP+MxXfD0+DB6t+XVWChhOrRZuF/KbSlNsbrwsiAdeXvLWPlCsMAa5ptLfh4YDFfx8MGC6VoK5thkQKKis2FyoiARe75XclfzixEhzArpHcfDyzmKzJ8sJikpa1b368fuWl8lkYDrAgfDX6PhNMDBgtb0CvhQ4DF9zV8sFBSqniVEDOId2lFGQmw9vg7qvhnUurVAQ+F+3kAmFA+HFj2PIAfff0dsFBSejXGhsT8pTQKYC0AAOV0B++MCH82NGCw2L/FKn8fLAdnTmzuy+qzGziqbhQomnONAlhsRf3C1ltm2xz0VzrJJgC0lj5cxkrGma+/mbFQwjedIuH1EQBLc/LWpwzOiHgkAwaLHaka3P1wYElf0NfXv5uxUPs+CiCvjgBYyTjtvjMZtw1hiMYHABbnDTc+HFhk732+TigAjFuVsVDjMgA9HwGwpNOelmg0LDKcjoGDZc+z3X8fDqxv7/P1A8FasBIsfFoTWiMAFpkG3DdT6aV2j9kGDla1yd9TPXywLPG1zhKdlWCx7+DkUQBrpgSch144z/LhCuHAwWKby2HjA4Blia9JwH6wEiwWchgFsDwNxgzG2vxhTMh/HQJYN+zpq+qHAwt90b59PcjdFnMq/YJ1SQECowAWWRABwLdkntIBwL9cGQJYyiYGbuHDgaWcmvgyn3PrbmKsnK9PsI4pgHckwErVAAB+mL4kjl5WyRDAIrsqgD+e/mhgkc/ed/hKNsF8+cR2Cv2BhY8CZeIjARaZEvHeNJObeQQcB+pDActzSwGgbAaI8XOKcD4wsJQdc18m293KhtcLlcU+warGAejOaIBVj2UA6GmIGMnFOVloYGARRysDkJ806XyPVjfYPO2f8wwKLKIl3uGriEWWYZ0RugtkMv2BhU8Oy+OjARY7ywwCxwrh60CnCJ7nfWBF+gVLYMcklsYMezA172y4OR1fAgC9bhlY/NP+CkVjX1fO8zrv0As447dJ3gegVKMcsASji+ABiaD/Z0TAUsrtc9k9fK6aFPjnflrzXCH/BEEoTf6Xb/YpCwD3Cv/R2+DD4MAKXQGSNS7142uP3Qu3yopOiBBcPeOAVX8sz/A9jmEOOCYjAhapNygAyOUqp75y6RTaJxUPJ2OhnVl82/yjm2Pn4Fb1A4h3Cv+wAPrp5R9SR3ULwWr7yvB93dyqlOcrjbjTuINwT4AO7knrb8GSykATY5LR4KEvjQxYJHpB8WpzDx1JS8jdeVkwp4UhgkX+cw5op7nqFl65qXy7KlAAf/Cxwmm1go3Usd8v389CRLIQLJI29lXCSPB8TQaRrNrTayOCdpinmfyUQibhDVj7TryRcq7TprBbwzJvi4wOWETLIlk0PzvmVn6fz3vwmAAAoM4VhQwTLFLfCQCAX9TvijmbR/opTzLnimRV+upnenhHSIe32m8p5U62KTjtVoJF6p/QF/z05fp/X1FXJJY39uVhEz+/s/z7pwCE0M11C8BfWpAIGRPfgFU9ZFdJHEdf0ii4j5Fe+YcySmCRpS8iY0j2be5tuXZ3n8am52NeyAAA6FiwGoMVsR4sUpkqtJ8RDWxfrG3ebk4sNrdlyrpPPXXw7QhTrAvza1O7B/aj+TBLYEeWgkUquNcO9cqX38yXbZ59SKB0vuG60TTt5uhsDl1A7Cu+/klGsDqvUgJUq7xfVbCQF5Tq/nFNBKDeKQ8ZKbCIbSoMTJRCQJZlESigqHrVkZOtX27gSDjY8VJgylA/xb5jcp7uGka2cgsoCrL6r8gg3J60dChkvj798kWp30+fg2Tmq3Ki0vaLAqqzVFJFSpGQcpummzxnVijZ1wKsjVr7fliO3F19r6msP5ouifxVsILg7xMsIkTvwkChQ/nZXYWQYYOFUvbvEwEE6pcoeGPmP9hX35Ffvl6cswv9H2P03QQslGKf/+mLdvhymPhSijHRDy9Fg+efnxtoTu46lm0yJtOOn6+DQiRF/lznuq7Xnsi7dBDXL5YnSZ+ScpeNlgzPnUlB9F482kPERAutbWf+zBAsWRQhYnxasywH1kJmftJH14sJZz4Y/Fct6HPz3X+aNTQZy0MGkxwEW42FJOmU1kwkwo+C2UXvdV2PRUkXX3N9+apO//RFf3Eo+w4fQr+/1Ekk5uq8IaR4m5B/NQI/BPU7h0QsULL+U+8cUD3sN51J/wppR5HvF4nt7VZt7Wq964EBlZx2YI8aorMyPX25b3iph6OxI3sXk0Jo6eBpbMxl19whcy+/f6V4ralnT0/GorwGSiqdTpvelWD7GfaqRKz3lQ2rctDrW7zfWpJexjCdThksjeXGy414Sw2qJX3x/ij1f+3BAQEAAAQAIP6fNgNUGQAAAAAAAAAAAAAAAAAAAAAAAAAAAAAAAAAAAAAAAAAAAAAAAAAAADBLAYprZ1p/NJ0UAAAAAElFTkSuQmCC;" vertex="1" parent="1">
          <mxGeometry x="883.75" y="-463.5" width="90" height="90" as="geometry" />
        </mxCell>
        <mxCell id="qDxGLgxu04z0kNvVjK_c-9" value="&lt;h3&gt;&lt;font style=&quot;font-size: 9px;&quot;&gt;(Broker Service)&lt;/font&gt;&lt;/h3&gt;&lt;h4&gt;&lt;div style=&quot;text-align: left;&quot;&gt;&lt;span style=&quot;font-weight: normal;&quot;&gt;&lt;font style=&quot;font-size: 9px;&quot;&gt;Ports:&lt;/font&gt;&lt;/span&gt;&lt;/div&gt;&lt;span style=&quot;font-weight: normal;&quot;&gt;&lt;font style=&quot;font-size: 9px;&quot;&gt;&lt;div style=&quot;text-align: left;&quot;&gt;- 9092 (data)&lt;/div&gt;&lt;div style=&quot;text-align: left;&quot;&gt;- 8080 (JMX HTTP)&lt;/div&gt;&lt;div style=&quot;text-align: left;&quot;&gt;- 9999 (JMX/RMI)&lt;/div&gt;&lt;/font&gt;&lt;/span&gt;&lt;/h4&gt;" style="text;html=1;align=center;verticalAlign=middle;whiteSpace=wrap;rounded=0;" vertex="1" parent="1">
          <mxGeometry x="603.76" y="-508.5" width="106.25" height="55" as="geometry" />
        </mxCell>
        <mxCell id="qDxGLgxu04z0kNvVjK_c-11" value="" style="edgeStyle=orthogonalEdgeStyle;rounded=0;orthogonalLoop=1;jettySize=auto;html=1;" edge="1" parent="1" target="qDxGLgxu04z0kNvVjK_c-4">
          <mxGeometry relative="1" as="geometry">
            <mxPoint x="843.75" y="-551" as="targetPoint" />
            <mxPoint x="378.75" y="-551" as="sourcePoint" />
          </mxGeometry>
        </mxCell>
        <mxCell id="qDxGLgxu04z0kNvVjK_c-29" value="&lt;h4 style=&quot;white-space: normal;&quot;&gt;&lt;font style=&quot;font-size: 8px; font-weight: normal;&quot;&gt;&lt;i&gt;Kafka (Messages on port 9092)&lt;/i&gt;&lt;/font&gt;&lt;/h4&gt;" style="edgeLabel;html=1;align=center;verticalAlign=middle;resizable=0;points=[];" vertex="1" connectable="0" parent="qDxGLgxu04z0kNvVjK_c-11">
          <mxGeometry x="-0.0048" y="1" relative="1" as="geometry">
            <mxPoint as="offset" />
          </mxGeometry>
        </mxCell>
        <mxCell id="qDxGLgxu04z0kNvVjK_c-15" style="edgeStyle=orthogonalEdgeStyle;rounded=0;orthogonalLoop=1;jettySize=auto;html=1;" edge="1" parent="1" source="qDxGLgxu04z0kNvVjK_c-4" target="qDxGLgxu04z0kNvVjK_c-14">
          <mxGeometry relative="1" as="geometry" />
        </mxCell>
        <mxCell id="qDxGLgxu04z0kNvVjK_c-31" value="&lt;span style=&quot;white-space: normal;&quot;&gt;&lt;font style=&quot;font-size: 8px;&quot;&gt;Zookeeper Coordination&lt;/font&gt;&lt;/span&gt;" style="edgeLabel;html=1;align=center;verticalAlign=middle;resizable=0;points=[];" vertex="1" connectable="0" parent="qDxGLgxu04z0kNvVjK_c-15">
          <mxGeometry x="-0.3554" relative="1" as="geometry">
            <mxPoint as="offset" />
          </mxGeometry>
        </mxCell>
        <mxCell id="qDxGLgxu04z0kNvVjK_c-24" style="edgeStyle=orthogonalEdgeStyle;rounded=0;orthogonalLoop=1;jettySize=auto;html=1;entryX=0;entryY=0.5;entryDx=0;entryDy=0;" edge="1" parent="1" source="qDxGLgxu04z0kNvVjK_c-4" target="qDxGLgxu04z0kNvVjK_c-6">
          <mxGeometry relative="1" as="geometry" />
        </mxCell>
        <mxCell id="qDxGLgxu04z0kNvVjK_c-28" value="&lt;span style=&quot;white-space: normal;&quot;&gt;&lt;font style=&quot;font-size: 8px;&quot;&gt;&lt;i&gt;(Metrics via JMX Exporter) Port 8080 &amp;amp;&lt;/i&gt;&lt;/font&gt;&lt;/span&gt;&lt;div style=&quot;white-space: normal;&quot;&gt;&lt;font style=&quot;font-size: 8px;&quot;&gt;&lt;i&gt;Port 9999&lt;/i&gt;&lt;/font&gt;&lt;/div&gt;" style="edgeLabel;html=1;align=center;verticalAlign=middle;resizable=0;points=[];" vertex="1" connectable="0" parent="qDxGLgxu04z0kNvVjK_c-24">
          <mxGeometry x="-0.0071" y="3" relative="1" as="geometry">
            <mxPoint as="offset" />
          </mxGeometry>
        </mxCell>
        <mxCell id="qDxGLgxu04z0kNvVjK_c-32" style="edgeStyle=orthogonalEdgeStyle;rounded=0;orthogonalLoop=1;jettySize=auto;html=1;entryX=0;entryY=0.5;entryDx=0;entryDy=0;" edge="1" parent="1" source="qDxGLgxu04z0kNvVjK_c-4" target="qDxGLgxu04z0kNvVjK_c-5">
          <mxGeometry relative="1" as="geometry" />
        </mxCell>
        <mxCell id="qDxGLgxu04z0kNvVjK_c-33" value="&lt;i&gt;&lt;font style=&quot;font-size: 8px;&quot;&gt;Connects to Kafka (via port 9092) and subscribes to the &lt;b&gt;traffic_data&lt;/b&gt; topic&lt;/font&gt;&lt;/i&gt;" style="edgeLabel;html=1;align=center;verticalAlign=middle;resizable=0;points=[];" vertex="1" connectable="0" parent="qDxGLgxu04z0kNvVjK_c-32">
          <mxGeometry x="0.4251" y="2" relative="1" as="geometry">
            <mxPoint x="-41" y="17" as="offset" />
          </mxGeometry>
        </mxCell>
        <mxCell id="qDxGLgxu04z0kNvVjK_c-4" value="" style="shape=image;verticalLabelPosition=bottom;labelBackgroundColor=default;verticalAlign=top;imageAspect=0;image=data:image/png,iVBORw0KGgoAAAANSUhEUgAAAdoAAAIEBAMAAABMFvJeAAAAG1BMVEVHcEwAAAAAAAAAAAAAAAAAAAAAAAAAAAAAAABp4cHsAAAACHRSTlMA4huBQ6hlyvu+waIAAA9cSURBVHja7J3Lc+PGEYfxJOdIleMyjpR2neKRNu0sjly7toKjbG+lcGRclQqOOqRSPEIvCn92VtELILrngRly2Y3pI7Ur6ptHd8/Mb3qCwJs3b968efPmzZs3b968efPmzZs3b968efPmzZs3b968efPmzZs3b968efPmbbx2MR8LafQha77Y9U9jgP1n82qX3FmTrGnZLW/YuOnaPeuebZoR4TZ9u2MLmwO0zRVT2LABbTzjmO9YFghts2QIO8FgWfpltGtZdi4Oy3DmSrq2aditiDIZbc08Qe7a9ZgGctNsRjSQuQ3lRA7LLOTuD+SzjHOyXHTQPn/5JCr5roQ6ZOunz865TtwEzBMXTCfutMV1A/c4UyfV+jjtD29mTqpGojAjN7VFRqxg6aaw/fIInM7ELUK7sGR4bDBBnZFguAxK0UAzZRiCQjSJSBjSCnwHijVtjdPOR0C75Uw72/9Rzi911KJdjop2M4J5W47KS2WcaW9GEIFCPPdnmF3g2XDKkDZGxyvHNVAr998LQRXHTUd0i4LliTW2kzpluS9VInuLFUtaAR8KJDxPcNu755dvHxc8zwom4BnIVEuLEF1cEHZTr/lUoiEiSn54aovPVN3Ul6k730s5UCdVdc98KU7cL/bNarV3OL+WJyW00o9Uobto5PkmNVwF7I2qZ2nhFnLaK6322dFb4moOZFCVP2MxlG90W2dNhHYho13qNg6Vc0+ZGu5Bv20uKSYYCpUjfVV+auCjJIpX8p1bm7g0KjM31pZiS8XMVNxyoTs2eajyNS+MxMYpNZmxfB2YDWRCR5+h1jRko8pfaHSUSpVP6FThXO1glar8OR3cuLdlI3fd/1flVzRXQo/2r5cRudTw3GtgSNASgMq9DTdVvryLprD7zajutMtpBex9yary5bSYKr8kqsqX026RUENVlS+nRRd3RE+2dWlrbH18y4Y24abKl9Km3NRGUlp2qnwprZYqf86PtsbXvWOgpalTt6dd8qOdeVq2tCOft6R9cq2gZaHKf/e6pPt2bZRLEVTlT7aKAztOefJHZfGhmM8aKFef8EVsVPmljioI3aIgtneRa53fZjxU+Qu9I0psz5GWKl9TZZIgyqKE1gmu5IxyBzqpbidWpM4KpLLOS8yRzYFZSyAApXpaihwRg01olfbcaqkL+gPgYd1vq5N3UkJLew4KV++1VPlUXNRbfynl+ESclNBBmGjCnvy0zdQMdaQJe/LnmTpD9LpsmAzkonFod+R9lIld0vdR+nbyiVRpjGSiyj8xi4xhlymnYPuPL8n++1IWYkqqXdvzyC/ruyTDr0IlZPWre3/wXxQTeifb6Dh1h7wvOG+HyyjDL/wQfcZBSK51TfChGmvdCTvxabtWeLC3n+up8k962t4oJnV7f+2c4PWJyOQOW9cJfU/v2lOqUI3LGmNCToItFA9sCGnXf3r22vcbErAdJwX51IkinEbvVqtfAipWqtK+jNOrBcqXYgRXWqUbo15ALFGzMHqRIlWP0y2fKlOhegHDqKaWUCdDgict8k+mfJ6qE+p9h5jPq4sLtcONWNLuNEIycdpC49os1YvEfcs9radlQVuNinahscBhGYFuRxVvsVxqwofWME9es6cVfFYFGuvbBZ8Vn8beRcmH1mxf6oE4baA8WI8plpXVoIV9EKv9ZOVZQc6JtlBUnoxUsoro4oJOXBKKoSykR7TJb08/+C8R4KlC7SQ9zG5Ng/+QC0FAPE0lx+8TgtV15VK2rmTqeo6Ept4PCexe9Ds3xMsjxyRrJwtJWfoILxgc0awmnEouoOa43K0kWpQUlypKqvQLqsWT95k+B7Lue2qOiGzZ81433f/5+PGvspLBBdmy55DW+FqqPZ8nhGvab41vShSEa9o7vTNyT3EoD7eTd8ulS9qTj7mh086llmCAXRZzudqm46fW3ZUw6Zr2WjcvF0xu8qk7d72/h9WqaX9Grqa93qVawHn//vj5R2I17YWen82Q6Kq6nUAq5tbYGn7z8gNiNe0netkg+romsbMxoZcMpkgiQa2mfa5X0oFLTXvJfVt4fYiNjZoCbZTp3DJlU9MewpVUwK6xmUClpn0JJg+I715jbo5MTftPQPWojjGraf/vty76UboW5lXTvlaEZV/T3te0Z0+75Ec787S+pr33yeRoxxBvQzz3J51L+befmK2BlLQRur6lVtNehzZAtdlEC0XIabc8atpr0lYsatrr0iI3iBJVBRiatCGHmva6exddTcocmLW0AtALzu1c5ZTfYk1Mq87hG6tSPZ/3dyW/p6ZkhToJThP2jsceVh+o1bQHcl1UPa8U19DsWczjKGBviPknhXp+QVwv9Wya6vmUxUDWVs9zGMiJtgZXKsBZ0qDVV88nlPXJKoR7/YYhk1qYqOcT6j5KVsf/Vr9piHStMFLPT2jP2sBQcixIO2TjjGFLOWlUZINLLRdOphyGuXoeEN7PicCq3uyClkLnBAv4g07nWks9353r12Rg9/Srm8eP/q5WzydbmqWVof0KHfX8ry817deEYBNQPS900obo/epvFwEpEyzU80NoETe05kNbMVHP61nGRD1v6pJ5nEDrrm1rLA7fsqGNuSlHdJd72j+ha+zU85rhlomaT5O2xmPTGGi3nGln+FJwPSrape9bZvO29D6ZC+3NCOLtuHKp6ajy5HGtgSJ03zhn8xSfzhYFx72LoBnVvpTGnuOMDy2ynxxTVc/r09Zg13I6K0jAY1jB6RUKxE29gsUUFRValvfPnT8Rq342cOI+8q5+ICqpMM0diVYtHDxx6Qr6dI2Jel7TeKjn3QzlmhutmYaVVTpFVIdrYMVofJQ85F4HDK3CaGccaZPxzFpJhrHhSQuXJr1hCgtqsu8DttbPH0k81jXUztlnUZLefZgHvK2tnt8F/O3ds2v+dh2MwqKL1U8XgTdv3rx58+bNmzdv3rx58+bNmzdv3rx58+bNmzdv3rx58+bNmzdvAy16v1r9fDUO1k/Z6QiW/1g92+Ywvz/tyrMnL1+3Wn+NQXbgCy3ne2J08VUL9kSHlcaf70vvQ8a0aTMm2mZMtGJUtM2YaKejoi1GRduMiTYeFa0YFW0BXbVmS9t+MOb2z4s5b1rw5jFX2ggsIcaVNgYruHClTcEbm1xpQ3CfgCutAF+k4E+7HBXt3NOypQ08LSHax6OOX+bHo43+6uZlrCG0z0cdzfWPR6GNPjSuXj0zp23vEcu+3xVt+9G73WFo20hXnf+QQxVayi6ZwEuJIbQCq4sYlVC9haElixHaAqtLUoIFafJunSWBFyVCaLECawlcyGlohRiYNsG6toRf/bSlFUhpkAgpCuOWFikWDFaTunVAWyLltDNkRrilRQZWiNXNsqTFnvCrsOp6TmmRrk3Quo2WtDnctVP0+W+ntEjXlmjhRjvaBKmdhxVhu3JKi3TtFC/KaUeLBAC0WOTOKW0Gdy1ezHBmRwt3raRW5NohbQp3raQu566yoRVw11aSmqcOaUvTrm0aq75FyiLKyoC6o03gcKCopzucVhgPpeHV9vq0BRwOqkPRNuZDyR1thET65kC0U9MA4JRWwF0rrGmRNRDiJYrj0CKRfj+z+G61+jmT1prVW98iAaA3lL5Z9SrmO6BFwsHeYuT2aZnZLn43kLaAu3ZvIH9++vSda1qka0OkNHJhSZsgXbtA6kOWTmlDZBVfNMiKt7Cjxd4SyrBimKVLWsRndKbRnWQzw5QWYUqwxt2fUla0mM9I8ML8iQ0tEgA6E2dv523qjhZ7zimU1DMXFrRY7daFpKhr6Yo20Xiqq18seDit0JgetWyH14q2wL5E9u2dzjWj3WIjRlqvt3REi05O6XMayVDaFBsxSXePT9K6FrTo03KJ/NdvB9KWWNdO5c93uKFFezCWv7kghtEmqDMQ8pdZche0Av0lim+fDKNFvUTLf9zLT5iG017hrkHIplFnaBnQbnBnUMqv7SQOaP9o0LOkQnFpqBhCm+OTM1M8VuKAVuL1c8W3iyG0Ej+velCpcknbOyXNFNXqUzva2pRWuKS9NP32xI4W/5t2h6eV5IbYGxNWtL2ujVV3C2OHtJc4DKYEyGxoA2PayCHtgF+eW9D2nxadKrUgDmlr/N/UB6Dty03UShSHtA/mtAsb2htz2syhT97oKVFc0TY47foItPWRaWco7fxgtBna2Iemvf0KtFeYHkyDthhA+7HBoI4xkmclFlYP45M36NQ5hk+eoatYNW1pt759+Aq0AdbY6uxi0Gp+ikWBVDVzIhe0OdbYysxx2L4U1rrHyJNnbX+5gWEeHK6Blu09cuTXIbSh4x3WGlnfqtraiDZWnvXcH2zF1909R/aJ1u72Lpbt1t0ZracLJ7QpsuyrsEhssy+1xPcyG0V64ejUC9mIWygmUjaQNkGmzla+DxY5okUaW8gnUjT4jK+E/V8lb93QEe0EbuxQPpFCF+e3G7B1H6RZue3ZfAb24qSRxvvCxdl8DR8GzA92DtT9njX4+3fybzelzcFRk0pPvWJntIlShicdyMa0oUqs+yAdyLYKohLkqmSNXdropeAoINu1Cg6jDrsEJ1IjOYOyU4fBDXgnOeFzqfy7AydSr3NzV8q/GibaSLrWmraCGruzezVHlmeDaAPwjCLFjy4WTmlDsLEzbBspstQ5wlEgQolix2pssFUXmBiutKWNla0ru1rhUnu+RrYKX4NuVNpqWDtgiCtqfsdg7Wnhxt6Derpn/Mlen4xEgb1bDE/3fKMfnKuxkVQi3/+es7OsaVzQJuAUafS+z54WbGyhp3wfQAsnNEdS2nfWALLGdkYLitLSY9G2tW2mjT2EFo4CR6O1aOxBtBUUBcSxaCMwk9hKvrSyog01okD3mMwlbdtvzHUae2dHC0cBydSpndIKw8ae5Xa0BRQFJvj3zZ3SwsJFfOYGlrQpGAXQwXTnuEpABa6mS2xg2dIieyMY7aVj2ino9bSrBBjTCnCbD7m5uHNdAQJpbN0KEMa0E3g9WTWI5tQx7aJRjfDOn2dL214IzQN51KsD57QpsnjP4XzCmhaOAkGUwZIUx7QBtjOTg1pma1rsJlIP995OiXB99mzd47vFy8dnWY0dDDSvFZCql3/8XYv29Re0//v09dPu7tpvZ8gPSkhs9PpHG9Ka2+R/7dOxDYAwDEVBF5mBOgpiIASLZP+Gwk0WwEjoboGnL9nLM23xvmMZe0e9dubVXr2mt8/sfbE1jVHc6wEAAAAAAAAAAADwAw+hh8fD0S1SKwAAAABJRU5ErkJggg==;" vertex="1" parent="1">
          <mxGeometry x="619.38" y="-588.5" width="75" height="75" as="geometry" />
        </mxCell>
        <mxCell id="qDxGLgxu04z0kNvVjK_c-14" value="" style="shape=image;verticalLabelPosition=bottom;labelBackgroundColor=#FF4FB8;verticalAlign=top;aspect=fixed;imageAspect=0;image=data:image/png,iVBORw0KGgoAAAANSUhEUgAAA4QAAAMVCAMAAAAYqsrvAAAAZlBMVEXm5uZMeTRqlVRbiEQEBANWgz74x5j///81HQxRfjllkE5gjEmeVRZznVxGci9LNSkgLECARRHquYpdMg3aqXzImW61hGClZkdlUUYCPoFQXniCtGctRSGBjZ/+3KG6vsL/8bTS0RgHl8mJAAAgAElEQVR42uyd624qORaFS60tKI00XRaCxLZwfN7/Kcf3W9kFSafnh2sZkgCbkxxhf1r7VvZyrcdSD1hPZ00PtRnKDCml/WGf6mjGZ/WbVnwcsNZv0EryjcaDcWmA7PxDfJKAENZ/aDX4sUQak1H7ws3romTpLST1gk8SEML6S9ZF8QCfVblo1O1YdDQYtfQ0bkrjkwSEsP7c6gFcvbApnclT7uYfhSfmplyMGCTS2iQLmtj/1ficASGsh1bzTKst8KdjGiZwln4ejZJEByI+Z0AI69tWS6B0DqiK+P1weBDtr3qqpfoD+JwBIawjqyWQxwhQ/caIIK6JQ3zOgBDWodV8iwSOqZLhfnTbgeg59H4pPmdACOuoErgoT6DKmNknwhbl03DPzGv2p3KPZPXd3529pDFwyDWqiIAQ1qF1c4kYpQJHbijhf8j0UnjleHRlUftqo8IsAEJYe1a9ehHsQyXCV/xevn4Io6hB1C7lIzELgBDW1qq9H5poE5m7+qH7nm/xWWFuJVE2gujkkGMWACGspdWGgqXgxXvnoagFUTSiKEqEG/9URBBddLgtmAVACGuhgl7SmIy3+EBwe7ePmP1yd/Oq/W6+Cfu+UhRLLEUDaa2HMqshZuEIQnw6J6hJeAQjXhExzxxjm7B35o3BnlFlkVYuuLDoNh6q6HqnssQQswBhPLn1urh0TGAsDB4JlIX4JSwbUfQ0Cq+eWSbtXZbua8Yw6yFzmVLMAiA8dWGQRwRZhM5CxERGLg/7XBQI+jcI98XDC/lmhDHgmCPKShAjhhplQ0B4Yqu2FwdWkKVHQQlFVrtKCZMgygJJ0Uhkcm7b7KmSOTysE6WYI0B4LiuvGGyHaOlM1BXAlf5pI5FJMn3MuE/UhOjQhIYL5ggQntKqDxEcI+kR45VkMlZElS2GwS1lOYUq6mxpU7zHHAHCk1jlkEE5eNxCKWu5Y6yMGUXJIs+a2KsgWjHEHAHC01m/JYPHPDaBpBdNHh6k5E2ubFQp0ySGCnMECE9l1d9ncOdoHrEqWS84FJnDptvGpkk55ggQnsiqfsbgjzQyZ21cHUOE+oWo8zSlS4o5AoTzW9ffZfBtUp1Xuoksh6KqHEYKMUeAcHbrEhGkf5G3vkBKVgSHosHQBoYacwQIT2Ctw0GK9/+jIObgMPaZRgwZacwRIJzeGhmkRgupvv+7gyeXtL5O2FOIGQSEU1sLHTxGrUMk/ZYWylRJdK00pUtqKcQMVlas4Nms1CjgQPpoz2PxiH6LRSuFvLoG2FCIHWiwZKe2Eg1Qe+2NEuuD+c+qGrIMDgOFC2YQS3Ze60ZvMzTkkQ5d1u8qYardJwx3FAJCfBwTWTWNOaos/fwpde1DMaW3SLSJUpGaaCyGqmokBYRY0FNZidgw0UL7hOkrpRw+ezeVI0MXTd6wxg9aMYNYsnNaNbV8jKM/OhDJflqH+vy9CjZF9ExjC41Fsbq0CRBiQc9jpQ5HNR0HbmaDIb1R1aDX2lhc9yRFauxWotzzAhBiQU9jXfbViUEZoq9tFYfp6Oz+W2nsktKoky1d9mv3USTMIJbshFb1rRwmdZxK/2iJZ9QrmU6p7wBbwXwkuPFKp+oqJ9owg1iy81lrb5T6/iO9qgiSXMoz6h2NUv6zgkUUwmLnUpkdUkCIBT0PhIfpyn0Vv99GQ5Y+XY7wl9iBFr5R4pflBb+VQwoIsaCngvCoFZR2fuguOWq/yXAcvf/9EURdvjO4qMOSfsuiTFuauuyMd0lThhQQYkHPYl2ol+78TnY0PE2DMS6jHCaE3eFO0ioZfat4GHaDyltBpcYZQIgFPROE9F4+pu+NrrQf//U6+EjSR0wljZSdIuJAiNPm3kUvadx0BhBiQU+mhNSF4bBNdM3SJ+rho8MvLZJA6iUHjIuWxJoc6VAM457C3hllhRSeHUKs4Ims1PdGd2xUrwX6RHcE1lR6QS5NzkYPahddFGVVMHRlCswghHEm65XeCc0KAtcj/hxxDrQ/mUGVqhf64SUxUkivACz30RfMn3popBAzCAjngpDY+PLd1h99AaAlbqeDYsmv2NbsSgupF29Sd3vEMkGKGQSEM0Eoqd8Luk+WvATQuqLhD8jWO9V1yLjot5Ok1QkyrqWbACEgnApCTcO2tLYE8YrALoPqutQMeiwXXjWS0u5qxf0BF6FiKP2GM5hBLOhprM4fpXFP9vsEGscz/PrytdChukvdLLFi6H76LOvRpYtZCSUgBISTQahG/mghgu8QGHm7Lp0Xm8BxcTGi7/EmX9q3p/OOUjSyPDNY+KAQM4gFPY+12uaJdtlQA4oQ32FQi5cQihglWvBCz+mSCxc0VkJXMHRFCswgFvREECoaVgnofQTjloSqh6Zu/dYUJsqihLioAy0s+rlpBYSAcC7rtddERr4k6PxQ5m6C/YRB0fFQXfC4LGX9wjd9L2p43XA4uSmnRzGDWNAzQZjOgmll0GP3TkAY06L7N3fd0SXyGqr4fOXKVS4kHW9241EEhIBwNmtBYdWZVmhgEEL2Ii2qperj2SNTGmf06qNDl/xx6ZrxRVUyNpICQkA471kU1GZE0/29lEz+9VoreeSPRjDdOS8+ODR/0cWHxzss+i5SxISAcEJrfUivQ9CVx0UUwgMY21Mi0tCFSqr9vygUUfhMqdHCRdLYHw2NpMiOAsIprUkLfeU8INjA18VQjhiMdO0yNjKJY+2qErkLgRkd9bHZ7CjqhDiVaUZrcTpaeCBaJXw17Km6yoR16dfW3qpulFNFSwG5jFJIwxyp+V/hzFAs2Tmt16KPLDdtFkrIDlMzLZBKLcuulUZLIXXZV+MelGKbyxSjXaHsfoqYQSzZOa3XKy+P643e6PtK+EZTaTFECWHKAXl/9Dg34zcfBYRYsjNaoxgWSZpKCcXPUVRdBpluyxfKdXa3l1M1OyRqzCCW7LRWlyWlHBRWdcKXCB7Lpd7nTUOKRmQptEq4dHZZrISQMINYsjNbPYatEvYRLM6e6A/WbAEVcjblVfeOyEJtzTO7HdvRQd3h4GxAiCU7bz93rhnmYLASuXKT0XV9bhuPg3G2PdnKVloPWCw5VkkK3d9iobJBNKwVxrNCASGW7MxdbNdMIauzMhG/lW1ccin/igd4miduo95tYxt72ubvnU6yYbPNwpJDG5mknUuawkRs/oslewbrSvsaRdS/p8EvYMftPQy5BSU0NyOFtRbScItSFhzS8Cd0EsbhRt3YBh9L9hRWVZXrfWOnkT+Ln7L4eezC3d+4/NsoocfQeqRGudZBzMj2DulVuD+oYvHeVuSpc7ovy0dmA0Is2amtmsq8TKFjBjAevFBe3f6WFkD59FJoxHBl1GNw3XEYyFuUUv6/pYP+Eu03IibCHGHJnsSaY8JB4vPJrFP6l0x66OWQpdxMSM80Tqklcw2/c1RDTO0BtNt/jWjBHGHJngVCGhD4ebndH598i4q2GRT/ExxSzmSMCi2GNBBD83rYx5tVWhiG8l6w/drvOLVgjrBkzwOh6Gvg/f543O83M+6PDx5RjKkal5tJyRnWy864QNE4q8+CQ1a0tamUk40U5l3gSgYBIZbs5FY+8ELXy/1hMHTDs5hk0ZFoBJE9Y27Gdp91k6QGRIOhJTW6pUz4gFCLhCCrkjN1PIg5WsDk7FZ7XVN3fDoII4aJxfvH5xY00fql0SFd3VZRvfwoOQzN+7aEIfNHVYSIMHikRYqUWNtUgBnExzEzhMsAQhMR3j2GJYgfDsX7B08kbjEsHGVIbcRofVJmiA1eqWusYZnAqkxPpK6YI0B4JghVn8Ht6x7Ho9bDQOL94SWR2daZ1WM4cEhdnnQzGG6O3dwDHgPCQgnJhoOYI0AId5TocbnfMoalHH7Y+0cg8dNnbGJgOAgvgxhuRg25/QcJwf35NK5nG3MECAEh0dftfisw3LulCcTH5+pJW1fqaaGnNGHIAoaFFCYhJH8RL+YIEJ7M2mWQf7naxK3AsOHQQWiGS9iEEsZADF3AaCE0FNpMDud+i7eshL5nhjZ0bAPCM1qv/SKhg9Bj2HNLP/I3y6IVRM/hOnJJfZbUVitsgXFzPmnm0LG6YI4AISBMyPy53C63OBq3tPFKoyImx3RUqHBq+HT1fS4NhtYXpZiVIY45AoSnhbAHzuefi6Uwc/gKxOCZxpTpQAyZq9sHDjkVOqgwR4DwxBD2qLl8XS7vYxgEMXB473K4+qYaGxkaBJ88iaHTwQVzBAjPDKHseqNh1BxWIO6LhxHEoV/qtNAKYdBCd5i9aHUQcwQIzwZhp1r/kSBsOUwU2hxNIYghNAwBotHD1PJdi2HC0F0KJXmXQcwRIDwZhJ1C4dfXpRqNHlZ+6c4xTXmaj61frnAYPt2VUJz7LjXMESA8tVUfeKMlh5eshqVf+uhmagKHTXjotJCRjwvtNRj2RjjyBBCe3trNjfYxvGQM6/ph5vCj5rCTLl3XNfuktmQId/RFVxM+nemtnUr95dLHsIkPyzRNt61tl6bxSVLmk6TWJbWBoa0RYo4gfYCwGH/6Orh3TNsIsc6ZJhBrPXQdpmusFrr8zEq4gBAQAsIXIWHJYpsuLTmsUqaNHm4pN8NcC5vNzriK4cZZff0S5ghL9mTW7ahAsRPDW/ZNy0zNqJhfcRjrFm5ztpiecVq4VRRijrBkT2aV3XaZy5Ec3nKi5nIrW717IEYKy762EBf+j71z2XEdx8FwFgJLiwGU4UiyUEBkv/9TjkjdbSeVmWWLRnedU2Eq6S7nw8+byFYxpCSp3COBcFnr61NIiPWfd7J46W1Dewti4ZAE0YVy1nfQwjAOtZB7JB/ZtSEMU89aRRDn7Az0h/BSy8e3elgbTPuZ+6SFhgftqyAQCoTLWh+3ISF2mWukvc2ZXosXeNdlWkG08+yLfIkSCoQrWstjp+kyRy/MFwKxieKNZ4qTJM5JU7wULphCO+SCKCTdts2KEgqES1r3fKD9Tgnx4mO+U8NJN89nLu44dM72icO/TxXSM8Gqp0AoEK5n/Qlqc9tN09qVwKKLbyCcpXDu9R5806aGtr+pUR4TlThNOpR7JB/ZZSA06uc4Dn+GcOQIIvylhjjlZ2Z4bXqBaOkZoyBaN7xdYtChVruUKATCFSFUKh4QTxiGo9f+IKLRCUM7UXiH4UU72RNNBOJWx7f1s0+2Z2Y0JufU4Tx1W+6RfGSXgTDFhJAojIedIWwMouHVMGBt5/AihVcVtE1FvR6GKPZsKQy7nzCkoFD9CoQC4ZrZ0UeiEHyEY/APzdFIigUhjAOGs0OK4xGn7oISkeCmhrgtNpfUgmnOqHU6fa+MQPgWQvkE/8OtSfh8OOLgkRYIyZlsDwYbc+h3Cg2xu6JdBZMHau42Z2uMNVkKJT1qIPEX0het5B6JMC5q/UkQHiEc0CmkmaMMC8K4IIbdSIyjR4rXc02kgqdEj94SwRk6Ty4pYVjxTk9PFiRllHskEC4MIRyatDCMI/AJFbjZH+oahTj01MCAoJsADI6ek9QxR4c5MKRXL0KYaNQ6IGwCoUC4LoQmQWgUUdhyKD4ygxmnE4lbLVncdYwmoTQXAPNV8HTAEJbXTt8lNfTMouzHFggXhjAi50T5j5KIoTwM6OJBzhgaiOmCITRsEMamnckFZQB5W4yr2RhKx+QcaeQn6gi0CNHr9Ey1yz0SCBeG0JtDcWw4rumFrWiVBXtSQ202F08qSAzWYHCzJIC5Km87hvwMQz9nc9rVRkPAu/R2OE17knskEC4HoaZCYaJQ94X1OWpD5CG/VC8MDsYgUcOlO6YmUgEye3nDbx4TXK5oqVHU5ufqI3HuwWJ6G5CFMALh0hA6fZCKpehwgFAzg2VrvSXgSBP7QN/tVBvkPKdx7ITmLlEWP6zTujkWtPQyNSQkFA0prXIY1VPukUC4KoQJQJciNVIl0+oUDmlwb2OwuJUEI8scNYRe3VHwQPX43JjGZPKotTE7Y3OJgkNC8oHVFtMD6SfiVCiUeyQQrgghUkRoDlPrd1nEOn/FvbTOTp1p03wZqIcl0vdudF09gm1aWHM++VChy5ZoBEKBcGEIwYYkazG3iZb06Lj3hf3K2qWGNcJrGNrLxiaEbaoVUqSY+0+zGOaQECg9mv4QCAXCxSF80lynJIRgFTWboa/Z0bJmIudl3GZ0SYsWUcPSPGOv+yk44ht2MvlIslgqhLb1y8SN/d8NSh+b3COBcFEIgzo4uktSFC3tY2J6YBjmC6dCYWAMqbJg4mnuKDNGMuhxGqsPlFilPGj2W3OWFaD8W35I7pFAuCiEvyqnWGLyS50KMZ9v6OcdkB4Ic0N2IDNnT+EcFzJOZvZH6fnErIMSE2YIKZ2KMajaTPqQeyQQrgnhK0NI3mj0iZNcPWgQUrnQT/2gIVGpiSpPMR2eG9fSD4SIrry6qWclyEnVUHbIZESTIvJ7+gLhLvfojVU+wf9w6674HESCwCVVgpo06QxuAHZ/vcKzziZM37O2Uc/ZFs8IxuSkJi92Gu0disfpsCihz++BG7nAG+bEjNwjkb5FrY/sUyYubNREC5cPGoTGQ0WqrvQl1jRXJCi3eS4XWs0ta/Dz6C6s7RMQc6Wwgo7KOoYwPWJkxoxAuCyEfDopeaE+co2eAzasNT3HHS/HIGsMT3qc4kjMJ4AHEMF57okZkzkBCn1t7Brk13FgskjSm8qgJ4FwWatSeZCT8qCoCMiDmXrJL/uPg6xxSaEgdxg6ZXE7Ch/06XjiOIiUsz8FQsjHh58y3kIgXNa680lb1jNiz6GrEJYmM/oShpNMQ6U+eooK59O99bhhzBNmAsa2XruVMVhtGcJNaweUqdkFQoFwXavh44OWpr3UObyqVygyby0/ugEOI5+SP+rjeV1aO9kUk2nqMa1VDE6P6qyEeiOtVEo29QqEK1up0gDUvxICD+I1KpcN7NAOA+C2sDkYGEx/zxC26WvDuoqc7bks1q61RF8g1JuONqSA9CUQCoQrW1+JJEMN1cEwhBuPxR50sMheBDhNHz025eJpp33zTW/3pmUlRIYwia52NOsJTkIo90g+lMtZKT5LsZv2miC0niI5N3dp42k3dqbu0MrG97speqgI8w5RijsJQlBG8VC3h0AoEK5tfSSHNKZY0Os8k4IhdJ3Bm+0wmbPIc4E/LtaugeK4NI0h5AyP0hauDMo9kl/HetadmqwpBbrZvJ3FZAgtXuc5DTthqGcm/r3gfpyLWNxRWyD0cMeg3CP5dSxofVDeM2GYIQwq+6UDheOk7bY+m45dHPDFNU7Kr0qYy/RUT9zlLgiEYv2hc4WmjEjz5I/azuCgZ6dNvbTB4isIu0dqW0yY/5IZlLsgEIqVc6SJi7JId1N5VKG9rGGaFjIdgc7lf4XgoIQZQg0Dg3IXBEKxlsDQQ56Thry6c1TC24snd3+phD0kRC5ReMSN4sFd7oJsZRJrszxo7QsEjgp1y8x8WFR/6LLg/m8hhCkxAxuNGqVmmdKtJndBhFGs2fRLqycoOWONbTWKtwzCoZQ7Sp60fvkohHUMDW4mD82oHaNyFwRCsXYxVMaWyLD5o/gewrsy4X35foCQxyZqRf8xchcEQrGerY9cK3S9RPGWwUiHeuMtgPG6TbtlZXgyaQo7n3KAUCAU662Vu2UqhfmM0xsMaY3TV7X6qxLSWY0gEAqEYr2H0GAXwpYfvcOQhub3kPBjRFh1sGymYCWUeRYCoVj/gLDXKM5lisIbra/4rkIxu6NO3FGBUKwfIdQ4JGbs1LB9UsJAi5zOcMY7AKEHhAVwgVAgFOs761OhO/uj4xnBjttXtXoc4sFBCAVCgVCsb62hQFj3Eo4nJ2ZBPLTajg9lifEIxeyLCoQCoVg/WH/VWCfsk9WuLumhSsNM/LN3eyjUV3dUC4QCoVjvrS/l7MBgO9dbZ6lNZcLTufprUDgdqs+7CyuEWiAUCMV6a92Vm6VwPlHfBZHKhF+dq7/zRunksEAoEIr11vpQ3k7eaPdHc7GiauFh/67Vj70yODijzguEAqFY31r5GNNQo5imPQ01w16r/9A1ivNBQlHC/8cqv53VrKVvzY5SOIph80fnMmGMB1/n6sTUNNoQzBDKXRDpE+s9hHO13pb9uoNP2o70jhAiT72fzxcOc9Za1yg7owKhQCjWjxCCG6UQp/Gjbcw2VSgUHDGrYIQtOE9LfY+7GqHFixIagVAgFOsbCI06KeFpEjf2oaOkfHTZEIHdUU8Lt2/qE6cioUAoEIr1E4S/tCEtC+FVCofETMzLz7ShP2OLDCchnAYdNiH0AqFAKNZPEL5UVaxJCO3ZIY1HXdUU8IhfjbUQd1QgFOs3EO60Ic0OUjgFhWPXzEHsWTzuEBzn/d4wKBAKhGL9YFUbnGLCpoQwpWbI/Yzxz/lO9hwS+jzmW+6CQHiy3pVFl7z9P8rAGBLO5Xr4NANxqNZPW2TqScJRCQVCgfBi/X29XvueO7eG560IIe3vzAw6+45DwP+ha/SaHBUIBcIbq3Z+C+ky9dLaaGPWm0f081RgL0poPyvhdcrMnBgtCA6JmU0gFAhn688eDpza/Sl2Sde/9uUgfCkoeZQxJsSbev13i5gsXvMytO9CMBMIT1YDdq9dVXxtfkvXv1/LQbjzxiQ38jf6oudJpPGvGWvXxlFRQoHwzrrzvjy3uxOG/1oRQjdL4bw0G/5Izky763tq1M0UCoQC4cUdbUr4IgRdVUK/nhJSjSJaa+373Ch+tYYpgj2FhCOEXiD8FsJl/v8fvL7ZvuxVCZf7NCgTGzrzIYp3uZlTXoaMR/QqwFSpn2JCr4Q6EcYrhLvrCZkaEy4JoY5dwKYjvdwP+qlGEXP9Ph6waeXiFBEODFpSQsFMIDxZSQlTSGhf3NKxtBIGNdAzdW97Sy1qmHtljqlfJp/qjYC8ctso9Vte5TYvwxD+CGYC4Y0SlraqtZXwRfhgqw/2KdxolPZI9KHjiJm+KRe4jc9T6Cddv69d+XhqG23rnghCp3bBTCC8iQldTo9Wf9SvCqFt/OAwbi2POUycEWzPZ3g++QxF+i35/9BfXntu/nvs6XqaY0zL/Je9M91yU1fCaFsuyxiC6cURwzIG8/5PeVWaKDF05/4MKjnxkPbqc0h6+6u51DLDzdzJis1RhnBXCT9ECa0UpgihdgrnUG7ms4Q2HDMpGMeXo81+h1f/evUjKfP7GAazSUbDZRYpVNYa5dVoDOGeT2h+SEZHYZesT6ilsJ6Wos9o4OHUwmgo234v/HYWwq8PVJOMqkZp+bZ+JYEOW2PMGELiE35YCYkU7uUI5xZeRwxaCLU44pKKVeGoCoNr9KPs4cMQMoQ7SujrZQKDqSohjrggVWdkDr7JwQOMlrYdCI2OZnKOpo36evBl3VO0DoYxYwiXwIz+McFsPSvhHar5QAk1hTj2d4y4+/JPUAUzNU9L2WhUs+ZglBnNTzBmDOGihJ/mo9gcdalCOS3DKWIpdBh+fzZC+HkBVDhwpq7lqo9JLYFRrBsd74wZQ7ivhE3DFTNBCmW96p8IlTKIIZbEwPdrtGGacXx9A2S9Mvl6KTethC40g3eqjqMyjBlD6D/7tRIqrpi5hwBpH2Ira3vUkjjNc912/7nBh/91JnFv6mkmRYSQFMw4DDFFyBAyhDtK2EsyF5Mo4SvRf/6FwmjOmpPCKVpAYU6oYJvaXsYuYZjd5qpGX4wZQ3iohD5bv0RHu1Qh1G5hO9f1pn3CamEvp70SbhRI2fcy3lIfIjPKpwgZs//nq+lcf0WUkEjhn1eqhR33b2jmHSU06DVVa4q3VxzqP2uzdpIBwS2FMsMUIVPH0rfz1d6WramRmKNtyhB+3cHWkO511U+yqzpTyk34m2XTV10Iq0YOoTdJtUOIkVHGjCHcV0KlaHTUOYXpljjeNYVyign0UogYtlXVa6psA6Gsmw5fTxMZ70Sk0Cmh7K1DyJgxhAdKqGgFt2WwS1cJNxRG8VHUPtm0YURk37bKGKg1FcI6KphRsoP+zhAyhMcQGp9wjJXwT9rF/riWfic4451B39nrWnyjGWvUHrVToxqJK2Q+DCFDeAyh72WiPmHC5qj+4gcgIxRKEiDdjY2S0fdkBYVDUL8CyDOoeA07Q3gMYdNs+glThdC8/AYotn6hcwr3xv1SCCN71GBYA1yG8oliyJgxhL/5hAuDKUKITz49lsI8h88bbHOhC8r8sBJmI4RRJ5PCBGEG4io01xVjxhD+5hM26Sqhvv/0bvtnOQwltABqJqsJF0u03pm5LQ+U0CQIuxre4nYV77UYMoQMIckTBiXskoTQ9CIZCXzDWyM4QDZPAI2rYIuKuHfm3kd1bnG6XvbQK9XB9fq45VfAKCljxhAe+4Q0RZEUhPevShP4GFABDYMFYKE2QDuHgMyvC2BWWugY7KBSbasgyx+PhxHDL8aMIdxCGLooSI4iJQi/tB36Rht0GAD0gxbCasZ+icxUc3u/bx/FrTVKMJQtZJrBtungdtMUPvIbFUOGkCHcKKFBMDlz9BtQ/jR75fDEOGap9dD0S0xzhRTG8NXboIzcEULLoNKOpfl7tVJ4eVyuORFDhpAh9IEZmic0U0f1qVKBcHSRGGQQhRAfAWablJ97dA6lPNxMWO9Yo6GfSdbarbSfbaoHtEcfl8utuIUwKUPIEO4roTVHU4Eww2iMQVDD99Y4Ghbb2ZVnz52nUB5kCfcBNAOEpXYqlbPxG3heL4+LFcOnG1bDEP4EYTrXv/iEbRMHZlJIDKIMCodgOQhtluLjFZYuibnRsjj9tArtkMMpg84z2KoM8osmEDF8FEUG3NnEwkggjCYeegqr8/8D378A4zCewdJFZVAQ54WzWf1CYX1gjk7aoQwMYmgmt0KIVulNPLape4YwYQgbtaodxQLu8vzZ+ZfJSpSBwYs2TC2MPYHwRy3cCcsEBjuo6rYJFLbwuDkIkcMCsxUjY8YQenN06xOeftATystOV+AAACAASURBVGBGEAxRGYSwoRDi8O1sReH0Q5bQMigbyBRBMDiFVgpRDAuIkoYMYdrm6Ieuokhh5CGOkoGri4mGqEzhXhOX0JC2Q+FvUoiBUeXdbOcUvguLIFJ407eifMQVNAxh0uboJk94cgg/JjVYkqPRy9wfFDCvUNMUVp7C6S9SFEpizVskhCYyY5IUTgjxiLiclCFMWAkjnzAFJdQymEcyaIxR92K4rSDUmFEKt0VrS87eASmnDFqzWGDhUFWQLwjiTZ+iRJuUMWMIo8767vxj8LcyqMl7YHpClPrXcNkoobZIu10KaXyUYDj10NdNQ8MyXVNZJfQQ6nO93kwBDWPGEEYjZs4/Br/H1KATvZKmJ/BRlGJ4Wginv6HQt1ZEvqEJjDbWIwwcNj2ICMHbFTEs9H/Om6QMYcoQbtOE553AnXkZpFo4vOGGQohSuKuEmkKtbo7CaSdfv9zqqYGspn+lFsLKQYgIOgq1El7FE7QYmmwFQ5iwObpdRdF14qTX64KisTVqozLGGBVi4xN6Lezj/OHaNfRBmqkGqP2aq8gnFJY9KoQGwkEbwwZDhjB5JSTW6FmV8ItUqVEIMxOVEVYL8zhFETA7ppAyiIFR5Rhs4uioCAGZRQgRQiGwVM4YpQxh6tFRGpg5JYQfHwId7G+fIixMVEZ4CqGe5AGF3dZSlX4YohvSnUFbL6OzljwhvPPbcq43g6CFMC9yg+H3nZdpp2qONiY62q4GPZ3vekfXsrsRQhOVQVMUf5e+iWKbEZwrTeFBjNRlK/AtMkKw8RUzj+IWUxggFLk+6JhGK+0ZwvSio+1qxszprnekdWq0YO0Jj0E4axTDo6avfpc00+V7mKqQ9aR1sHIM0jGSpoBbXK/OE3SW6KKE5ohBgJvUzRAmNaT1KDp6us76e2XDokEKx6hoVAQlDDmKXYu0wsEz8wGFk9QURQsfA4WqghKZWxBcK2EujBh+s/Qld8E2OtqMq1UUZxtvgUMsnrs6iFEZrUFOBa1jGJzCbYBmwpH29bzjNOJ6Jk2oVJEOmvFZjXEJyys5AUMDYeEoxA8Azt2nCCH+1KiVEp5uxgy2LYVozEhIHHJbKyM8haI8skft2vqpA21yzrFVOs12m30jG7ejPg7NNC3kuUauuK5PGZQQMRQYn2EIU4Rw1yc80/W61AR1BOMOJuHtUZMpfG6TFGTk/TT1AFnXSLIzu6nMCntV+/3YEYWNsUYLfa74a9FCTeWihMLc0DFkCNMzRxVZyuTzhKeCMKQmaGIiRGUuAwHQSWE7r1oHowGHU525Yd2ZvoF90Te1VG4xr8OwDRQ28DQQOgyDIBZUCTWDglDIEKakhKZeZpOiOFXFNg4VtfiNkU/oW3lFCMyY0Mz7h4kWFkNZq7YCf6oGRdJtYVKxPeqEcMiLcK5ODvG5h9DqoBA2SMoQpqaE9kcmUsIzQejSgytTdPBFo/lQxkpYHqUKV10TZlmvnMyb4mVoixY6KUQhzIsFQ0/gGkJkMM+1X/jNECYZHY1W1p8Iwt5Otg+m6BAXjb5Jnj4czeb0gxTKaPXS5mzEsEYhNCcCUd/lHkJHoDD32kYeGcJkLjhUzJxWCb93uibG4CE6Y3TBsPRVMyRAOh2vn6D76SMMqRiqForSEhgwdELoIVyMUZRC/BD4MITpRUfbmMKzDP81Czpj+kgX4c0MWKNJQi+FV5A/SuFqF9pqQ7YD0UOoPwd8EoJqoYFSQ1g6U1QEDIX+dGAI0/IJo8b67kwQ4hwLD962ZjQWQnfsU1yOJuVfYBgWwOBDpIQewjqDQXgCKYdGGB2EnkMrhXlZaLeQIUwFQsxsbaKjf84B4deSmigHkqGIB6yJMnRQLFo4FL5s5qB4Ru7tgYk9RYth3YMoc6KEzjAt7FMDoaXQyyGerUHKEJ7XJ6zdZ3Z7PiX8+JHasSO4GrAWRWRIbOZwzCHpYNqCWK+1sO6wPDynxyqhk0WvhO7kRgixt2ltkDKEJ1ZC5eY8nc4njDqXiCCOS9HoEI7JFdJTlqSFdzpsXtpzEIkQqrrVbmfujMw8RGbMvcEQIVwozIV/X3mD150hTEQJsV5GrbYTnsEc7ZeZaoMBj9ihbuy9q3p5vx+5KNc0DtfVJG75y2yLPQalZTAoIKIXHhclXI4XwiLXnxFfKff4JsSkNkc/Kmpl8ubov329PjWxSgyO5Lm4Xp7vN5CjcXw+inIIyUI5702/36wMjbMWxC2Unf6/sGAFJ7BwcZl8UUJijvoITlGIK7ySoi5dYcT5mEuqnirhv329cWqC0kgyFMEWzZFHXw+K3LgSUlK9Nv2VexgpoZKV8QcdgwE+T6ANzLyNEvrQqH2zeYP+EGAIk4HQFHDHnUz/OoRgF0tspfDgDI7IUtxu2pUMhdzVXxikUc6CZO9xWXY+eANz5xgXcXgv0VHvElpQRQEvhjARCF39NkXwH1dCl5ogHfSDcwzXtTNiE44xU5+W4IyZ7DT9ZJEuTU51VM2mTVHs2KdYrRhEJSyMEuZ5wDAPsoleIUOYCoTNpmDm34bwQyq2h40rSI8gjYQhNWHRsS8u/2PvbNsS14EwDGkKJTEgirSXhcL//5Unk5fJTJqiX45atsVdj8uissebZ/LM27fMmaSEWDvztmmgGidaLaF3ogqdTAREC2HPuihQNyuzk6/Luph/JBy9nWM4imnClxlDmFITPWuaGM3djuN+BS/drnr2IYrf4+MhF0IIRaPB46ny3YPhrUokAoSIoE9lYALDSJk2iS4QPrcxM57zNGMl/CRD1bIAtM91cCSFRtlH0/C0f7Qsu3QkdBjCitCgpzC/KXw5pcl0i4ChMk3ssEBfBk+QRrsR+asFwueH0BWOfpD8xEvbNnN9RodxaqInESkLTMWoWgY2pLE/y8yZSTXEUtKTX5V9wS5FSEK49Me+1sJ/1dRYb2NOCyF4NKiDJIuhLbgw+qlbIPwXlPAamgkDhy+zhVCGxfOGT7MoFnCPToTwE7/vBU3bgTZCg29ZDYfMl3EZCtiMtvarLfwnlZJkIy+X/drBCHEqQGixjyVsqWgNrRv7ugBDgVcLhP+CEp6ZEr7MdPgv7HtJiYmejhctxqNMBm3c6NITiovjXr7dH6fsiRACgwdo3cDmDOXK44xR9TqlIh2MO4ARjCDvlGIwGg6FPosB3YWVXNoLn14Jz9hWH1MU84SQdk2QyLNnQWg/bY1CW4VJLe55m/2wmayfSVVrm40M22Ui5DYcrYWNPJXwAqj3F0LjRTZGxyI2oVLFjIpZDBBDmRWSLhA+FYSnD5qq99exPc4RwjhUjRWJJoe0LwSjTAit4rgUIcPQfMOceUve6OYN8yOhU9h+pjD4F2bgw15Q5Y6GqtrtXZh6MdhTEbstNFNCOJleZLc0VTw1hKCD16SEL+0sw1G+76U3vJWwL3QzpZb65MqokRKyhorJ7kLPIAzoplOl/MgYOPaR4dt+Dr6OMPrMYUQwy+0HCMcULhA+F4RXthVtrkpIUhN98kInS9bEyBt1rkzscecBqSKDSMcRaToQDmc3OIqFuwIq04QKUuhn/sadTDW6pJG3fAiGh9BT+LldIHxiJbzycLQ9zk0JsXNplJoIycIxjulIaKLehaJRnPRSNmeGyXDU26K586NMJdciQVeHRRQ1zxnmh8LU+RuC4ou8/lOL0/6ZlxmA8IxJwiSEs5vA3bDURJ/VyRT2wIyqZfpGKlPSwRCp3qd8GTwRWgb1mEH7yQxugyEA0v1oGq0ZlapH/a+ghN5HXS3S96QQ+mD02p5JOPoys6Zel5rg+17okbAvFc1wdzS6MmUpNF9Mu3BTuRtZklshNKzj1mkfU512pBEKFaMQq7j9t+Eg7KVcIHxKCIMnQ06EXXs8HmcFId/30qcpFtNNTIKcCU2oT+vJxCU6eWk07aKUnYDURN8X4l3hGncrwQCs2arCJIWCpQoVuqPu1tekt2mB8KkgRGvUBAwhHJ0ThKOuiXHNDJNI6sxEJbQnLvB1EoJ5VNrrCXPGUziccgbRHoWLbidET6ZmzozSqnzFTIkzZ1YLhM+phN6TuUYdtL9mBSHrmrgy9q4paX8tuTJRCO1/Vy5j1xtvUYpURkYbKu5TOcLhg9iiTG6hWRAq1wzfEDpiMHdmGIMOQTcxvFkgfNpwtCXx6BFu84GQdk1kE9X6iXK1UsFMb6UuYog4UD3EnP2odvttc295ySoXQjfDApIUmqthjfEp2qOClpCmfWlBs41fUrFAOMN74aMbXKspJTTRlBGzOxOy1ESeoZ9CMOtfipQFNUw9RcydMXQq90CEcDN0sg6VaoVEJLTP7+TeVJot6iW2TKVJzYwgiogvAkkK5QLhDLVuu/okdcOfq3I42hr75sPRlzkpYUNX0V/HrRPF9ARtJWS1o30dMUzRaCKRmzOog8MAW+9jsSj/Gl4JoT23MbG7fnxpRiH2NBEdNlEK1/K2QDize7fb2ysssTzDlufNRwcc3kbhqI9EY6q+O3ZzUUK+ir4oeuUo0eRj7+NSsn4noRuqL2qhvTOfdgH/rnAmDWfLwCENdZ3X6ZIUdEXvFINIoeIZy8B4OhUuEM7l3u3KItjBcnVYaDnA+9ZPTOBK2AKH15CfgNs8IPykA53S++TEXM00gqLQ0wuJdTcU2GOocntmZM7A6myX20hmq4lxaUzVh3FOlciW1mcUKs2/HuXf8S3Ceu/VAuGc7gXzvhtYktmCeJapPW3b+SNhkMFwJJyJEsp8xvbUKfD6QAazTgqnhtAKv0aHxlEReMgqZ94295Nrok8ua8LbkGG+QrlmiYpTWLNJF/RUSBBMKQqPuO+zXyCcyb2gFJtRnYeF8mDZ9L3aAKEzR60OGkdg5yls/jqE8AJTT1SLfnUVFhIKQcadeQxrj6EIFBZHkd7PyGBijxw10eY0rnc3RaR6rIUpUYhbQxXb2MasmQXCWdxrGeyKpVaDE8PuBkWy3TnmJ7B4G4Twr0MIs2RKm+hxtNNjAEuRKC4HdBiaS8KQngyN8KNIA4NQsZ1/FgZ2rH9xSYpgzUwGpBRDQWSwFI8uEM6iCP06wSBQuJFhml44EVoVJEL455UQZPBCM/TflMDws1wyZUTcHO+pER7DKmCYPBLSUDHcYZDFlwj6Gb87uTZj/uooi3QgcGbKChbs2nj0ukA4l40oq0clx3f783NopXwFY6YlQuhi0e5vK6FzZMQ3jdApDTRFFUwF1BmGrHImTLuAim0jCj0XiCApBIUkRfVFkkLnSsjSlOH1o5ev/waEz/AMX8PPymZCDFtIPTeHD+fLgDVqvBCCDh6Of3ramvRFMj3Nz/dfnAAFOwmO7RhMDeAis4ihimrIzZn7gCXfKXTk63Zpa6Brrx9Ho3WJQ6E49+ghGd9XuF0tTb1zuNcGbC0r7xj7MycpT1s/0cIQIYxK+OA89rvP9wbJwf779svEMdAQsaGDd0kPg8VQWAwbhyEC5nP2d5eaoNUtI4xDJOq7kizPWoyKZkoM6hT+ciX0b30tVwuE84DwdTycKGMRXso71z3hgtHPcCK0DL6/H5vV6ta9+iqb1+62YtHgL9epBUem0Bkxqgslxz8jikkJxE/kW+WdgAUMrSgiEAoaKrYfbvNgHEkxrrvWiKDv0BXadVLoaIzWeRm3Dr0U5FzIvJlEouuwXyCcwb2FCqtxSNrJ5gMI/DyHFGH3Ajr43r27Srfm0J1Pp3PXhHq3P/B8V96R6aePgoIk4+lvZTOUngb50M845cViaJ//RUQ19DOCO5gSXGCPKGDayevCUEhSJAbjxJk6DZ7ByfgqlazxzuKQp3AjnxYI//y926t8mxoMNvBchYtHfQcT3JwQvr8393hBnc0d9nw1t1AC8IvP9wqOTG8erh4UpmBUFhkU5RBSa77KLGAIDRahnLqX3hYt0Jf4VbgRVIRmQIHRKMGvrqkasqamghS6M+nrAuEsIOzkd1Z6uVxFGyi0HHohBAqbYYC0/ikV2rw1sln9siXQpBqZqRTEN9hLyfCwljNFopovEox/YHoV+pzcghe/sSLnr7QF1M1JEzpMGN0rfh6s3RV5xMbCONVinKcIEDYLhLOA8FXeJw+DPFfRyMPZKWE4EAKDBwuhk7/DQP7mpvnd08gNisn6iWK00kBfJdL2W0od0kdGfQYbs7TO0yXbfbshrNYOkzDy+JU+Lg74NarGYduXy17rEYHpYsXcNGGfaaHiA58WCP8uhKT17fFOIchVyDMi2LoTIYSjp6ZpOboQvb7+1v9+58gUZ6gVV0twr4WwJrBAOrNEi/wFOXSFZ9j1C2vP6JxeHJjttczxJ6q0eaLZ1249mtDTCCKHmsybUblD6iG8kK2FC4QzgHDyRDiwXEXLhBCU8CI/7qMpf2Co/g6E0ZF5nJIQvGCzMK+F/SbyIYNJyfyNlbEo3/W7D7Yoe5hzXJTHT69xCdNlX4vxasKMwp29xcA0H0Iq2MnQv2xYCKHR47BAOKtw9IvL5SpQCDurhEcrjvd78RDZyNvPPyPnyKjvISgK+b6MQ9o6nxIKyBO+qzSrYwFHRkvHICUQ8VP1nuBXRfz8HsICgTsPoHtHMEyzLpJ7GyTR17VeZN/rhmO4QPj3jZnHy2bv904mIeyOB3kZ7g/SGj9fp+ZrZB6UxhAGp5wS0jWbz1QiEWVqN8L98qTTzxhXsZ2+gD/7iYrh5y0ihf2DmpbJEP1zN3zDkJSNAhYqr6szFwkHU6jmuS4QziNFMd5hMhTQshFpEMKjlcGWBqJDbqg27ETy/z8jcGT2D0NRzMaT1WLl8x3nMEst6HSyqzw25GHOF61kHWdf+NaiaHw6/NZO/UD84oOr8AkLjkyADy6KYVXjLGBi4tI9vuAL+WoemQ4HC4TzSdYPEx/dN7LxQnjsZHHAJrVJP35yFDSpkXlYG5ra2BODLg7EqDLOlVf5sGvCYIUAIYqphsXUblI+yHEP6ofOy2WvBcaeKd9XjYpFMRIN7LELQIwhqU69G3g4DN+rg9B1ZkDb4zJyZl5la4/C03srQzgqR3NUij0Y1x96Rti1NImg4fGaVqWJSoTE6QR7lW6F5gbLoP1GIEmRzn7NZRfwy0pBEeaqohl6lxPEQDRea3tDEh2FbG1oqm51Gg9b7sO3DmJ4WyD86wXcwzfSFNBtAY5L21kOpTzdR399KLQFf/7IM3rsyLDGQHoULFRIR1ErUsiVsMoodEpoQ8+9USntt98l56UeEV8xnDVuJuQErh2A6/DLiaELSqu0sVAgiVEK3ZkwNuz3gcJnbIh9gn7CJrUyDY/MmWH4gBkYMDSs5QwOD+QTSm1+oortMBWK5s0RIbpMCBYS4bRPAdvYWfRa6Xz2BNa+mAvip509hMFnuTGJBrXxG6riYRAFcB2u3RrlMCYMqTejyGFX7C5GcwoX6ZtjUy8tpTnBNKhhY0960OZ7un/DTg15je3/XsU24cjwiUojQ6bKc+FVjiEqYFasNp7+Eh4kdMg7uIDUW5/TCCLJmt8/QSC5EoV55Cxok0eahAFrFRcI5zHe4j/2zoa7TVwJwwFJ2EILZLk44dSE4v//J69GnzOSsNNNetbbA23TNNgpPuHxO9+z7pePnqdt5voBUDpDbdG7TwUD9nT63XVquSlanNJEEWQx/igl1kKmqBqq3BRVKYbWIq1rqNe5hpJRha3eUqd8hmGigwG7Hn10amgNUoYorKn7GpMmprFqPh0QPunZ3UFPSURGC6ZWwdEUc0/b3VDOSkttDIW/z639KJiiO4PSIhkhAknijvreJ7tXrJ+HpDDUveBIJqLQLFby9ZzuOYUWXUE5pEsJ0WU5P9Bh2MPvaJbC9SJDOKkSbzGFYKdel7R+4oDwec7CKJZHFGpXELDSFBYYfPTcDSyh31WndnrNo6IlBGlyntF7PYQdaWmmQxAl6aNLiLa2oN4GDaFZaO/9s1QHBbt/OBmkIlgZ+tyv3qkhXHLM2uNAkiKr7BUqIHg9IHzas6AlSenLGH45IRxsPnFL46LrHQ7XSOHv+vFDrWhfXLrZFRqTnKVmAfI3O3W0fLyD4QoabI4ylWX0UIdR3RoI4wAZ0cNRiWTfWZnG1BSVwRIF+uxh/0WvFgkfsZxbhKep6D7M0ec9C5ENNLfd8WcQtBSukytvwzq4fs4ptDr64/cUi/7M5qll/OGeeEV0kBDoMITQv9tDpqIxqkheXyWmpYhPAQi7mLFjfdVdpktXLb24K4NhSX1gEMtgZemLH8KbRkgXRvOZFJjjcTQd+xObKv4Uc9QMRQpjMh2Bo/ngxHDjl9Vblg9y9MWmxG1K34S/pU4NDOmCDBIOUe2n8pXUNgAZpMbd2sbG02dkEp5p05sb5dVRm4N5hoPQ/c+iv5qBA9v0NvdCJDNj8n4JrINUBIMQRjnE0ZnY5kujR3RK6dWNxj8gfL7AzIu2MIfR0+V2q/vDqOH2boe6m1T9J9suaNJxm/m3v6K8gz63RNNWwKiD/kYP4mIpFAurWSgKyzHEJdaIHOYaG2rllVAfohrd6I/1dpsHQQIy8fNIZ8pg76MxPeUwXG10C5miVa1JmFe5atIDwqfME0Ke+6Lfr1dbC2rNUELhuDbc0qRRGrbcF1ybT2Q4vr2xLXcHc18Qj9VFtyi2RendrWBmmtB2pJMXUk+qsvn0pOsWvmAhdJnzanLzd24awtvci9IMQxcPjd8ouoMxGNPrd4cqwRClC8nkmTyF6V8BjCI9IHzCsx/g422rHdY+b1QGHYbbYOUP5j3thVHXB0FSDfLP7/VjP1J30BNIm3ZrmuhjiQ7SO1sK3sOSl76ufZsCQxRm+YQs0e8gNEkKeXUTsEAIb7e/BlmIyLjZMahzVxI72VyeBg2uSuYWKTZIWZ4HIekTmGl6QPiEZwdtXqKVCZHCyfwyx3rhq3PsyLTuPDCz3onUJAbpl/3Yec8dzL1BRbolfD1KEnU0BztzzQ80pC+tmzJBWpxwpbWgLqHFsI3maGuMUY2gFcLb7X+9KEdkUgQdg8YYBQ00BPKFQkiCMwHDvBQvlgGxA8KnPEtTE2Btro0F0H8ACG1UBqpGx+1eOv+SZ+pxzv4b2wsL7iBNC+bhGJWkJqwOJr5WxXslheZPW6WL6lqWuFtJgjC2vltB0xAyb47WrLUquN42wyBI4U5ekPQNVlEI9QUJ2wm1iFaLdJUqYQzOiDgjGI6ZiaQRn5mRpgeET3c2LRuFxROOwsl/GNfZ+IEQGH3b7rQbrny9G6OhUvi1UrtsxH2dT1DLWucZiosilwsdgnNlC1G6FuqwpRm6pGLDEZk/gfpuoxIyq4QaQtGZkIzXwdutjRC6fnzauotblszl6YebZqilUkxWQv/dZ1oog0mKDFtpXyNqxDeJjJZzfkD4ZGfTdbKj8fqaBvCDw6phw0220Bqr+6nB7W24HzfV1uzHNwWTPvxAtR1LFDcUJDFDpINZ6L/qec98IUrdGeew65SXQ5bWbYsgN6Hy1EBoBokChCCDHkGnhHEgBiI5dutGf1AyJQ2BEgjUBwMIZR6ccRRKkVm1kp6pF94nYxD/BAj/069Be1XJPibr//GxcQiaj+swr6MRyYEu1E4Zc6nEe4/g37GpotRCn+Ul6nyCTIHBRFlACKOwsLYTMFG77VrcdrRjRzohCuZoW7OaMuggTJZh23hoHGEBxqj+w5RYbDuUks49ZHy4gipKRCHGMBShh29EOWQwYL8FCo+m3mc5q006XH7m8xLQsTRZCg2IzYWvo9m5fr++dEXW6N4A4dkMBf5ysSgvuoNFBNsMwZCbyBDsq4UL52M5eWu72uwe7Op7JWZxDhoDz63q7OAXxUZEoD7+HgROejDFWFpBbunRKMN/e66UEjLUzbDl1RRVLJVI84U+WUG/TYUr04Voe77U0Gp1QPg8ENKt6p7CqRm17xcpbPjFZgpjUKYoeNBlUaglxVEaiOx8GUK4D9k1mVuRzY+pdxlEifCEwV7yRSFdMVipurZWaZ03QuB4iqfQQwhSWF0Jg7ehF0molbHEegQNdAT2bcvMtfraGWFimz9f9TlJ1ZCapbEL0YNor0+LYM1EXfHhdED4HGf1zYxo8pVqYINaCsfpAhA282I2XRanOpEW+uLYJ/pQLYU/T18sFk3dwa77hA6ylME8JqMZNEJYBQPO+3l1Z1MW2jkUsRGpyKAwSli7EWhMEQa1Neo2MKGqAUaFkLVtb7dR1EpIWsYtextVeXmFYGkeKK0qGtpxYdag7e2y1Pr/65bvsEcOCL8FwlcihF4HR6N+2hV6b7QaXqbx7Xx+n/KgTJ4jvLvwN2Qp5i9BCHnNc8kd7MhC+Xw2WqqDfUEIK74wFPVHIz41f1BIw7Rz6OP9WVjTeYUBQrgOWRMhnJmK+whxZ39KoAIC49ddsFRWPrQJRil1DXHunvTjyyoOaNPGrXlT+QZ75IDweyDEhdjeIQxh0Vn/mGf9VSDybRiGhyMwtvdslHfhCdtbkMJ/dM35jPtyRKYuCKFI60VTITxzxGCcLOit0sUX0pADzea1Sii5rMMOXfkeGTzPQtE3B4Z9Qk1gZRKCrG5ZMm/UGdDMRTbtoPFe5Fror33GU6FQDsPIeC35j9MB4ROc1e+mUblGIoRghzYjzLAYJsCw2TZSKbOWeia2pLB75+FaUl9OX7hmrq731yuVdpAV3cFMCHuw8aJRJ5L4Pqt9IQ3GMBsGSiCslRTvPigzM0XW8+LL0gRKQqBI5x0CUsqlePzbkcg7KzyFle/CkFHZfSpRdGd+KOFTQPgjKlfCoIbwou1QbYhqE+xNn14HXurdJZ+PvBgTXbOymTP/JxBqE+xUcAfxJEO6NgJVbLO0YrtgikJUxgmhRFIosLun5RDSBhoUVYDQRUgDhK6LWMzz33/9PQ+zZCp9g3DWKGtrm44QkUAitF4LlWvKDAMFxE4BjX+ls/tSJePcbjCZWfAKDgj/VQjnIbYPonpRxyAcV/BE7gAAIABJREFUzXgGq/R9nbIWwrWQffhch5MZdfHLw9dAA19m7w5ei+5gmyzELeigb00oHJCnF+Q2Rjm2kIRgpp5Ne31tlhKXQQlFrYIU1hDinGcp/JfQlmwbZtXKalPymaWLbVLz3iCWV/ITTLTQ9xhW6Yi2OXZbWIO0C17hAeG/CuEQ4zJjjIxOiMLxrPkDDCGXMT4YAwUr1sa7j1pRnuJXh6+Zq8imGqa9uzshGfHIG3RCqEh80fPn/3Kfa2hMysLmD1Ba3IVTLYRhNH2cbZN0+LtRU62yZWk1UtcovRJ7hlUlXP31yx6F4QVUZESUvcLIINMv4eN0QPg8SjiiLt6ohPD77dxcpqa5cN48YlBbo/M2NmEmxiMtfPmluU8fEI5p9Z97a87SjfIkJCOJKVpicOFS7Okg9hD1oWrw36D3NylNAWjaykGY7ew09aShtcpeGxSonimBJRadGoqe01jxoAU0t0iJFAYjNSywgN7j2qyzPyB8Hp8Q9y4ha3Q8v8HnTQN8jfvLQxvTec+nNczCCBjuzcY//8rsPYjHd9frdSl2D3bpLLU0M0FlsGiKmvTEWVW00Ku4iMVFMq0JKVsl6UxsbXZW1Bzdm3VjNVpD2HUqrKQXYi/0amEXNjyKa4fQK0IjL+J0jJAvxEpoepoOCJ8nOjpm+YmL00I+ahSnZuDTI3GDXP6K2oEfLJaBzdufHnbyChFRWHx9LfQPkru73vEG5W7Btrfilp8fpmCtynjLasr8121Kz1Z2ooS4U0K3sSxFMNrMDkIleeuntWUkSrSd174CluyTgBippPZohFDauAwO+IYe/Fq4VNEB4b+cJ5zWJEdoMfQe4TyMgOPITe3onbiMrTf13cBkUOLOs8zm7ZdPXDPUaPnE4JVhg5SslyjqIG1b2stL9FAN9nHiS43Tg9EOTaoxq+gDKpuyYEqgtIaHkO7tTMcuBghZq71LEargXCkAcgiJEPocBakfQm4hjSuh0AzqdXKl6LWLjx4QPkXFTOoReiUchzfQQ+0SvmsI13FvJS98g23m5lFkOtSdOlO78/f10TX/4AZBRx4YpO31kQ4iBn2T0E6lqEPQNve88r4OJqhAnyU1KBIn85WxSs+9o9NWpWgIw6TPkj3q19FYma65KSXzCCY76nFoxiYKh7SSVl94YeAFShTGHEW0Rm17758C4X/5NSB7FHmEXgin6QwkNlqyXP32e3E5veENZkTx4FyicaX3wjNaYn+c9uqnTi8fAzeNuzEpgQzSPR1UcaBaHhMtHFKeXe7tg5/PrU/2+RKYSKG7lVEdimFUW6WLKXb7P3tXw9uoskMXZiAMCLJCkKBCp+z//5Nv7PmyZybZSFdPN7pKetXbLU1CU06O7WMfK6/FERCWotFouGFD5bqTY2BCQZJD5UacPAxtOGpTucQbQZZASHtOUyYcotHFh/r+5aO2HZRYq4XCDKaEnUHTDbrXDMWd8t52RRhiPXSRV8gKgx/G/Dx+JYt8vy4FwerX92/0VBl3ngTutQ1I65Grg3Uq0CeR6CMIQs0/RMUmvRJ9E9IwRcUBxSBICzGqV7IKcaoLRx8zYbAB9+LJMMmaWwjnOWEcNWwKICQBqW+ZaVgTdzi1htg+jdMHhG9x9AfX1cdmmZmqhMvtqu9SXjdpfkDf5Il5XAZDvLfe5AoihQ7eUKW0UBdgaEC+/Uq1+w032w6AQK7NjyYgFbvH4Jg1bOe+oqo4N+hp0OR0JCQ2KGxqrwuobMSoUhGCBIW90xf9NwyqCAj7Ykro9qUhNSnpdRTRlNplwnnAM4NGkf59TcDQMIGCJbFKUZXQeb2B75rihdYPCP+toxuO6ZLiKAlIQR6U1+XsoCxjnZ4MDDt5O7MhxNbEqhqSx00v0aPtIfp0yoaJNzuQ4L7vpXWDGJBm+WDkwVKX2iMITpDPfaeB3ZgzUaHQ4fzyQawQ2GijwlRtb0HIqZCerqdCNxc8mGRU0Hg0MUAk0xTmKXqZ/n1xylcxFMYINk72NmTzm1uj+P0B4Xt4zMBsRFKXQaF+bg0Lbos5Jq/aAM0NzSNmKAwtEd4QfuZ/d8aFbdu+woazeS+//pB3huNwbdrJJxuQdjvPB5MumXRu8NGtAucK3jNgnlkeTDdX5Pqv0nKjxdzBRi8YCOtSPOrk+kCFsEkt7IjhgqFvllOeCRvRyZ/UqkuKo6s4E/IBDNK8TXaZ1h8QvpPbmi/MkHh0vuEEBYxTwJC9vnUnpa71PBkIr9YPw4SvJCL9a+dMLNFoaBV3OARX7aPQHBMDUrWX5O8IQfF8fD4WRbeke+5bmlhS9n0aFLJxIrIcEOVCN4MY4lEDQhGZsFCcgc8wROFAB5UZ/8YRskLBNAp/CnB2P5e0k+FoVMUtuZuGcqFKNULrZDx+QPg2R9F3NGFCmOlFCJovb2BuoTcy0YuJ3HrGwqqNRnEK/yY7GAVGGDIMPneAAg/+GxRDt29zVcFQkfSyRI5CKWM4mo8lJB0y05NQNFer5TEoKVXNXOm9F2iJCQEXSjExDnNC8bgyU9ecCc3Pj96W21qHFpu4wfkplLHY36/JaqPpmwcNRZ2Jam9A+PUB4bschfBSs5QQssG1tdUZA8IlASGDIS6qsNEo3nWBtRaBCtMxpudA1PPWYZ+2iQoRhEU2NAGp3Me0YTQb3X0yswTChJRdYaxRdo0S0saHTfSFatiwuqJMWNuyDGHCAZhQJPHomEWkvRcyRRMqM36zTFaiwaqrp0F2zt+heZRMMvGRf2oGR/a9fUD4TkdxF4WOTNhucnMQNCC8IwjviaNogCHas3VynoMt1FVeW51T4V982Gx9R2vd3jagRDI3mNqL7pOcdi4QPnJySm+Hw+CEFZlCcC4FeJrJru6pmVO6sjNc7EooN/8UFXwPwv4VuR5nn7Ay4y0zRAGBoD6a3HO75OPwgQiTNU1N7LZpWEYYlkx9wtF3Ogq+Qd1qLv95cfYyN8QgVmhaBGG7ZsOCJ3h1L6etjXZ6CTcNqoPT7f9enNGpvwYgEZ6vL9GgHR+0AWmJBhu2+PORNNEckVP4q3GVsPkI0sW+Fg3zuVdcMHT/7sERg3sOAgh9yPegNFPbFNadMVZmwqa0Ig4FNsj9uhREpjBF4bu3qScHUTksCgfhlxXW/QeE79X1Ax2a17XFBhrDi/PqMehywlmjopiLfFeQL+4w9hv63QyMNxPiWpJ8dak9m6fC/pxpz1NCNz44godtXY5EFckGyxCsfEWm8Gp8SaxxqEbKahRCJBEptxFEUdA7YhBcIgjzpDBdkhFaCupDjrmZIsXhYH7k6Eq+yY4IwwLtKk5LsFmojAeHMe0F/4DwXz5qg1JQ5lcILdfYumZAeGvDNorM26kzrHWGaHT1/jQGht2i2yfFmWyb7xwHqnADTbeXeRD+MwHpsZdoUD2dWTo8DX5fHrwaP2hhVk1KdIaeegZDao/to1EDjiZe/VUIR+3SisdJYWxcg2mmSdZ042FYa+9zxNpksEcdberiOX/LSUUn7ok2qGV7mRpSlAEQVh+x/v0mm8wl+LX9Rh70CaH5mBfsWms1M+sOJofQ1303fBgKq/ZuAMMOTKJeFCmy7cAmzUxBSFdgm4C0H+mEOvHQfarPw/w8c4EvgBDjWKieetdtXp0J7mXQOOr1iaQwQ5mwfzBTGM57EHKo6XYKEps6GpRKTPStIyPCZIk9HcrwhZ6gTWA4Onx6R9/zKP5Z761vHrWxpR1kggqozsqZ6K+mpWxDNOq6TqG80962m1MwXijMkO453AN1lZmhE5HoISAdawLB6Bz4aHr+8BWZr2yxBW1cg30ryCnCZGHDmHFhFZtQGq5P5Ew4PBQpyEQheE3ABhm/PXFI4tKxgWmpSh0kjf2VEiEtyxAQeskjrAq1m07xyffuA8L3PHq5QolljYy2LBq9LWawFW0ZF54aXfRhiAnWOMVmG39PczfY6FQozuRuiDwlnBe9JUuXknhur8DvIuuQea7PT7Zd+8mrgSB0DwCJ4bQPeUQaXS9q58/GOrr7vzAhLenaoBNSXLa8LS676IEGmwZPPV8gAcXcaQr5IFthzxiV7jp1NlOj/P2fAeF/rYFmbf0YhcOSgcNN48bsG3Rv66Cu33AGQ8+yOz0KXTHHkeiSN848K8+QUQ4kXmplkW+bgB7SPqNB9Wx2t7Lt2s+3XFQqPIAyIalLDGMjGQWhaxut/GyFKjFhsUBK41GszOxsQ4Vv6BajQBq0FjjpOV++kAgdCU5RJEz2cTcUhTYYhTcHF95+hnrf7eiXJGXO1Qp/Lh41KJw7ubWn3cJ+l5gkagxG4dMcolh63wfzFDkeifMp7qRZiMkv38BrY7n9gPl1QUaWHtPg4Z2c7HX3VxB6kb8yiZisR7LGIk4Wwdf1IUXaQUOYcCgyYRBWAgbFUMkxbBMmFZp+dDT4AISyE7w06ogQYMcfyX3HqRNAheOETagfEL5hP7ftfFl9pdNuJ4QeGAAJDlHI64ZqOjbM2CX3ULZBpdA7RAUqXOYMh/qxRwahwnaWaidFUWro5GzLgrpGi6IPDQ0r1flQ9Mmr8SOV3wWIj9SAIfA4CLb+JUhvtCzDxPqBMWHB44KWlAAfUtTpsiZKg0UQXjZXyk3H5+N+bxrbeoXQ4nDY5cfo6V1BCAXNhdwMIGBFE4p+CMNzvt3vt0VjXHrCuP3VQFSvsnUpYfi0LHy2cH5NJvS4dUKhj0ETlW2Aq6geihB8JA76iswTJvySDTNGrLCJbR/4UlC/dGLyP62I2RowoQOhE8X7sgtHRJuAN5SBDmLB9wgNlkBo8ldDhP5cqZEMyf/Cow1RIUQirHuveHxA+GZHfyDwXBgMzT9NVng9g+anodla27wQ5ymWDked3FB+JMLVrvr1XMjHC3X6VfDYsD2ss8Y5ijpfueQ1tnqSU93wikwpGTyyHplndSkpKBPC4w2H7MaaSAbhRsoydIfMkIGQuHFTh+Kwr03AeFZMCIdAg4MKv1AOwoQIg9W9hRxdxOH3c1MiPP7BRpAPCP+/IDzZZiZnVqE7qMEk2R1axEDB9OxW6LNZ5whBJ/TbeJTAcH5FJ7Q49CBMNtH3QZcYDAZG3yiqnrap+YrM30HYuW7sifALJIb9SLjQQXFoZBVs86vol9/zcLSxMp7ovf1a0mMADweVmZ4WZSwNCqK0pCA0RIixcKRBv3rJpaMehnbFt2NC578PtdGPDf6bHv22IIyDTRaGIAV2rQ1JXWB5ntibBh3c5wYb7RGEoTTjut4ckl8aL6QmGwhCnN1l4gT3rjbXqRBked9jfX7iPTJPQIgGwAGFlgqrBprY9oFtyRa42SiZn0iZ0Nyaqd/Nb7XW2yT6njlSBZkQDdrqPlZlBkeD1TMQbiZ9TXnQBqNRiCBE6IjZ1WX2uCb0A8L3AyG1XvPKuUFhB92g1goDh45WGIYHD0Rz7BZAuBaokKDwMRLnxOhmBnlyZ9lgXzMIom3u0T/F4OG3DnJx8MmrQSotRH1DrWLvaZO1efrB/jDzC27sqH0AoVKLqyb/6bcmLGpyAAnkKoT1C7Y8iEVRJWJ5yAXUrN0XT5VtrK8YESZ7qWKvDCCxJltCPyB8v3A0DwwROhp3hi4aL6j1anfEoHwIs4Y6ywk5DkONpi0qFnNiNjXbHoGdZYMJBG1O1r9Eg9vl8tKrAQpFU8UFDhGKA2lic3QIRKwq1s5tcVhHEDZqdhjUf/7cryLuJmS/iB2k8FWUcXA06Btgq4JOaLJXVU1TxZ1FMVgOZVm2oZFIhEiEPx8Qvm111LmvtRkM9Wz3InV27Ha7yq2bMULFnHCBHu4UgWtSZ41s6F26yQfbCrUsbWDCKG4zcR4px2rljyGI4uDP5cVXw4R4QhEmJDcTMEpYWR+L/qNBSkaEnAnFtEQM/vnTbIIE1OQ3wdabPaXBiXTfVQkTIhFOlK4jEYqIQVqe8SWZHgcofn/WZb8vCO9noZvakpj2g+/ddjtPuULLjEFhC9VR6Cz1HdzrDT+KSFzY47oVTnObGIAHEDKrTppE2T1FjcVBWRk8UBw0Z/v6q3GBKXnFLNXCrRHQxNaHLut6giVOKtnh9D/2rkW5UV0JWkjYCGKwCRjKj2Tz/z95NXqMZiScTbI5VXEuOCd71tjJ4nK759lNQGgeKfYOggaEFoWdblJxVP95YpjWdSMJDQpmIpWA8GC3N7LaqMVg3SRSyHUc24b7iv3iauIKwh9yNhh9smHqCBr7doKQ9AWcJ162Fazkw6rTy2xnTv1hMXgiBRqEYp/AkEEdZabgOQyEGXf4triCt2J7X1bUNQc/PL++CeSWUKFdXgL/pOsFMzfY42Ain+gkGphQWiJ8gdvbizPMnmXi2RZ9z2AbH2nQFz1bLA5lOSESIcegzQjrJnWIq7E3Ad8uiwsZKwh/ytmN293tuSo3L60YLE5+qBvEZarZypLO2zAwc8Lb3eA0/rgh9gYHAkEKQq+KlExqa6eEey3bv4xrfwKEZ0NuqbioiLu8IPKy34fgTrVSUF/tYCQTckJpMkL7efXnzfEgUGHZIA9KyuqGZ9tCFp4G2/ghgP8rGQiBCEVWlwkgRMtwjEFJMOpGtzcrCH/u2UOVG4f6cU6EYA863Ft713bbgdKoSQnHnmLwtIDCLDT11EiCUPLYnizPLxjuOqSUfo3gXnOw+9wmFxR6qN69ji1A+39NCSZtNjMFaxrmbR9nSg0T1jYn1M0fG4j+eXsjIEzdS0tP6tfLvnXZYMsQ6OiwZSD0pdGlYFQGbRuqxVrHYJRXZVYQ/sSzm2BOnwSkQ6hdQp202r5gP8+uT2xntQ0dQoDgfRwuAZFbdFMQMghGDSd0njfvzLuyokRd+2OvBmgtNkxGRvCcT+iyqSAxBBF5oKwlHrTb9lY+BkBIadAnhU1NFyXCNUFSGLPBdiEnpSCsPBGSh/potJHeI5igsCYBagNDt/Nu87tA+Ms+SGCP4iUx0A4tQzs80zv5mCGposxb5EF/eCzS9PA9GBII2mcBCPPNeTIkKlzSxz3bIwZpc/CDr0almjK1Mkot7AsrS9wY0pJlVNUlqxW6rAMIy/IlZIPueCJMyDEonO8vGYFpaWUm2jH5TwvfzqQKU35qlEajdZ0AEc6FZd6V+n7uWZNugNpZ4mMfmvcmG7Q0yMNIQ4TYnziFeJRhcDk2HXFlikLQPWtwIMwEZASz+yyJ9O395uDHXo2N6/3z7fnMOLs2UW4Bjhg1N7WP6oLAhNIVZkYKwQBCuq9EtGsMDZbLJChSECqi8JaVZcLQOPWpqklCqBPjjxWEPxCEIMn9gn2DODcDS03bysrc0zQOCik9ECEiCInwdKJFGobDIXzjQSg+EUAYZpozNVHSFzRBWqv/Imn40VejMtihuoaa53tYkpUge6GEJDQYS6NgleaZUDZizzD49jzLNCGMohlCCrKe+w4IIxEuT6wlREgRCKVRpdYk8MefhdLb+GebtQ4MBE9KDS9JDAndhEiEJxaP5relLHHkcajH4eBmSBoetaWu11B9KZf9zj77aryCY66OmMCZbE2940GNvobQsU579OEWmBC4sE2IkKSE6KAYLkzTaWzSHMlBSJY3yMROJMKCMiFC0CWGsMu7gvARzp5NzEmU8QGGJga106LbFIHj2I9q6keeEN7D4XgXhclzx9GCcAmCrBRj4lEtMqOX2+7zr4aJMmX0h6crgrjFG87WrS3LIAAJD/qc0K/0aU1BWLUyzlTLhWpvm7Uno/0FghDUnaTIdolDRojF0RiNEiYs9tyifAXhzz27AUsmWBoMXQk7Ljr12z5FoIlFR9X1aTqY1mbCX06LLUSsqdLnksX5RMRJ8Ozvqhf8zj79asxK1KQJyWPR1Jql0b7FrtE1KSLRMqFHxKwJD84lX9zF0R9CeK3IMOguXAbt3x3bYlwkwpo5iMeZUb9GuILwQc6C82Q39tYcoj/B2Oi03fZEfmYMEDRv+t7BaMxYMACO/IUWa8ZQtMko1NzhrDOzrV2R64iW745rf/R6r3tqR8gNjVJ3B1+qIY7yGJEyJjRcOD+9PQEEjw6DlAlhJYqoAog0EtUEg6LxIKREqMkWISVCtsFPkbiHffoVhA901tnGu6MbtlyFzZdVYKq7Og1YAT0tAHEYr9PISjUBgjFAPeWhrGprtz+r79JgKM0IXpH5wvUa6o8OvYmnn84drBFwBJ4YktaYE1q8ibmdu85AUCIGEyJMhnRwTRitruGu2i8f7dAFKjpDJTtMTlADh2boGiH8kBWED7bZNJwmg6Kt94oZ2dYuLCpV6vm5moZIaSkCT+MwqTmnQsaR7HmT/RonpRuuZLhsNwirfpr4nX3tekGvhio53QlGOReWJUFptLjHFkUohNqxtLBTSyu+Ei14dQ7CCEN7axwIgQhLEeYIlomQ12UiDBvbnlhB+GhLFZ3d4+2pvnYMR4dBqaMHYQwrR9KiMBA04eppWCjWcPIcCQTdo2YlExpc1BMFeeqSVmS+cr3gDVyU1IGp5OaaxMQaexLkJKvOsHAUOwOYlRHxpTTUZuVOQQZ1CBMSIiQ8iCqHXOiUlEexPbHOqT3cWVUl9VDKgz1gsEMmzINRA1OwOqS6UWTAm7UuIgQnexs7VZfEpFovbw1aiXhXkZFhXPsr1WBVUFHDpNyJEEw9rEudUCT2CYnkfLpXRImQT8JmolGBDeGrMSSPRCisl6HWxBM0yDvFhDCqgdQo7vS6gvAhzbTdnCh3mrB/bCvgQQfCU54UOgiqbuoqd0BiNAF2rQ7GaTmPRCasVBG6BfBOa5cMJkTkwTKOa3/+eg0Gmc62j0iptV9qZK3vQNDlhA5mRHOeL7rHlFDnTMg39QMV6sauPvgZ81JX19aNwEn/D2H9iURvvw7tiW63Tmw/4tmDdb8e0rrosB06dZwNBj0T0tAS8GfucKv46jCfz7fb+dyFQk9lsGj38E+0O++PvUsKRwMMfAOi6NLdWFT6isyXhhOsI6hkjoDRYlqn8WiZsyBPFgGEyIQUgukSk4zBqBas2CISDJp7LQhDRtiEgtnVfBDBTHbRRFvSBZVhNzTqVQ5XED7e2TO06Hsmjt/3W+gbzsfu2D13jgmx4wAPc4bXyZBiqPbcLDi70+AYkSWEE1KhHeSMa+5LPkuIQQ3NwS9PCB0cBiV3xyVO79Tir7x7YM3Ue1GQnDBhwjg2ytuEmQMphaEDockItQ1420ZcrwGKhhZl4X1zChQbrtH9yX7bN+q8mk886FloGVovbTe8BqJMI8Do+Tgfn+dnVh0d+8Hx3+H2vgvs5uyA6FxFRxaJWiBOqpW0KrpAhDpgsPQL9F8EoaoukE85/7CE6zQnQfkOAOM+IfGioPHoOw0KjV0/QbW8yeyOYcIO1PCEFIDya13aBFDqlmJR1/vLZV/U3AjR/fLfrHv//4BJg5h5GlwyN1mdmW6a5vk4zzEnhPm1/gQMOL/ij7n7ky24z64FOTv6HMIENxzD5BVcqD8LwyHmg1rmWk6fut4wmhOYThJYUb/3YLbJCzUyC0cNRspGSq56hvu1QWGb5oRIgiIflwutwgba7Dd4VUoTjPqiFSwQWsQZXqxChAqWctwS2G5PiBCv//p37G8lxpsijft5MhA0PDgbMgQmPG3troXlx9tmt9t9NBkz97yeMVPsZvjBk41P20rJv/IgqODrfFz7k9e7UaKQERYsLUwOiWAMf5NpSgjK3A6EjURDzqws08RSLIajiXwiaZT4cHSGoMTEBzVoc+PAjqvJ1CYaNRQowXJDKQl0yLmw2PsW6grChz57msIBHHh0MDQBKaBntgR52+2+xkib19t5PpAJHXO0rc4kxxCKYOBZhTjs9k/Xe1NNjQPV8l7QibwniQ0ufXQcpAH7XuJFUaf6g7JhHk8xINW5kHCJg6wWhDsDQkgIa9+X8B8KoQwESLyAVhTQIeIwHRpdQfjAZ6fZ3QBx03G2ZGiTQoeew+Zfk0+fgJosp4WsB/d7gvQmwrAsW8+eh/n2+o+/d1ZFE5mQUltWAZWcAFPExnBU10EGP4tGowMoglDkMAzNykiFjU171bXQqirYP0ry0NfAT8Jroy0MPRXu93FodAXhLwDh5P7wVHh8rr7191oQXq92SlkzSXrPg+btCZ/1r991vTA12uR2L+8wYXCBz4JX960RStTck5MRIc0/KROmDcKUCR0I9zYh5DTYJC3Ci9WMMoANOGSaFisIfwMIgQqfAgy7Y7X5xt+7c0yoEp/ANnwvpbguND/+BYRXD8J7tU+Z1GYiX9JKTURho0286OZXmhyDTep1SOZiQlXGz6XqsK9hld48CK9+ppb60iPcsR5j6LCBSk0LmaIhQklesRWEjwzChAqfAIPm678BYSO4IL01kS/BpkwdXne7/wCEcokFZfyPVE9lSbNCPkajAYRFzoQ1N6Sn8ahONG2IbgYeDkaW32LXkkMQUWgdPC6XC7xYVW3okGlarCB84LN7WxVFKHouPP4HIGyvaFEWZDfNH1raOHTe7L5zAPLVImaJCWUIPlkuiKGkpGEpXWaSZQBhzaqjzJGeFWawGUhkpUoqLyUCCDulClqOkcyAN0AwfF0uVomjveivjhOtIPxxTBggCIUZy4Q2IP1eEFYOhCBvzdbNTZR3JZXQb7veWBxlIIwFUPQjLLF2I2XCjNREG0B4LQJBNXfqMrLkTJhbWvAF47K0IDwoP0+wZIJdUBQ6g1WDQ2GrZrsVhL8lJywmzoYTUOH3gnAGEGJKiDJHGId+9/Xu1b7Oa6OEa0p284+TYaCbEGGYmZESQbjUJVyORvXCQr8mdRkHwlcoGsd0EFcW6yQYRZtxS4cFfHqtIPwd4ahvEoYvw4ZHQ4dP3wvCm4IGBSzN4RaheVvHOPS7r/dV6f+xdy7KieNKGEaWBJaNxYQBm5qY7OT9X/KoW7du2WSqzplsHYQVkuGWpNjNx9/3jnsHi2qYUMjGjo7D6KYIAAAgAElEQVRLQnW8XtTM4BRsrMHJStjnIca95HnCopG/nLKY/EXYGHOH0iWpDU9MrCCYMUwcbhBWk6wHKYRLFkPH4dvPvwmhdwphsGYsWZPJDv2W4e276BOmsKe3PDVnj9wON4jPyNubCIQ9m/DCMxSk0GZVCFMJN7ZVeCX8AY1MAUGyd5B18g6lFLpLt/mE1Sjh6BUwieEbfBx//tX/we7d3jEXd3Ua2WOIb/e/FKb9OTpK7c4khNHkK6SQYxhbknKHoZEdV8Ke5SfSjkXeu7gUQq6EPjCj2i528IbkYI6/egoTgvmzafjk+w3C5w7MNNPoMUxi6MzRvwshSKFqB/QJdQ9rqn2HxLe9XkjWyzxwIuYCs9slkx+XiQwtF5J1+kYMA4Q5dxAXdS5mWzz0CZcPQJ4QN9ZwWzSZojwoM/jOpiG4iGzG2gbhEz969/A5OeyCIr5Nx7+uhDDlXc3AX99pkpf/ttd7CjtyqdenOYHek4v+nCYu5KIJMS6gz/5aHPBE+5gkG1hDSrXXCma8EkLt6F3FKoGEeAr9JAQjf8MQjdJ3y4aNVvgXWzF1/FHnE46/RgiQjkEJQQuPE0D4l39v6MkBSUzx0O96vc787TsOoGalKOnIHNpMVmlhV+oAYTvwqAn9IUwJNVs6s34jKuENZ1tQY7TnpmikkBukzZA6CTfpqwDCiTRSRCW8fQOE0FVxK+Kh3wYhCY8mvMJfefhTlxzFRXymKJqRDZajxqhJ0MOe5eoXKf4FeMxZxLK10yEkKHRZJsMDo0QJUQ3fe74WYIPwuZVwGiZnlA7EKzwep2+AMDz87/zppMiMlEwJOXwlRYv4aO64GHxNeI5eZodwhUHzMFdIHxCde0siLmERFiUpQgYgfHmf1WFzAquBcIhSOIZMoVPC7zBH/9VHWWSGFEUzBFciK8kmLatHNVHCJIV9+d2piUKv2580NAM+oYPQuYQyjBhlm194UIYFZhBCP2Rtg7AWJQQhvGeTFNKE07ND+GMNwi8YLMI4i7gMU0I0RDuiokWtuHmUJzTcRHVKeLrFutFy1vZjWxRpLJZUbRA+OYRBCZspn+Pb/bkh/JW6enlQJicZ4teuyDLIPBuKTqShSugnMhqZYjsr5igTQ/EgONO1itSs9XT1S8PS9CWHEBvdchJ1QUgcwpCu//nkEN6V7pY6SIqj0zB7pFAWWqgXA4GzEmpr3q/X98GejCy8STpWcSUqw+6DBgvoh/Au4cIaLQKjxXlv1WGDsC4IR2eOjkQHn18J/8FpFDkb3xcYpkWba9GZYh5GMkfxe4V4/w3n4zLcrJQ0LLO6fKasmaF3QtlCKBxlQtiwDGGzxPAdR3dvEFZnjg5BDI9YxV0RhEsh7DtCYUdGFkpZDCpN5miEUOj9bw/h5+cnUCj/XC4jCgoZhJ3vVyQjZagQrnmEjsHmv9pbvEH4fwshXAYqhJAqrA/CXCSTa6T7IuVeaBpN1g8tQqjtOTD4ARSexCKck/b9MgLZDtL0iIOwyBKSrRMpMLoihKZcXLxB+MwQOodwnELGfoh+YXVKGAjreb1M1/Wk9Kw0Rw0bzuYgbNwzbLBFUQhhXbaRxRQN8/jQDKIISshcQtJK/wWCGJc57DYI61JCzFDcs0dYmRIGp7BnLbM8NsrSFIsdMhHCXouP3/jx8fsTMTxZXdbKaFM2S6xXzEAXhYXBv1rn3fQ5QcgSFGVwdN4grEoJEUNmjdbpE3oZ5AUzKedOOyvyGG2yytCXrUnReBn88Ah+fr6d9KKbV3+lhaxwTQpUQkOCo7RcLfqDNDLzDpcNwtrM0fsUQ6QxTXGszycM1mgqGi1lkBbNLOrPYAy+gPEWYI0SGfT2KO26KIbIFEq4CMxoXWYoGroFzTfwAn/vxdkgrE8JeVzmOFUamAk+4YPyUVL5kqOccZF9M2NfBkAIEZnIIEJYrDM0X3qFjEMH4ewrR7VMHmGX+Yv0NdLOip/6IXwdJu/eJ8TwzEAwfLs/9+tdgbAomikpzMOa8lYXnRy5Bpdv93b4yKZohpD6kFztxBfpendd8ugoS08ggF1aktaecC+rP7/uL6MTLwBhWKPrlXBkgZnnh1CzkrUohqnULKYHowLmRZ8kk+C9OBy25r4KSQCE85Mo4TLwkqePruTu/XyLVLVGUvUeQDnHHcjjyLro184G4ZMrYfILiUV6rEIJNW0mpKMsei6KxcgZ1hqP2uasUd2BRtorh/BkDfMGCyUUXxZwG91nJUxxmQxge5pw9fH+pF4As5dWQs/fyGKjVZijeWaMXniHRbHosv6TJxbQGoWfYjvG4NtJGF3YokWeXjAtLNSwK5UQJoraoH9x4fFlhIk8G4TVvuBbXGo9sfLRSpQwzPNdJVF+wWB5cP62Hw9sp0/qEUYh1Hz74GL89qM2CjJqre+bMOLeA4grjnFdOQ4Y3SCsGsKlMerUcFeDEvpho2nQWp659mAEMB9j79e54EAmq2zvAzCGUOgYFGHrIFvCS83RUgi5oRohBAYHP1W7nZwF6gC8IoGwdXxaLmrdIKxOCWOElCjhz6eHUDaa7JWQbBmMjjFQ2kNYFJ4Jslapgf2BgVBhzRRtUSuIuOkH/IkvSriTEnYDbh/0BI7IoEcwCuEGYf3maNHJVIESqr6Raxt5Jd2DRjfAyBzjLLcL9nlvEmjhfHs7vp1OsxV5pq9ZRGREJvGhdRog7AacxXpDDYSTGByv55uftL1BWDOEUzBIB0Li8e3JR6wf7rDjvdd/OMuN9glBP68f/4USz54m5a2dYbHbw5y8SB9pZ3YhlyJDqPvBOAJP4/l8JScao5ewfWmD8PWU8Nn3HBx2rUKT9NExK1t7KUMiY9i1aWdLDsKIxwRmIzRszF5uC/VP04Nqh0YwEUwEBmP0pA4bhJVDeB3v2SWsRwnhDieGtsnteWyXmVxbo50tUSHIJkUjofWWrNr9ujgtqWj47gxi4TvqTrdq7j2C1/IggtfL1S8M2CCsG8IUmWHjLSrY+HPYpUrLVrVzOMGSLDDMK+WN4FsUhdAWKjxJS65e2J7cBywwFGKphMIh2IeSmDUEI4bntP9sg7BuCMtGihrMUbwP9jzgZDQbCGznto1gdoVpagoEbVpmOiutHxSeCUEdwEShSP4kvUoSj10nE4KXoHoofO4WsUvPU1zbsUFYuxIW+YmpDiXchT2FUJuWd+t607SxGO80af9ZsjEjgY5Bi1+FMxj7B8GXBWhLFcximGrVutAUMZ1v7jMjiBRSBi/7vAh0g/AlzNG6fEK8U7WNocsh0hDDbo6P5CYkCS6jxP1t1gNoPT7OGmUYBQ2kbiNBcP34Z8DvwPWo7nO8IHFjSgiiEHoML/7W/pYXgb4chC/zNsOVcGQ+YQ2v9wcanUabYo6ogzBUTudiM3DRnOdoja+uMaCEgKKzG61OOXfB6WOYRdbWH8sSOJvuvVVn/C+fCfQIBoMUOTyfyWTDTfoqh3BaGKRP3tS7S9nC3BSRWQQIW4QwxlrwLjXbOXqMDkYBVTXBGk0WZY6+6Nj4lEzYr44j0G8In23f9fDL1AUBLIQQLunsT2So2gbhSylhBZ318dGw88iwGaLwbwcTlnLNtca2Iu0nbAubOmlnoE61fY6tRK3Ts2ox4mqtCZ1IAckVAh2vXgK1s3dNKIS7JCEcszuInRMI47j/uKrbYbdB+BoQToPnMFMIXRRVvF50Co2J63Oj7OlOGUmSfpigUNIDZIJB6mBUGBu12te8JASNvxvCrWTiBNiyWEcjcoAVPozwEihBAsPxEPp3wPG6IoTnVu3ZrPsNwpdQwgrNUecUNtkUNTlI06uy+0hajIFmdhxrvbJQNyqTu5c51HPbYB04hnIwCRKBtIbnOAwoKjyNnBUljEIYILzgVvENwteBkCnhcapHCSFTuJi9C5FQ1ROHMAzi7ZiEuYt2Iqi9NUptUfy0SmZ704snmqRdgjBi6CS2j/Wj8RcSJQwUXiiD0E7vhPDHYTNHXygwU2QoqlFCdArJmqRwzclepw2jsGvnPoQ2bRBDKxXERmfNkxDhqtKrIZjePz8ACD9K4j10Ir7xgRkPYI7LRArPcDnvPyalMEh9WDkbhPUpIStcq8gnPISKs2L4J0BYDH2BUI0w1JcDfGzXKm1oLjA+R6plNsIQCLM56u6RKc2oiRJeWY4CAjNJCM9wPs5A4WF3P3k799c/G4RVm6NFnrAWCP9RdqDuWOAObE/DtNF5iUITcxQxBAhDgsJQCg1CaFdTE7KdZVF7OuOPoHNMo08YMQxKmAkMFH606v4D5l1M1+t0c07nbbdBWGl0NDRSeAqPU0U+IeYZrIBh2zK0D3kHcO7KhlwleVzGeiVECM2yKCYrHq3ShrBpCaFzH3tB3gJ0hPDKIjPZKQwIurN3FLaOxf0ebuzPo4rDDzcIazdHnRTWAeEvZbWPWs6QIuiiKIIDyMdNSCSFpRZACecmKWE2Rk02MleUcA65fZKoV6mRaamE14USRgYRvA+lzvtY1e0cxatSuw3Ces1RhmEdEMKkQtiAZnz63ZGooUBUd+gqanLpMzs2RWYyhITBpHgUttTOtAKh49WyofpcCcfxyoTQM7iHy977hfszDl/zfRVYRrNBWG2KIk3gdpdfNUB4U1qGefNQLBYWOjgSB1xJRkf1dvPcszYmi34fU0LaLGiCp0eCpsFXLCE0/2HvXLvbxIEw3AhZwSIKPRzAnNil/P9fudLoNiOJdPfbigqnThxIXJ/66Tv3AdFEYSGTrPQpCj/UKWQJgykqrBRO+8JHgbvuYRRwg7BFR+t4vT80Q2TzgxbFztWHop1LITh6v0djFD4ChNgndI9ukCiELsE3PNvpZu1afNMe6BARhHvVh8BMzNVjh1AYF9BSOPJlQg1OsyD5wwbhFZUQGLyEEvZ8SOdQ3G6dZGy4f3Zkd8Tt3vGhu906vH/eTFnD5iid33S/Q6rR9/LGZ3jjQwQWTtmESJyOMTB5d+boEjMUWAmFu1ketVs4o5kX85Iuy25bmao+GyHMfMLaX+/7LzNjvrSa7OY3L5HKUXT4ORh3B+E9pdDcaZn8NC3ypkwGTQuGGtSAJnyYyKt/rm5ggzWLpxCTya1Ro4NwwIPVtP7GuTOLyPfDNGG8BISZT1g9hGZYKNkogUesod5CIPNNe4q2CBTqskNLkzdH0QBDp3t+PoXh9Q7hn8HKq62Uw0NlBu4E1xDYm1LS54vPC+2hIFEZEc3RGaTQImivnjbeILwWhKR61Ath/UqohdBVrKGyUTfiMJ3xBJ1MscbUrYboOhaUkE4ztN8wKniLhds99CBqY5dn2yykicxoArtPaI9irJOf/DGHSdvBI4zZCauDlkIthesEl7izS4PwkkoYOgo/7K1+JbRCiPt2/ZjRLlkzj7a40NLr7hV9wsJQe3AxYbPn0N1DE+KLZxMRWf9SdrLT68bsYHBm1G2NJiYooTdGiTVqunuNVzjN6zb2sDDt0SC8uhK6wEzdr/f9i78NuGvXI5jtgCGDt+8hPQF3nwAhnVf4hg1ch7j5vbDqerhrsbt1/pwzgocX/7QESv+E7MWXGQ35XWiK0Amhw1BsfJ6hgHTcNhDetqn3soGZuKm3fgjd+og7GbWd70LryPTtvCJb9qVRa/f76WB9Ke0GJ+x4dm+awC4SqI+B8XGiCM4hRRiOyUrhNHNTN7rYB9O0bCmGDcJrKCGeO1o9hMYjlMnIe2DQLwgdylsJs86IoU+VMIZ5yofLfxBr12QlOroBw2QKfbQlVUJBMQR71K6qsJfryza3oqJBeMXo6DV8QihYoxLltvTGI4LoBLFE4ZApYcKf3ykTbdviiH0SmTVPKTf+mGnhaIlBYZ3CjU/ReIUI6cx5g/A6EC4X9Al/w2pd8q63Epgd34mhbbgfUHXbLQnxxFsXH0cwT1ZBweVPSDygxvoQ/BSZEk4rX2efKnTKaUbQNAibT/j/PfuTsyEsrL8RETQJPb8YBskhphAlBaWFEE8OjnrXdYRCfHMXnFGoD/XiC4qPeiUUmRIChdaDXDGFE/9qEDaf8H979gd/qVuyFNvKoGmi8H9SObQU0uUtVglLGOX7tuN9MHIDqYkO6kMOGqzQ1BuUUCRKKJxT2E9LZNBuTVt5g/CaSmgLZipP1o9cSooIAIhWUngWEYVoXT1a4/nCm2O8jGVhVgwg/uQE0nmdWJe1FHKeBmYyaxTsUS2R2vaMcZlgkMYQaYPwEj4h7qP4qH0XhRZCDCAwSBFEMBIMaaL9djMQ+oXatxP4/nggTzFq6MC0FM5xvoWjUBSkEIZxz8tCSmxMU9PPBuHlzNGohHVD+MU7SUVwcIuZYGmoZAUOo2N4i0Vud5NUl93tlskd1LXRGCtm3qVCUtuUXDU8e47HWxTN0ZiuX+Yl1HtbDJE92iC8XBdF7UrIufI4wDDQoIPMImhv2DC1GPogKQrAaAhZgtiQB1n9d/2zBT6HE1sVLmaS90QKTbF2xiAYpOJhC2xI0fe1IfxraoLOlbDipl4thDfWWW0bBqeEEUG/PZuQSP3CMDU/gzADsENfdI675JrcPPUXPF/cjR7F5qgoeYUrKKHlzzuP+yPMyW/SVzeE61ryCWuGUAuhZ6FDpmjgL5CITVO/yj7JKqje/LJyipGy2J2eSizTQGnHmJVCbI8WpdA0UjhzFAq53ZLf/qtBeDElDBUzdY+3MBVraqCK5HUQHxIpoouT+rx9h7J5BkJ8WOtVuh+RRe5o5NULpic5/q2MFD7mkK8/V8LJmqOGwIcp4O7HbdtMRfeXX0rcILyCEgKGV1BCJ4T4De+FMMEw4BijpDGE4ihUnEAoA4VDSHIkLIZzgzuZ+o7oSqb8YphcCXeM4W76KLRRagh8LL6yZnp4DBuEl1BCVDtatRLaodv4He9iMicAOjW0FLoQKcpGRAhlIckxJBR6iYxXDlKemKlwjZPCZflOCQVMexLaJNUEzlOY+WT2VawcBs40CCtXwiUtW6taCd+1/SgH6qLltuipFiZlL4OG8BkJLKcaTxKQpWwkIdD812CkkJqjRYN077nQVugyoeGHUGQjxGi2xjQILxMdXcMA7mqV0FSsPQvv9wicOscwDWbqRwCh/DeUIRyZdUFj0MdJphXMaKoaKfzk23zmE+5BC3cTiJlFiqCh8Nj47/cG4WWio1EJqx15+D5yxhLViaFRBQjCvUp49BR2AUP4WcX7Z2qHOr5YWQvjOZyMpAEdZNo+rRQuYYZM6hDCQw3htk8LYdCNpZk0hU0JL6WEH04Jq507+ichjOQRDINk0XyDhvD1JIQFiaMYSkwd8jfpNah+PEAYvMIzn9AgqUnd0TB8vDtmno6eNwhrhtAGyDOfsFYI3zcu2RmECmtgQFCFVEWaV7DhSw+hS+/HihtGJdF+iQoBWDjNMqM1Sqd+hn5GkZmCT3jMfDx2O/MJdsPMdHOFEOnMmQZhXRAuZZ+wVgi1C0dIklmOUHnuEoM0hlAkSi4ygNCz5vL77tcF+gJsjCWJkKCa8dencZyn7yuckTmKTVKtg9thPs1TYBAvt4cERoPwCkp4CZ/w/RcfVKpmyED0Skg00ZIogxZKFApVkn+qIIGhyiaRwiCDklYCSPR7T8OpmvNxjj5hboseWge1V7gZt9CRh3f6mtt+vblPf6kSghB6n3CrE0InhJIkziX2BhVD8BXcQsqIGvhdYeJIhjFao9/mP5Ja8VQRYRp3QQm9Mfrgx76brl7BnUUaEXQgplLYIKwMwjXm62tXQi2Ebyr163IhjGqYcJiEWvQD1fFOYRMUeXvhTrLzapw8kiqR1MJnJs3IJxqZQdHRg68aQnN3jOM+UQQnC+I0NwivoIRoK1O1Smgq1lisF5PBFpVECFMKFZIsGmeR6qbt2wCZZAUlDHaoPCGwYI9KlCk0EVg+nSbr95kb/LRXaAIws5gmb4N6JTQ/l4RmrgDh38MkQFiKjm41vqIf/PMZQpwxvBLxUCxxBlUSIQ0pCAeXuvNCdl/Sjz/IIPP5e5wGibVuUMYNfUppjgLk8NiMNcrN3nr4GrZpJwzOs+i390u/Y68OIZXCD6+EFb6in14I/ftbUmM0cQdR6p74b8gBfH5ypb7x9jJDVJ2IZQy8IqF21TPKjHw6U8KjH4996Q8onNGm6T5hLQwQbn2DsGIIY3gUdVFUCeEPl9Pzb++CEKJ4aOIg0vx6+AkPoSyXftNDkU+l2GjW/ARAmqqZmVTMYJfwcezreFhtXPnuZuVjBhcz/qJBWOvZkeQJ/eTfSpVw06ZjkBtcJV0oWVMJhXmbIRzaUlRKnrh8MSdPlTZRQuoFuv8hPIBwxwZN4VRO1gOEVglBFx9BCp09ColD8WgQ1quEdpBevp+wRgitEIb3ts9PZDVrKlTPkEpSrF4+WqohfLL/dqhibkJi+gbss5qbAgqJEu7IHBXOJ9TfnfguEiU0m7YbhDUr4bQk1qjzCcf6XtEXCKFE3bSpEKrcCFXUJ0zy7Q5CedaJiBVSUfcyLVcLBnIOoqNwmorm6MYPcYyjl0L9lV/VhIrYmjlaOYTFXRQVQsg1L8Tsk37MYSaECkkhCc7IBMVnX1bCUkxU5elBGpD55jClOXwSuTlq+if2fQejFCA8+BQ3pi2eQtH/bBBeRgk/nBTWB+Evk1anDKJqGRIKpRieSSFAyM/MUcn+kJtA7byJIZr32A9WC2GeDKFw38fZVI4aFufj0N4h74XNFQaPECDkXw3CupVwWTMM64PQC2Gig5ZDhbuXCgymeYpvIYzlo4kOqpIKyj/KoBVKxTjk4mlb72M9VuMQ7sfDjlhbnU84i3lDDRX84u/YyythGpap0hz9bRP1KBFHOwmR8Znk7FUSHZUo8Pnk/fM0QZiUkyqWV6Gmo57QaNJ0QKnxPzdBuyj2ZTWmaG9M0ePQ/1bTsbuR3Ps6gj1qt1LQuEyDsFYltG0UH7UqYZ8LYRYbTYrV9E1RmxS3SMDDp4m4JnanTDIU+aQMP0UxHbfWhT9dOjvYMrijjfVuuAy4hRs4hNo3tAjqr5Z+NG6ha7EXfGsQXig6aoWwNghDoj41RrEMkgYKbIgiLZSMFIpaCCU7a2TKh5nS0TIoGhoXVAwFJfQMllrrj4nz/QjthZrEjfOHsAjCPPwH/9HM0atFRx8ffWUQbiapThIUMp27Te1QlTqFmalpPpSDUEoUEvVXlNqbAoO4bIcsrCDGaBjtbRksr4QRx875qO1Rc+yzmb/9EMImCEEKp0QIG4RXiI7WZ44GIaQMUo9Q0UQ9NUUVismETiUHIRouw1D/kq8zLaUlUkMU3SiGXgdHx2Bpysx+mJmjvHfj75ddxMjokiYJG4Q1Q1ivEr5/caloNFIOxBwl7bxIC1Xa2kuaBTWEn8980Fp2y0u1qTvYBXMUfSAMDYNiCmtCSybpMW3jOP7D3rkut20DUVgEQYsEAkqjkWyNQVfv/5bF4roLgE5/FiKoTJq0cWzN+OvZ69nn82Hi0Y8wKhOOM/28IYRvTB39r6g6iq8ymWdua58wNepTX47EomSVt9RBlS0A+rVCxcDdQlRM1bC5U/J/2kUwYZcpocVQAYMWwZ2TMNZ61AajUJrxHUIvhCYYzc3WuvQ1B6GTwuTz9OWUsKV39MMXTZoCWW20vj6BhJBOnLGwAKhGvii5Y9GUloDTpDarhqIxDk0XRLEQBgaREt6IC/7HzU/JoJnRR/A//LgUtqMdwvaU8EG2KFpUQiuELK4KZSmhYqwyL4pe2UIhUroJckKJZz+T9UX2q0hu9QwMom/M0sPE4A2Fo7eEH6EwzG2HhPD2BcFoh7B5JSwGZmBsraF3dEqZm6Sl0VwJs8ZEJFMxVbHrlcIA4s/LpHYDFkRWc+TGIzK0JIpPaYcXW4DBZObrMLwVClgw6JqEd37pB2HeRQmzPmFTHjNXrlUSwkRhOVZWSQhVZbc+HqaAgy2ZmzDe2ReiEMSsKyEpfyQ39ELI+S14iXoGI4J1AAOCdlZm5v002vsoIW1StAQh9CdYmFEp93lVbmaRp4QqKiEjXT4gCOaq4cpTvHI9ukOhFUFECaHA5wjHXAlHpISjWvnz9iBOorUn85RxnjS2O3HqEL5FdfSBD/U6KWwJwu/UqEcmLrQ2uju7rcqaDFazUQ18VuhQkzDEws4DuXBWLO/iW9mpLFPURp0Q/nN/JFf7e0mf4w/LYNRBuMjUG4PvVphpMRx1mw4oGxP5Pi8jpyewDOZNiohRVC6TFm4KzoaOwB+b1o1zvgUDGyn2MSw79CWG5m/nzw9kbX8jYljYqoW9iaCDr34u+436hKRV31RhBhYJmSAMisx4uxjc3pFCfJnJS98EWjXBH5DT5kdWtm2T5AxwZidaaQ9GCmmDQjD+PPnCzANb29+Sr2+NQKuG7j5oh/CNlBCVZtpSwtifQCvsInPeru3U08KM49A5Y8cThXA4e5ImLVy2zfE3b4OAloYnSsqiNhMOZIfJUKyGCMTYpn+dX3z+uD2ItTaxcqIEehV83G9zZLBD+CbVUXKyviElhEVCxrKJtewCRc39Hq8yhclRQRH0Dxuc/q2DBEztv3dXRMdaXkj7g/UhmdCekNBgOJ/cFd4MQ/oQEYT+4N1dq+8Qvk91NB5l8iC2A+GMhZAWR+nE2m/RqErRaLhb757F/JAGwg1chcdpMQ8g6CgcdwLSnantYlxNqtmCBE2Wr18pfKTGoFuc+Pji1/P51CF8r+poMuD+05ISxv5EObst6itMJBItMkIHYSAQoFvGFSoxy2BewCC8nBaSlqHMOvV4VK36kqNagjWMSWzn28e9+jxQW9D/dLvPdGi7Q/gufUI0OtoOhE9rkU19BatC+EtdBkWjXggTgeaRG79yOQwBQ8fghKVQ4nvY5QJTTQYhI+RxBwlCUrskSK6e+RlRJII2EjUyiELRDmH7EH6SnDBt1jfyjnIhzI4SKvqjqMmkQRqUELSlNnkAACAASURBVFoVjM8gt9lCaBhMaghSKCsBKZpZq6wP4oX6UQjkkQZVXv758bGLYKiJWgR/zm+/xXscJvPZ0T+Nua2Z71wRCcqX6iut+r/2JwKEXgcHeMb5+rQQJgwnFJDGQ/RZZcZOy9ARtVAZ9Q0OBXkdektPg+Ht4/ZLQeZ+uxkEn++4NnFcYYw54Ve2T9gOhFqx5O+5s8VUbxWiCW4WljACgw5BeA2D5JcAoQUxRqRe0wiA2fB2LoAj9ndSG95CMr88XThXd9ihyLNBS6HJGg2nl9P5QMHaoZQQD3A3pYR7Qlg5h/bfhDDo4LB46kb+/OZjZNBh6CkMDOLpmT1bC+8ok9ydGOP05oedweNX9vjwIIauINwBvT2eMzcB7Pl86hC+GYSf2VWm1pQwM3jK5kap5XZlYq2syoRYNEC4jvwbIFwThqFTMWadQpmNzGTOTsWjNxSQhrf5uoKPzOfjjtZ6748vI5L88jqf3/578pjh6KNxJRSsPECRXyXcm5QhShiEcArZYFDCb6+Ea4xIfWnGD83giFQWy0yoHkpBFFrxFJCiN3r6vtrxnHm+mMcNy11/TvQPdQjfKiekh3q/GlNCVlNCrIN/aU8wNCyTMkKXD67wGvmPhZBKYV6ZSZ2K0toi0YhvwGi1bEbdau/X/v71/bxcr9fL8+d1qv2BDuHbKqGbW5sbg3D3FJP6vVFYCOE4kVgUyJsshKtDMqOQKKGMTjR53JkjCASuoHCGwtdRQOoQ7ueE1GLmT1O3KJIS1hhUeHC0Fo0qvMGUyjIxGrVCOCz8ZSFcV1whNQGpb9eTWBRPz8nC7N4XZLSagMB5UnqJXmkdwsNXR7N9wrldCAvX330UaTiKolErhKvHcOCvHwPh6pkMbQpQwrTQJNHcmsAN+/xhSo+wkjEvCroreoTOe8fs8NXRx2e+TtgahHLnBAX729y2ysdGsRAa7TPULSs//VglpFlhDEeJEMqa31p6lGYrlFlWQ6D7GL3xjllXws/MgbtFJazcYlLVjDCLSJGrRYpGfULoskDzg5+/+bSuK+LQ1UfjKQm6RkGuYxMRVItNBFWYMDCfWCk+d8y6ElZywgaVsDC//yUOdVOjqlaWQf0JQHAFJbQQDiutzMStQhkbhLFpLysnsk0mCCI4j4hAe/nJB6QdwsNXR/FifXPhqMzj0cLYouwP4j3CrDbqlBCEEDCctqCECUNfHh1RpxCPzPgKadrqgHKo3EIYGr5G/2VqN73WITx6dZTkhK0pocTuMrm/k/0HOUSYVUajECYIcUq4LgbCH6uEOCl0EE50eFSiEinxvFF6gkzQimCo3ya91rZC2iE8KoT32kGYtpRQh56AqHvL0CC0Wh4tOvWhLgrh6OQhdAyulXA0abBEBdI0UKpsHLoxrfAhixQza0XW5DuE56NdZapcRmvoFsXLRHha/WJ0mM2M/lYalVQIV6+E074STjsWF3irySNo4lBWjtT5L8Lo5Pe5S98x33AxMfMnKWEb7+jbRXlM1u7A1JSw2ies1GXWISihD0cHlBO6TQrkcSElqsmQGTZXjVljMUbQK9v2EIZSeg3dwg7hESH8/Pys3KJo5ioTtw4wSonYKci9ZXbnZVAsGpuEE52WseHo7CHEUkiVkPQocbMC6OJ8QQji276pPqT0FsfXOoRHVcIvvMr01RKEm2azqzoyH5Aylh+dqJpuK1XUZUoIIRzlQQkRg6EyE5QQp4CRQaUHh2BNA7EDHGjhnFHYITxcTpiXR1uB8GJUkNnv9XkdDYiK5bYW9Ug0+TsJYi6TRtaSEgYIh6JFgZSQbhXCT0xLF4iKWjnGA5iWGjWnxz47hIdSQuox05QSvjhnJh9UyhtkbyYA1IoenfhlfLtsUEyoNhqV8Go+D1VCFI5GKcyEUMPXFBBkqC0o8ljUfS1ac6KFHcIjVkdRq74ZCB2DdiBMSQ8iKGIO4s5NQqeErNolDEo4TPxiIIxc5huFcW6NzJDaZHCDiqhHUIS79sXNxPh1ao6rMx3C44WjTeaE33xS/viD+SY37Il19oqoE4iF2W+5xiSzNaY1vVZw6H3xdQkIrhUIRbZfr4X5Iphm6JA2E9nZ0vyEqdHCDVHYITyeEqbx7XaU8OQuyiOXNQCReRDXAGJWk9kd3s4GR31KOCxgdg0Q4j2KZSFza2h2DZrzuohEKxlh8diPe3YID9+iaEoJOVcsdgdif0IBe4uNTWFr1vwG1UDo2AwrTH/xvIzr1Q8DyBPf/AR3UZhJMzMSyeCsFLnW5AEUKCkU+OUjVSgxdQgPnBPia9lNOHD/8FUlgzNqsgbsrS4ylU4Qd3bqSwjxUv2KISRKmCa4kxRaNYR5bD7ptCgRexPC6y7LrtzjBwB+dQgPPjHTkA0+51rsWcvAIIqBb3SCuECpxrbjiuu8InPejv5OoUMxrEBFRQmnojxqR7WV+XyhLREywbA1IVKZpjws6v5/Ah//3SE8ZDhKBmbaOAhz5ULhWJSarPlBlCiIi0kWQyhaGd7OotEQjA4RwuhvQW24R9IplOBWAfcSsdIxr4QJSooefYRV0lOH8LjV0YaU8GWrMjLGo0JkCxR+bQlAtN0LCErLi2jlHZi4U0+UMPpblEqIOoXQmGCanO5llL2KKSI5HQN/CeP08FmH8Gh9wlaUkPudepwSVu8ROg5tvVJHBMk+L7HezobWYH77BZM5E7W3qOSENh3EFRlRJn+SHPIdw1FguMw9ggy6kNmEpNfzwSE8DpOXe+7924r575OPiuZTuRDiEVHDobKdO5VWmqrHmFCbcI2L9aezW63PxtaiEo7BQobDJKvYfegd7Ygf8CfgC5LT6gcOOJ/7UsWRICxmR1tY6nUtQlmz3Y5uFvgmGtRLYYbFxaTZLqFIl0HJNmHcZDqnXabk9LRMpDAjQb8GvYNfAhDTF/gTiL4rGG4Xt886hAeDsAWjp9giTHOblZV6auuk9QzNA82qNyh8OEr9Zfxi/TnfZUoLhRFD0MFJZ4sUlEAcfVrXUqjXTNvs517nOMF9RMyODWHRq28gHIUWoUTOgtTxN8sLVdoXGqGNrvNxGZHVZfD4tofQDo+msTV8Hs1d/gQGpSoIJMdhiAKaT70E/dvWSQg1knJMh/BwSviFMfz/h6PQIszK+yJfJcROa87dCSo0oUCTiqMhGh1dXWYh8zIhHH3xNEGDksIxlGYcg1LuIogJNApoBDDwB7+T8MlZOmHfITxwOBqV8P8N4ZUzVZrrFlv12Osw9CWg/s+FRlIoYzSKlTCtE1oI3fDoSnLCoITmo9lkYlElsdNTcv+N9U8XgzLmZur4DPonRn8WeFnkwF/nDuHhw9E2bPB9ixDdwi3royQ1xCMyoUBT6VCQXr1D0Cjhv+yd627cuBKETVKERdKSAyw2MWwFfv+3PGpeuqspTc7+1EScZJNsdhPPAPNN9bV6ztOcdW5t5VUmA+GoW7ZdX6scJzwM0xLBSmC0yWxNAGNi/krv307zgHCEo3yz/tIQ5qqMvMGTuh3f7yr0uSEXaBZBMDnXr/SyFHqAEJRQTXC7GMtmY4SzMCoIdZnAWKZ3SAFd3uHP/xiWQuqGDAhvq4RqdvTiSkhbhPwW5/e5dh5Ui3pd895mK17qqve+v2p+uz5c2WuYZq+qoyoc3aVwj3KXZmzBkajjONfvGrgWCXSkgCWeLZdIGUMXp48B4a2VEIXwyhBSixAzLaAQDNfQS2KxcJx+KbPde1BYZ1sgJ+RFprWWZarP02sdHj3eZeKZmcXT08KjTFiJseUW0xZIAht4RU+NKGGIuxQOCG8IIR5levv1BEqYg1GO8Xx5AIeoh9Ee3SSqr9KucF8LTI6qZn11tgAlnMsE93pSmCnR8I51sm2UlXuCJRHMlZjNxOhZ+BqABin0afp8HRDetzr6LEpILcL8DmcADxjCrTLbDbKBmYSZ5i+rldDrld5qtjaXgqzrU8IAbUJy2t6plsWIhmCyMZ8ENYk0sMafrbRTIWQKsUsxILyhEgKGl1bCXQiFmVJezPsMBxAfOg1aPoZU3DGEGC8XmaQwQ3ciaFbVQzgaTia497+PuhTQlqBMMPcD9zzQhcDBZ8PQCIatNOO5YT8gvGtO+Hb56ug7bRG2wguauLTyyhmHZyZLsVHIf7DvE67seJirQUENjx73CXcpnBXUexyaDVF96UXUJLAOvaEQNgpVw35AeNfq6OWV8HuajHVhXbdtmqc6dTnP27atJtAoSuYrOfQiPJHEYjrxNdP020k4Ws9QVCV8L1Fwnls788Fv/ZFlqwaMBcFSjNlcDUNrMUf4g2/MYIhra9jfHcLbvP4dQhHCnyCElzV6mv7vY6NBTBqPibwli5WaCDYv9msq3Q7XKaHBiZmJdivZedToZj0aPS2pMJ0/AQqCa63F6FzQ1PZg46/GthRc71L4e0jfrV4wQai3KGRi5prP+cf08fv39/fLHh7CbU7yDDWkjpuwuOdhhcSUDtfLmvc9bR+1Y/WlzCP36qVF8VEgJOdR0y31euGcskIqzWQIY7nFFFNrx6sgtLXoFYnVMMO2TcIB4R2VUJVH52s+Z/41jY/ie7ds5pXkkJcTaDisSWLSh1sqhXtaCJtM/diaKQbcGcLPav9rzo7WVwr3v22hLxaXMFHYnAKkgjr+FP5q1768jF0Jt2lAeFMlbNVRVsKLv6LXaYsQyike856eM2sbk07LghyWNkJ1q6daqzjMCIVieRhy627PCTew/8WrTGzBnXb589ZRWLqrYEEQwlCjc0B+2kbqMvv35Ifl4U2V8LBPOF97iJGiQxcePnZFySSmuq+w+aU2+JMDf8Jk7bQtMF0GCBox4P4s4WgxPYSpNQ0h+X9bsrfIh2BsHc42UhQVAEEDDZPYei22mnAPCG8H4SEnvPYr2oXJ+XBUlaYo9UF7Q6ko4hbsEp3yrU9pMZNZ1MCMgZGZ2pKoQyzK/jf057LzQQwSVprR3qKtz8H0fQmt3CZ0WWFtUgwIR074dn0I93d7UCLSY+hLtTHkBb7iAbzroU1qroaaCrzS6/TUGrrgl6/oOCOEDkWCnDCVC21pcTWwZSFE/cS9iaD6hPmZ7xS/DAhvrIR8sv76EG4x/KdHAbFOrpBG1cFqgqelhLLwdzyWbVaB0PQu+Opcdp6a8dTz8MCgwaYGiyjyp4SQPjRKk2JAOJTw0q+IFt1TOOpKeBCW5jWhooeb26PSOvEZ454SOgdTa155zOS6TO2ev86TVzqoIGQr7T0rtJVBQRDro/phOi3M9dEyHTAgvFN19OfzVUf3lDC4k7fznx+uLtWGgmFyyzo526oybZ9QHQk1AuHHFMLD02i8vkTa2iRVC2H9U6okc5LT+lCbFAPCWynhvz97w8PLQ/g+ddYQZ+mhOfzaJxtmwXCZpxadei/oGLwIwxB+Tqt/rIRtbnvPCqNkhAYwNHpxSbXrpThKTYp1QHjv6uivp8gJ6Ux2nfPqhNBA1REDPo4EU4lKPa1ikGw5Kcvozfp2p3edmvhSj+J4s567hFkJY5jWeBRCEMSuL9HXZbwfEN40HD1Rwkv3Caku47usT2mewXacMEhvcpcx3OikU04JlRA2y0M5lg0QOkFQT62l5r/oUpxmW2kGJVxVfSbg+Br+kKVwQDhmR59ACckP24VCzRmHiJ7kY4aLpbsazuS4tk7BOlwP7t3WymW0Nh5A5dFusd518WhWV+t90JUZ0zGonqr+zRGO3r46+hw54evHlHIdxZ+roTDIGGLaRSHfYmgDqqWE3vUMtjUKE5rtyw6hRwQPOWGZQd2TQteSQh4G7zHkxNCo3NXn6mjKt9huD+F9Xj+Eo11OeOlXlNXG+yDfDgGpLA/JLl8L+OhhLaWGS0XwweSoad6/5YuaoCxmgu8GcHJS6LlJIUIIk9/mpHqkldBHOhI6lnrvBKE24H57Bt/R1/I+ryEkc+gPQZ7ByWmORwuGbtlTQgvBKESQwqBBCMsyU38ZLemksDQpwqE2sz6IR7vRUZLpRNcJB4S3gxBt8C+vhN+5AtkIPMHQ6LoI+Lj40PxoPAWO0TchDL0SynlChlBGuGGLoutRcJMCe46dEJpOB2G3Pj87u5az9QPC24Sj/2avtefxHSW/FwdOa0HkkDE0WJWBt3nVmqKEe1DbCyEXR9nqSSD8hh7F4WS9xKM21I8IzDAf1mXOJl7z58P3gPC24ehT3CesKWHFr6V5OjeEYU2dcrEzm53mRcxLw2mXEJWw3a3H84RqZKaabts6NONP6qOdo0yXzHLC6toqxYDwXoWZJ1JCSgldr4QYkqoapDm+yfPmr5tW6/1JSijdCXOEUJdHj0qYaA5ncdz7VxOkelT7pLJbX46PaXofEN4sHP35TJd6XyYTgR5h8bxTqPYpWAfJRyIlzy7eFQipo1QU6z0YenxMznQO3BVCh9fo94zOWKy3BtWcgAG1Ex1sz8+uzfBpQHiXcLS3Hb00hL+JHtenhIChebBtL/lgSQkX6E54VRsFJZxm+bqH4VFlcirx6Lw4BeFhmze0qFhQ9CpjpbTwZUB40z7hEyjhPFmnlDD4Y06o3/KSbZUfyJmXU0J/CB3lZL1xxfu3VGYCK2GD0LukzWtotbcOAUhi2Nry3dNpgTQHpx7C5S4tHBDeqE/4BEqYU0KHfcL2/Wx8Rt7X1Sm//FmatLYeyjIAoSzWm1VBaPpG4UlOmJw1ZRwO6O6WrTzzBk/cawqjq2YzA8KbKOFhbu3CEO5RYfTukBNyofRxopVPzPvilb9sJah1qIPIoFEG3IX+9bRHgWKYBdG2URzofXRPCD8Z4DeRQp0WDgjvkhM+wS2KfBEGZs3grRu4SCodAA5W8Zoh/Zi7hDC57TslbFmhBz2Sbn0wj1br61KhlfOggCFKnkTR/gTM3MjEtHBAeJ+c8PpK+JJn1o46KO9oblV4LMXAOVEih8wOvVbCfql+bd6/DOHs/tStZwotdT9wR0rPufpTBT/+DyotHBDeqVl/9ZzwYw8jHRdZpFcP/9KHdnjOt/5cUsIub9MW+K06+vl61q1X1dGuQJrnR9V6hscSrj//+FD6WALSJAHpgPA2zfq361dHyzzKoTaqZEWmaYDB5Gojz9UJTzxzqPvqIoUGIZyhW2+OV5kEQ/rbo9POGd2Tqh8iTn986P/q7I0hvM3HzMGBW6qjF33OdKIsAoK6lgGljqMKlvnq2lIvWnUyN6qUcEfOwwHrH5PrHLh1eZRn12zZ2Vd36zHb87XF0kWrQQu7T67dSRvS93dD2KWELSe8KoRzq6c4/zCwU+/3PmRMbHboXddHMOGYEwY+nUu7xN4clVDtURQO2dA0STmoPRsBkOdWOzXkn8l3bcSfN1LCcp5Q9gmv+Zy5LPNHIewRZABd2zeyhm6N6nEZZHBlJUQI6VrvmdMT2MxU78PFTGHhs9lNDx3Wh7xzStHbiwEltPOA8KZKeGkIPyeXHgqf81pbIBl0UrtsSVuCHsKjlJBd8FsobLo1Cl0dbd/k3JPIIYLXfulO0kKozyy03DsgvJESirnFhY2eXqG7p6r5npeS2vcWBiY4E9qMCbl82Y/LBLzIhLaj+YvTyMyxRQFnmerBNTo/2k5nNwF2ShQFSnw10ufMv+Oi5KMDwr9eCVkKL66EuxatttthwlRLci3n9DBLjNhNr4UTYVD1CXl4u+z0fr8IhGvojtYfCjMVQ7snnV/p8DigiNINqx7lZaUB4T2roy0n/L4khD/y7LbKCHkglAdiHNZDAQ4pXy5sdoi7hGjL1JTQ09QKPyUx4T6xW4tJGIzxa6KrvaK+uOwk7UqvQmIvDJZThSMnvJkSdtXRS0L4Ag5PEIv28DlVEI31RnbmkPt4Zc+hG7LulbDs9MpTmjaPTtqdyUyEW9xpcdO6xMQBKqCYWxdJpYnyNDwa4oMUDgj/eiUs4agMzLz9c0UIaXY7SSewBKMavPLuTupGvRypb6q06AlrH7RNKF9F28PRCSB87VxmdGEGGExNCqOkiuU/CIZQrjluFlYKrejwgPA2Svjr0kqozGXyj05349WWOxZK4Cfqpcfqf6+b9ao4WkF0DyAMqjoaK4UIHB2wX+LxgWFpck49Dc9CWDB0tM40ILyPEmrf0SsqIfmdxW5eVI3D4DpRimeP2sXb+bB9p74pISz05qm1H/9JCSESrQ+7y+2X+o2oo9KExRm9etgwBCkcEP71SnjsE14Rwvfs6Olx0FmKoO4PAFqAsKy+01GmfocClBBGR98VhG7Vc2td/QcfdP1waV/enslhPY3ocCurO6mYmhQOCP92JfzFxqOihBesy9HBI+zQt0iUKdBqZOEbKmFUXcKjEuLsqOd48EXdrdfh6P/Yu9LeRlIomIZGNpDuiTVaJYod+f//y+V48A7wfEaBzrGZxJsmksv1ziqojdK7K6BCxY/B6bDkhB0qhMsVKlwgnCUnfMd9wvFAGAdWPJ9wxmqMCAjDEz5c+SmvOBOldT+wRBM7tx0m3EirjoCQVUc11mXKCdId74/dHZWHEwo5Jcuc0NCDwLaUBipeIJwlJ8QtigGZEMoyttZkNBUcrADM+FPpGQ9fEBRCl1A7jfr39sX0djZG++EgfDEx4zphsLpDVliOBAfDgLSfFVZ5xKi3UahwOhDOg0meE74TeYvncGd+y2UZqtmEEOAAlBdGpKkuk1NC2SWko6PQqk8WoeRIH0l5tBOOsmmZmoYGKvSBCvE1wdXguNjHkKkZSxSIyaC4yyI3s/LEHCD8j3UoMgZvI4LwO5oSllE1zSU/09P+X/gjGJQpIWqhtUxoT6Y7+KdhQlNyQu95OJzeY1aYqU8hQdMSEXNm61uL+qw0s0A4CRNiNBrD0dHOXE0JCQ1iVVK9pEGaijncuG00CbdOTkhE8OP1VZlQutbneJRDMMSjiQrzAZSsESEGZUbIUGh9El1cIPztIPws4SjEowMyYZzddqjhq6tdfIlE63WU9wpBfPJDlzCnhEJorceEAoTfvZxQ800m7ImonBUqBGbNBzElRBZkbmqlVRmOohMVLhD+9nC0W5gZDISRCHlRpheKHhmAB8Uh5x8d58l8pzhKjHUxJ2xBeP4LhaItGXuF9pBNwtKh0L45BLdwggLsEZX4Fwh/fTjKBQ9v4xVmQiSYXP8sdgglCx7sjXAhYtBn6Ykrk+Y1vBjCmFDvV3qkYzevrHpzo1DOBxAqZMOrpEdYAYilpmR6X14MwsU2ORYIf3c4SgozgzFhnFhThnhd9zDYwLDhwZQS2v3sDY5yi3loUBjuUPaD4WjHMFtEo5kKbdwrFPNqQv8p/IL4AG0D3MJ13TvXAuEsTPgOw6PjMWEIRh2XrYgJoaDB+J+EvxqTdvoTIEeoW8lR245vM+lfDkJaHW1RiFcMfhVf7K1tCZ/KNQF8EnjXCMYHKE3FDfs/C4Rz5YS3VJgZ6sywUY8757kvQLLBDD5Cg51glKeEppmXsRsviiSttW8OQiNN6w1brSdxJ6CerdhrXzQ34rlDfknRF1C3wV8HBwOw+5iYLhBOEI5iMJqZcKQzX97AgRptJeAZD22Jo6IwXwSHJBpFNcJml5AxIVJh0loTIOQGhYYODDAqLOnf/bFrhWtLAX6BGU3I8wj2kgxVOJLdSCZYJN9siokXCOfoE77TZv1IViRxUsXzUZkMwtIcBPz1UkJBhCklVLpFYc8YLWutdUBoe5UZUiBFOQ3YIPb5YeGYHtnvcZr0MG2gLnoKAGYUrhbFJEzIevW3wUAYnvuPg0+r5dhPYUJYiJCkhJUH2YxK7J87WRvtFkeL1lqPCRGDPCl0OMfty0zMce7n4eOJ9Hmt8IvZYIYf71GeDRHaVBxaIPz1OSFJCT+HY8ILGFvzURnRnRBA7BKhS0v14KwmGnQyHM3iFo8XINxEVwG7FGWhCnuBkQrVsT0K/rRD+Im7nx0UmjW2NhUTwkrvYEwYha9VFY/XSIQQjWIYihFpB4I0Q+uMrHFLJpxae3sRjpLqKFkprpJShQZjHBoi4FzzPE04kjcdO+Fy8040arJV8ALhLM36EZnw8gQiJBiUtVHeIcT+hEMc5jqJMlxdxrZM+I+pNRKOli0KicI6RkraEd49AgBTN4Joi7YYPHvxqIbXgelAOM3LjKiOvucORWLCceQt/uz+Hp+/RUQelni9q1nhQeqjvD1B1nkTLu57bhKafzAh6ROaK+uSB05mTFj1LTgXejobmq5wJEcVLAzFH969U5ipIjeL+iYAIRX/vQ0FwhzIBXh5bnPm+QbhQXqFbZ8eGvVbWaAQTjAdI4r4Se8ShM3EjNFa+tY7KvOrWQLaiUS55GmHCJ8LhJc55C0EE94GAuEXVDQ2dxwOVKs9Tq3JDaaDESGZGs3iMqrxgekPzOSckGqtERBawKA1VGdKc9NsRCD1vBAFGfgoLhiSCwMRXpfQ0xQg/OSShzkcHUje4qc2tk2iOpdLHpUNe5lhlwhPGBvNOLSvmLBWRzWfF0MmJJUZZGfd+k4YJl/RI0DxEvCKCBcIZ8kJPykTDqUx80yjJaXIb33GouutE4q1eiIm4Q45sdZhwhKObsUrux+O8vKoLM0w6YqqptaWY+DOWJkRTIhEuEA4QTjKJGZut/HU1hIM1fbAGefT56ZEITvKhs3odgpGH7g/kTVdetEoiUipOSHsU2laHbUWrYBbMhROEy86EzIWfkGEC4TTMGEmwniNJ3l4eX7s+3nPg5d17jnQYkgV7xGLSvKhGJZRCqZGmcEhRqPMiQKaFK9AuNEdQNo40cIEDb3pLS3FQkGUfGqmddLEGhaGFggnyglzu/42ou7o5e3Pbl3aQIjBqD4ZLQYo3u+JGZuyTBb5vD+K+D0XGGxkXWpAmrTW3vgM6/Y6KWQlGuKQ3UjI1A7HVv9F49Hq1k2IcIHw9zMhauAPy4TpO7HDkBuGPq4jHIfzG8HiaVyEYiFGLIyGh94dbNRzf97CgtQWAxI0KQAAIABJREFUrfbqT75DdLmW6igBIfOkqU1MTTbndbOuQd5Ii5LOCWx5fWL5E86WE0JSmGA4JAizWzbhmLwZFOnPsxDVVyhG1gxf5WQSlnnbDoVgwkJIRizyhdv7rY1HpTUp8R80TMiJ8B5hwY0PzWGf0hMiXCCcIByVOeGQXhQXt++b6/qBJq6LewoPXJK1MUQ9nC3fghWmIrVLuYkbURRG0tcGhJUJcW7NGOIR7LXmlthyNscS/quRKR8ehzNYbsu2QDhFTphoEGA4IhNefnZVQkrpzZvHSRUkhvrxEHIRscGodK8s0zBhpaJUF+EgvGKfsLTrNZChCErbBoURjUHLg1K8OZRoaUa4QDhLTsiqoz/jFWaeu42zn9ADNy0IywwNQNHHGDSuLkSOdCVENL2dertJg9Dcq78KED54n7BIv5m+YbfQ9jWyL0GrpPRFIEto8Jm5BcKZmDCj8O9wIIwaF0qdUWxGQLB4ZKMYN0CxZIau07iztHdOKiOkWb9poSuBILR0etQUNqQxaSFC4cBGMsImMGUQPDXvjywQTtgnHA+EsbDi405uyzq+eGUXRXxoT3RGWHrEJIiw9uqjWfULJmQtCoSgYRyYv4VcWN0mNur4spETnFT9ng+PzwbCeTDJCzO1NppywrHOfLnGLp85rjCC3RRDqB438+Z1QmpQah3yDkGV395gao29DjwMI0KDVKgNmRSluqK8HAt3hYPCsYq0Gr20UNaYlScmAyFtE95GVOCOJRkX41ERjHrtmUUa9+f1dMm9WaDY0KK3Z9P7I0B4mo1VZjAarcUZg2MyRJODU6F5XK/7da/qotbk5qIpy72ZCBcIJwIhHZgZkwkvBywC+jp7xjJCz0zSuEG2YELdKZJs7VJ9+MpuAoRvFYSWTHADEVIUaqMbHJKY1NieyPb18djS5Fs8UMoIFwjnAOF//Wh0MBBenvs1ywbGeNR5yYMovuuZR6CEYLs/sYE1Na/KgM5ZjAgFCC1WR0lhprTsDe9KaEQonxCI6tu6BKJbUr/fyTRs1AwWRLhA+MtBSJnw/fYZa6OxOjrOmZP4r8vxpNpq011uELm6bU+JkFoglTolG+S03WA0K8w82ameO2HNstWLRGgqFRrD6zHy32SBI8+Ap8NHPXwgxU1khAuEv54J6+hoQmCpjg5z5lgYjX4OgMIaj3q2uFAFP4UNWZcIbceYmiNwA601eqofBGGHCEkpVBuZCzIY1mC43j+Ht9GdwhckLhBOy4QZhmMxYRzZPCqdHY9cH/WFBV0biTpuxumbooxpZ7dlMJoUPy/sVN8oO8q69Uh92IhsU0GRGFoGRIu/UYeDJyB+LxBOlxNipz6gcCAmvHzt2+EL5WllYp2UbO5V6XlGhJ6akbFZGdthIiHxVMwJBQhxnXCjxVHChf8EH/4UNxlxgNtW4Zrwa71yW4Dh1wLhNEyIlRmIR0diwlQYpU33LFIh3XELBIvioCPag9rrF8u8G2mcn6I4utkAAnaqD7JEAdVRSwFWcahp8veKCsksKbnK47U79JUEpQuE8zAhEOE4OWG0B72z2ZdoMKiEPzXXsaghao8IRWW0I/kLn3U2yGUzO51NJoHAlgq7QLTmlfoh4todHmPSBcLfzoSfPCUciAlTYVQRg5UAQpOokTjEK9Uph8pxtXapaGtG1qrMWp6X+bi8CRBqnhMaQYW8CmoN/Nz2mbDBYRPdRlmc5wLhlEz4d5icMGHwqCSXWS7Eo3cnVNYclVVrMOjrvJpFl/rO+sSG0hKxNvojQdhdopBUSEEGAKRoJUxIGxX04TgMHmPvBcK5mBBROAoIo6GR8L9N7mYKR2OK6YSq05j5A9Re5AZTZ3eiLC5gQhg+ygB1Z3SUyFtYMsDd6QYW+FljXgWl9QGcCAGFx7lAOAMI6yITIcJBQHj5s+s7MzeLOFNuN0cjNYpdQbFZSwe3rXCAYR7ZlAm3QoRvvam1Or/NS6OUCRGBFgNT20EgLFWRH5NZ8GiesUA4ExPeIhALE44wtnb53s87mLoomAiN70cEIdHdrihECwjfbPa1omeyQ3GSnDBgcJenIgMz3eKoaNRbFpLy6NQ0ABRwzpe7P8oI6XQgnOZlpjBhGZgJ1xcw4QjyFj+7vaeyS92MyIHn/WEP1YqMsnaEFpt9Qn93s/0eYaFCvcetej4z8LMbu0m7bN6rJ0MxJNi0lPUaBmyAWDDoDrWnLsmivl8PQsKEpTg6Bgjf9uNeAk1FjV8O7w8lBbdhWJvu02rcaDCN3O8rXYsidrg3gzvftFdvRTjabkxYQ4jP0jf4Xyv8ym+yFIPhzwps/LN0R+dgwkyFN9KpH0Ho6XKJdVGFTQjKfQe1XzowI8TYU2uya9vVOLRC1oXA0FpcYsADEenfulhvRYtQNzWXYgrKSK+URCUuS1VGHYe57vvH25I8nIsJEwq/Mgr/DgDCkA+S3VxpgXZUX1CeEZIqDP2Q/XHWIeQuualFiDbZbIRVbBNamcqZLgY73qD9Nn1ecgp/UpJp/HpeltraNEyI4Sgw4QDh6PN/9q6EvU0ciFpIihEEcGPH4bMh7v//lavROSPJTs8tIeButzl2I7t+vLneG5jajiXRKqKwQwhEEPSxKNLxpRMsmaUF9Rn07QnwObuV5sgnfq8sk47KYPhhjD0GoQSHf+eTasrTWzn0i4Dw7Xwm49tH26z/1yDcz2K64uYEygq7sCLbB6NVAOHdEWpFNYTEYY1F42urnphLp3IgRMskCBUWGoQh5lTSSB3hhKU5GXASB3eLYCN+y1+PDYRfgAnHEI0uJBy9mKFRgsIsJ0yJ8AECUxGhKqonbHfiUnqtXJtQ4Y31FIBZ7olocLJ7a4KfTLictD4q6y0QIRbdmPAr5oTfHBMuozo6QlbYUp1glbUHY0KIDQ0lLvpTCCZlmSQWhbntoXiqm2DSRbEqywkzxFO+w9vc7l7T1LPWPEUXkV52SEyygXDV4WicWTNUaJlwCb6jg0VhiQ27wqgMR0olFBRmRr/UXRAtqQcMqt43CNPX6mLahEh75A0Pw6xLmI0pLMWGgJNL1RtDmdoh0hquBXrUT8Dlhvr5cQPEcbff1mV/BSaM0ShiwkWY/w6QF2ai+cJO7CYaeKJ6pER5mUoXshDpBAvTMvKew5I+TKt8OMpQPTP7QZLCL9aAXP5nLGUacmh0X3Bhbtt0XdMDDi8GhxsIV82EngpHI2Q6LogJQcsO1RlqW1FhRoxOMjwSYcRgHhni3kS2GVf/g7sT9LUSomGZCBdxrEwgyOJ8aj4jl28ktQUiL9i3a9+6awc4PCR+MxsIV8qELiccfYtiITb4F5AyWfFgEpe6DmLV0PYExYLMl8TTvROM6HjhE1KUra/3om4ZWuXy8GLJhHgJfqE0a380oyiUdgK96q4NxKXzBsJ1M2GAoO/UHxfDhDA/SsRMJT8n5CbvxkPRjApFRqJfQsupw6USFKI2YcvQMqWPUJhOp96lwLiKzXpvIyq0ImZLh/MGwpUPcI9WROHHt48LWghzEzDG3Tbh0dKCaYv0S+lwWp4HEghmALSev6RXH6qTN0FdYRiBm2LJLvpoZqgeMCDeUG9xGFAouUch0CFPYLiBcI3V0W/js2fCb0tiQrMSbbp2EXHR6KJtfwyCqZFFrIdmCDRcWJqYAQ2FZBRrpPOPlw0qv2pJPQpCkcFihCDzQkXuSjjW0bi7SoHLtusH4dfBJGrWGwt8lxIel2T+u4cSYXP19jG5gYWHITVTk+qBbqmEwMhINiJNTjWKFoOO9v29dyhaQ88eIzCSICPONrE+Kp3Dhb3XaDbsN1HFWkHoNRRjrMpYJlwMCA9CWjIsY/CukVO2+iz3VWNlHKrWmjzhU+kbQUz1lMrghisx6l4I2lMSZIiCw3pQN4zj1FhxBXF17TZ54VpBmIoJF8eEF9Hpt59orxWFXouWMpXWYJfpqL+XDSI8mPWgKQin1jsGU4gzhsowviWRh6J9oSnR9z35MDPO4JzGpDDNs4FwpUw4vtn+xLhEJryJ/tpNmgy7Lix38RZOce/gB8vofwB+CIhmPWgCwp4ntVFG5t/QTGrAvqIbsAMXkkA0RKMshqOKaOyd3T+QYe58s4FwPUw4LpYJISnsmmtVC9FDz5D7ELQlDhYUg6wYhN6tyJBPMbceNCnSKo5qMIlZlAoyQ3avGtoTWzcmZZoRhu+hvsIEhtU194DbQLiWnPDZGcwc48TMckB4EbJrqyus1mRd13IciyY+TtFNjZE12OlwDL1kbzfmhl5hnxVmLsIMdjJSFCXsF3LD1DeDpbPi8ICNoEZAQSHYp2suOKnPtJ2CdW0bCFfJhJoIxzcvJlxWOGqo8Apda9O0BjZMndSorwTtyffpkokCBGGemhRmepGeqoa6TL49IoSeeXtepflgH4/DJrsPVAYgIiJkKjPZDyi8sg2EK2XC0TKhkVAcbVK4KBCOgsNOmKaD1BBg2FAzNZlURtG+sx67+hbTPwtBiUEImwmTU4m6uT8WgybU1OP5NI9CEDf5xbzcI9GzpkegIk7A0LWHAukWjq4OhDQlHBfJhDYrhF5gYyzIxKT/HSBYMrBIqPBuOUYasS2odemnJ5HMKuw09O/OiKJwlBZKy/1BGxwryZkDYj0xY0yl0uWHSLgPz93cg24bCNcHwiAntPMygyXD47JAOGsMmJIod2w4MUOHMmlNhMWDkQn7u1VRjQKjd08h2DNepyDUt4G+aqT6kA1ZOSAl/UH342QLtwAvqgfZvVcVYs984MCm6kDYpCm73m0titWB0E+OQkIIOFxgi8LriCo3ntZWnYIIcuKAw5KcncU99Hg4BnMiU9zK1yclc3hykYHQ/MSmalpZVAxGRlQFBHrFBu4OSt6b7fQAOmxvUU8TaHx5K7nzmmv1Ue3Xo//aBsJ1haNnp6F4C1WZBYLwZjaD+qvqGosgWVUNl8FDl85rJwwU8kKIBC0CdRwqS/0KNDDjTzWDngOE8A2nMsLYL1RxiC32LHJzUxOL2gPUjCto0QPo9J8QFPPrcMGuMxsIV8WEwfDQZITDInNCa77WoVKMDtBsOjextjLGEYrigi7gjdJ5/X4PNREJEMibhUz2sVfvT7Wzgg79X7VNwwsK+kfpIJmXY3ACQ6waiogcmfG4ADCCA8Yk6uFwOAyHcZxvt10WoG8gXF04Oj6PpjAzLJQJre1TR9ZLNF0lfYXRMCKXqaQdo9DyjXdcqjUCKQlCvbLnRlzfo2g0OdXF8uf9sBTXaWKKGBJTIGGDQLgFhIQVD5aaudGquueysYFw1Uw4xtqoBmG3uDPXgnU87CAzdrs6PWx7Z5qkkRisPXGbwhu7yBjuabA5BMY0zfGqJidpPPDvnWpvf9zENFAcAZPOfTI2inJTdw8Q7udIMsQTB9rg4jzF4LaVabXP3zGhadWD8a9mwsGB8LK09AMKlKyKu1dcWVQHpg3vJ2QbCPEeGvSWxtYzGA5CN8C05ay3hY8Fwdtsvg2GoCgAslNpJnRImlRjQmGZLDxMyqRAmfouwMI9QNlbAKOjMsHhgrXG6Gajvq8Dwrfz6FsU4zFWZhYHQvv277Ld8PAObzUYPrT2nGBABQHQ0o8FgTcb3R3gO3ePT6VvBtfGE3AN3fYmuGsHf+2ojccc7EkY1UqJx4XBbNvnGNxAuPCv7ve/z4Q2JQw5Yb08JoRP1FCdoabzfs2LlHaXtikyemPPGgr+ruRv8Ed65uHPitdOImRgePvoVAO4T5mtETVqLEyu7sOd2b2zGI03AT8bQ2HXM3QUaF20k6HiDYSf6tC3+Vct8WJO+OxzwuNimXBn9L1106SW87FfYGwhnPquisvSkK9njwUNvRc0CHH36RZPNUNk3HKzv0U+7iyENjzniiWSifTBQE6sQLm7gfCzHRr+oofbrzPhaJgQkkI3N3qsj/W4SBBCdVJVPLecpy7bTnv7eJLTQdJEf/P+506lX/O6tedwTr7WXnvCF1RcLTFG/qMcmKaFjPPJ+9tsIPxMh96LYYCg5zD/HhMaKrTB6HGhILRd+6lqSqteZGmwszQ6RiS2EpZx7n6+BXeBcwAMg9Nw8Cg0SuOwgAmJKHo6OUMxCBCE+8Gw9SQ+JQjrYbA4tLt8fjontAuZnmMwWi/JbY1+da9DUh0Lckl3UKvC1MyjzrnDoYS3/ZhM5/zgqQ5mjo3LbF6u0Kkg8CswoBmiMdsndltj8BODMADxUghnPmJCDcNnnBPWiwWhGZ4RE7fvfr8GgrjRF3ZOqCIMVcsE8lX72VPtzPyMGeuWqrgGBg/P4YJQgGQkZDPMXfA73UD4eUBYm4fHoRhnumbyMQiNw4wRUQyOB48LBuEO7Afh3c8VXQyfrX8p22AHV7OW1cZR99dPZToafVW16RibV+aisZ1QEEK06H4pHYcmENxA+PlACI+jx+HgCvRjHDn8ASb0GgqLwiWD0CzsNDBscUlGKhqRItf7gtpWtiDFGH77VKObI29Lyy/I+ifiNRM/kLw1w9yH3Tan9vlzQvSIlCgu8213t4FhQTjCSibDhH5gZtlM6J4zjJ64WPBOaQYxIYWgMiUQ2wr47RGC+WCagDC5IwtLaB55AENp1Y7fzL/YZNpAuCwmHEJUWptfCIl1gsSUCb3j4bcQjS4dhAfx/WRsKSwdxrywUCNNIKgc9Yx/6FT6t1lYcXCDBB1FlT+ZJG39LPfX3EC4Qiask4dB4oCjU3FArJiEo7RTDyB8WzYIZ/H0/fvLKCwOGy5VaUmnt8sOVKh88Iep5w80TpzMyYylwdZEP1CaI1C5eQI/ZXeYv+ou3hUy4WCRiMjQ/H7MoKgToVmD0f7vXDgavH8/SU4IEwrn95en9/dzbbVFTQRiXqV0iSFwDwtLqP98zfZ0DoIOnXI2boWp21bD/QYb09N3d8X5K+t01wXCAwpFERnWKD41SDxSLIrDOFMmjK16kDIt+tXYi+H7i77e35/OgzNL0ozY8EhBvmun3NyKlxGNt79zKvH2XZ/mdRywU4X3M52sUDd+aRzFbf+ldbofgPCTPYdBRLgNlvv040gweQxpo8WiR+Mr8lobv6FwNK8U3Ln+0auhk8KnlxeLw/fXMQgllJ3odIvUzAWyhcA9f+9Uota3hSfNzu/vL6/ncShrOuphfDu/nk4vb2Irh66IGDUIYySaJYe0aoP/CMB8dWUZY7Z2HDUCh9qWZsbxcrnMxUt/YbyMByP7Eft/82pcxNPTi4XhCeJSQkEizG8iJFxuf/dUI5zIXYDFJ/jwdDq9uuvkr1fYUa7vGxvMVgTCUUQeTB/HJCatk289B//tyIQGg+IHrlo/5n8Ewpt4ffdv+RO81/Ub/+X0en7LGAhmQ3f/w6nwiV5OyfXqsXh212nYQLgmEF7EMDzmwQSi/7F3rr2J60AYRtUI5kMrE8zFQgrw/3/lie8ztpPCFpsDcrrbvaRHa/fkyTt3ExCPTAkphfddL4NwA+q2YxRqsTkEsZke9+nDCBCc26wqrGhvFxRF0PEXCDweT3vsEH4ahEmiUBbwK0hhSQnxEQaRNOK1hnByCp1B6h75ffKg2+ug4NpmVQou612CYZRAs7i4vj1sO2YfBOEPCAbarApmNqlXQjNrjcVl7lZC9SoI9SPvnTAiO/4pP+kf+uOQzUyqtaoR9pfdmmizZXBf1MJDK33uEDa5O0JCVtEKDYaoLjMNWQxewK1iiuJeCF8VmDEu2HqXY+gRND/N065aVYQRezRQGDG0OhgwzCrVOoRvDuF8ZCY1R9kXIR5JmjAOmFmmEOxPsH94EYQr/ch7KaQIJkpYsEbrQYi39Tq1R5kYEilsZSR3CJvcvcKCLZroYHr7SAtmJgjFL0oI2V+sXgahfuRLGHoEjRYe9Gui0arOsI4mcqRQL2yf+ISHLE3YIXx7CEXJLSzkCgWrMw1KaA9GI51Mckb+GIrwUggV3C4uNEMQ9FJzOv5YDPUctUarWsHhFpOX1C3cp0o4CXTH7JMgXIFg3Mk0RLoQtnE+oTJTR4UVwjus0Qhk0pjeEMIRjpebV56iEuqwzEkvsNWqQBgLedEktRzmacIO4XuXkoLXQSFmDNFSul4r4Xb8+jorc2lb9W4jdDZR2C4wY+pjxOVinnn9tKc+of6w1mizVSkwFrJPnEyL2iXJer+8PE3YIXx7COfCo7xWLb09KeHXlzqfvgyE4q5waGqiqtdAOBEo5fRpfQlK6BwvL4UWSXPIWatVXWF/WZNyukQMfQlBMU3YIfwQJSxoX0Yha7PA8efrdD6dEwitv8ipA/o3QMzSl0CoEdQXwOXCzFGSpBfitD8ZpW73alBECr1FuuN1a9YczdKEHcLPUEJMUJyFMnzABKH6ceao+N0Chd8ShY2+G1vwDcjaDQtSGJ3CyRd0haObtvpsI7YRw13RIj0c8oEWHULu87/XHty4tQJubvwTR9LJoA7bSAPhJIUphGIevZRDaP/d2IyAUrrRcHC8UQhDBkB/yVNGOT1w1ycp1ixduKOxGSuEh2M2abFL31svOrbWh0SEn0Oazn8inw1p8DOeVGaOigJwkJqm4eeqPYTeGEVrkGZSqBn05uqqJYQbOLnkJcsX7lKn0KQJO4QfBmFMA7LOepoejFXbhjIzAQO+jl9WCJeUcDlS03xaphVCNAgyKbRSY4y9aK42POFIZ4tcBcGamKNpaEa7hAq6/flZEG5hLldfqtomX4aojl+TEC5GR6GUIASao2j+0gmICYNZ4hXqJBz6u/i38b6PTUPVbc43Z4+u09qZwz5GR02asEP4SRAqlqPg+cJQsc0AlU4MQZWUUCw6hWnZjGq8381VI+br6zRm+wtn0AqhiFLY5P+CPiNm+nYcvD2a5ewP0Sk0acIO4SdBaCq4U4M0wFgMmbpPYJWwYI7CTBgm08ZfDpeuAKEC5w96zJStmzZPun7sBfjyO6OUY5NV6aHgckCXpHB+Ie2zP5DobYfwIyEsFKdRmzSbx2YFEcRRHb0S4pJTCPNpi9YQRmvUaqHOFepLP/eHk6mkcUEbL4X1V2UYHHT1ANyiNeoqW13n/z6W9OwhF+gO4VtDeI0+oWSCJ0s4kvJtxO1RB0dPS3lCmKsdhddAuDIOH0YtzOfhhPOGzZf9+7lLd9/VDBrep2/H+kIpJBNnfCOFaXLE7Fz6DuFbL/oKIo+CkoOa0joZHx61dWs2LqN4wYxcrBnl9uiq6X4n3bcOn/BJCgmh4FwO399HtEIofPzUnUdfFcLAIPokRaTQxWVIVd3hOH39y/qhO4Q1lHDFo6OSHAtj1VG4T4JlKQx1oyqlKAoJepgzSVmOogGEWwg5QqeFgMdvck0PuODh09oQTm6qkVz7vUohpNaoK5g5Gc18Udlth7BO8lrjJqkSLkghzxWOumztnPqE4oFSbhYebQChFh0MKmidwm8GYTRXy/bos1elD6Iw7wJbx3e5JOboPqmp092EqKXw2idwfxCESYICWb1aHC3DOHRKaDrrjRCKxUhoMUZjf9t2vxDg85+RQYgQNNDbo5VHwrlQkf+e7EimcJ30eLgMhdAzWxM7uUP4/hCyGGgeislzhNYgPZ7UmPcTigw7NlgmLeFuuN9JdSJhzuosQIieQGOPbqtC6EpZw4vpeEus0WwW3F6PTcaBx2Y6hO8NoT2NgvuE1iOU5XxhUEIYdT+hKirhvQYpjczUh3AEPx01Gp0guTUqIoZYcAqfDaEzkP2343SLecJgj7Ku3r2Oy+j/QnUIPwbCMxSVkKlgyqBD7msyRs95Z72YN0izCA2NzNSH8Mxq1uwnwIJLGKMzdQfh2AoeYo6GdD1xCQ9sBM5B91ilb4cO4dL1/9+DLZmRbJKTb6MQVhyTc3x1UF/YurU5JSy1UEDRPyQlKfX3K1wCQvoibsEhHEiHhfsyCVXPonAr8vaoHTTjdDBp8AjdhOgs2Gun7lOEcUVKZljtaO4hJlKoIfzJMxQPWabUqKq/XySp+NjOFCGUwII2VqOuNVelUyLGBAaWo+DDuH3d6MGlCcGHjDpmn2KdQhC+IIfSK6H0WErS0uswkxpCnyYs5Qkhb5sgMRrImuvr71c/vsJqIIbwJ6TBUfSxG/OFySyJ566KhGtttt4dkjExSApmqBLuSbtjx+yjIKQpwaSRMG0mJE4hMUfxFymE+erRxhASnzBTQvTR01jhLW1/faVVnYE2N6LpMuZjZlgj03H6nX9RSOwQfhCESFzAGKORzEfE1C/UPqE4qmzO02L9KBScwlXDs7WBiCDa8rWBQghA6mm8z7ituCqEMKzV1bGu4zmFxB4NZ4Uq0mlFDOUO4QdAKHlQVOQ+YuRPBrGbIPxSCz29gAvZesgGADeBMMqgAw0zCBmGEmoOwnEJivBuADjcbtkhaRbA3e4ggFYbEEO5Q/jmEAoQ9EIqiyIb9uSVUNg2CpV3Ms2UzsCvkZlGEJIkYGqOep+Rmqx1IcSQuPQ2KaiD7a0i0560fXpUSBEUzFDuEL45hL6tV2JMSNCjmvIDRIkSanNULJujCyYqsMhMMyVMEoFJmlB6EDFzvZ69qhXYszuITWqMUhSnvTm7XtO42x+VOccb47vBKuG2Y/YpEF65Ejr9I9Iok2qZKHujV8KSPQqljH1SO8oiM418QkEzgYkSIqverq6EV2AEhn/adzm615RuIIRhYJkVvrIO4ZtDuCIHM/GS7dhJIfIWCn2Z8u2SSwgPHEgRnMJW0dEwZSZrowgznjCmKrAqhJLxhzRBqWHUFuj3yZQRgAzpFalzi2xlHcJ3r2KDeRUU2XnZJDqKYBuZFmtHYf4oivRUmDYQYpQS/cuQQYjUI6ythFQG6QfVO0kbPMidDuEnQYiROMkDozIdA+y9QRdUOS0xCEuDLWId6bkdhFs6YUYUlND3/MbCtqpKOEJOH8bOfo+hofBk0xnEXe0QfhCEW4wA0hncgh8Oymat2UuF6RZiPjUPy9ZpPBXZk/gaAAAcLUlEQVSmUe1ofI6lUULSWg+sk6mZEiYg+vhsjMDwsFHswnrw390Urw7h/+HuuRCZITAmyQkihTNKKO5xBQs1M/X3O0LidOkYyPQXw2Ce8oMeesbqt02Bd+XATEKhTEI1IgRw/SvCVxo8BKH+5Xo+q+3WBX222/O46hD+X+6OUIyOYlLYjTxRaCaPjuFQJnFHfiI5F80HT31kpv5+r0AiHvmFkBR4J4mAGhAG3MhvgtXpg0QwRK9QxFfI3RDqrZ9dvDUEfeye1TU5cOMTIHy/PbjwqMxFUApfw53WrDm9W/AJgR/9smSPjq32a80/T1wQQNPENLA7JINedaSSnfWWSCH7BWPPowxKKLy3ete/OxE4yR8O3/k1mD2fV136Xn03hEfRtdNnXqEkR6IRKQRhMhS5EuIjufsw7Knyfo0SOsq+Z66JRWSCkQ3hfj6EDsE8OhOrzK09KtNGrLsg1JZOmUDfv6V3PHYIXw0hiuLFZlvYI9F4tl6UfUL4pYItyd1Di/1On5SZ7bvwOMa2Qj8FWJgy6Wqr0jkTW4xbpDAooQ3NoC+qcyUH9xQbmReP/G3Dg5bDDuFLIUQoOIQyE0Rk87fNDO6fkk8oITuHcHEsPrRwEkYdkJDf917S14lVHW9hIQxKiIVsoeNtiAmU4BSS08bn/l192BPetWH0atghfA2EZ1BiTgvTg7JZ/BOCEIrfzE+YaWUic2bq7VcfevQAgVEegNp8FSAU4IQwS1T48hgSmQGk1eds6uFcTmK8E0GH4bVD+DIIQ/WozKxRyUva0vpRYZTQDZYPrg3c7x4CicxUDP8CDN+PXyZsgTUhPEMQwDxZgXEyXICQnSh1XoZQFyc8tG3QkeAO4YvuwlzRWojM8GmHUfdOwzBI/UPymkeWlIBSEwX507bqfnVc4vtfLzTOUjUIR0ilkIRGSbG5hmmgdWuCDwcvBqJWyXTxu8R/3HQIXwWhKtePknZ7mZbLGH4GJdUgpOKptYUaGZg/IK3KfvWxY99/uAYbOqwE4RXc98NlKrAUm5EEwphBZN5qKTs/PmyAm5fOdrPpEL7i7rYYHpWsrRB9loKmC0EMysjgIDiEd83+BX42U439qn8zRBMrDavN4IAQHw2maNLWZPut4jzGYKQuzsh62BQlL53VpkP4grtqNjLDK9cEZiEYNdmiKlfCQjshFA6tZ+n65+939RdLlKUsarV6mBhsFMO8kDSO4BggKWo9z0P4D6YoeedcNx3C9nfHHMKYp5AsR4GcRGOPco+woISwbJi6OQ1P3+/4BBn0D6aKKf9nZi/Bjjr0bmEhYY+h+993O/qC0usshLoe7i+bvW46hO3vZk5hKoKzSojaFpWCtX3Dfe28sbYNquxXPUUGQ4BmtakCIZLSNa6F8QcA73a0s3FWs6iov7182k7f6hAGCMV8gJTXb/Pe+kkKtS3KXEJZOIWJhUn/Y+/qdhbXYSAXkchFpHyWbyokxPu/5aFpmtiO05YmFO1RgGV/umIbttOxx2On6G4y37Dz/50RJnZzpe4gBJO/CuSZYR5GZVm3Y2yxqoWjtzYpiqNwgPA6ENrFAorqrBm2W71kwsCDnk+WL+c5bXPjUq7vu95uoWhG4evePyd8f32LbQalPGq5OEr2bVtG49T46tHh5pNpdoDwsqOqZ4Z32VuSFLKWQZh5kFKhPRqOZu3m0f+20hmD65XZt0Qxg3C2BCClQtFMmPoJgY7AeZOj6h299Vl4+ux/EoT/Zv+VNnGtqNhXqHCKDg7PmdDsjB81fK/Qzj615ogsEeD8gnRldv5feM1MGFFI7KNEF/Vk97Y0KnjJEiFvNk6sop1i8C87KAYxaj01QpmhcekykNQiMcwQIBqpjeJe+KnV8juvyPfhQVjfIg7ljqHN5/ycW/kDF1YtpGRGOKQBFzZgDXkrZrDI9ou+h5/74qNLN9NUb2jCNHhNmrhnfXTK27xbAkKztREF10ef975mUewLwYDC91Nunt2+IUy4g60o5L0U6etEYhtYb3NRQHmQXq1eEIT42QOEF4PQV8r16H25M6GY6iSpsOheMhvz11KlsOskVdstFo3wiz/JFt/2DWFmvxEEdYYIM1yVYdtGzWDNFoQ8fOP26JgFhxUv1dsBwutA+Kx5ZqysUmCJQwg8mPvAt3onjGqdCXFetxV1YQTIcej7bXlR2bCXhBuY8B2SLv2L0kA6I67sNwau2S7zK6AjAiH8U6Oz6eKjizIzoe7ipjO4FSrEHI6yJoqtnWBEFaPjih7t1yMIHIYnABRpYds5hwoFRBRimm+TO3pRsZ8DCB3Tv0w3WwJQKrQDhJcenZPChQunandvTR61BtgO1IryYvbqFXOY12lF7cEoZAQuBBgQuBCiCEjbzvlpIg/O7xGGYiDafnKLpqMziNxz3h98GyC8FISWx6NY/qoYeUgglspXtlRHy3jUmmIz7bl3ttOK/kzHWDQGowsPBi7kVNh2zn8mdmKGvHB+iFGMeEjH7InAhMKZCqcBwktByJPCSSkUolcm4ZOAVPT0msKsthmVmnu3BkJsvQ6BpEYxG0wwFFTY7ChYILiwYfh8CBQ4f2l4LKo2pjMPuhWF1gwQXno0lOunvW4m5LNHiXktDm3fmm5hBB/yOcCve58VTaYDHRBBFDgTCipsOudQqk8viGT4cVnd9uTBtOL5XUyaGyD88lEy9xAnEYry/bMVacYatqOflhKa7Z1iLNn7uW1FbdfkygQ1CIbMrVenz18iwpUJMUEdiEyyE41CVyYkQpQryqIDhN8F4d8Sj05qPLr6R63OgykgtblEYQ7qonlfmC4repkO0iC9EKF40JncDec83y+iopWZEDPjAnXMbXU8dK1M0FU7awYILwVh8nBPgg4ZDEm53suAVOvpNdWNeot6fZ8VNcoyUEKQ0yCg25wr8QEIH4aQ4ArERISQEAjXpoRrOSbkvwOEl4LwZqqyTJ57WHPN2NhmY2VPbxV8hbWNTGJvWdHpaBREeV6BIEYYmh7/C6HfIQajGhXmE9lJCbFnHJrrMUXkPUD4/aPcPjpJMC7iqK8JM5QKzVYwWg1Rxe5HJ1d0a8yQwElJhkEwVtWfHRrP71Py+0EqUtBoNOm016SEZOV53f/oBMR/s59wkRUZ8iZNH8UaESZthtnWNqLPcg6p6fD/fX+apijMrVUJJRVcXZ7vS9N3MbhmIlwDUpYQptPZKdV388mAk3ceV8hlg/q+e/RlMv4mtacp+WVQg6HZmHhoKqN/WdXi1e6NfudZp/WYQpGhUIw8tTyJiNRicF19RikphDIr3I9GTbdkUAkABgivPhorhYt/dFpfFH95/KiqkNo056mYdXig0Z7OTDkNwr9GJoTs1uaRaELJvMN2h83iDWs+4QDMTAhujww7VAmBfgdCCB4gvBqEdqpJM0mbsZs7ES6jiKoI3J6D2GPXhxMNFEAqE/XCRBz1v1CWbQehT+WJ+LGJahkM3TW6DNeEyeLJ7WaA8JKjoUgxxWB0UmqFYlMYnQ0t7rhlCmnU0Pb6K0EIjATWXFDKokif4dUOwucajFLbWpETugM4ND3kmNyxJW88snA0QPjlo3zGxfRmP4lEu8uFgQ4l25lje1J02BP38woFcEG0VqBPLUfYBYTGsEZoqKijQEWTr+kyrCjjeD1mMOHVR5fBhysXFvjDaB+1R5B4zLctixSNKzo+14JKjyB6BhX0rSSIfUD4ZxgAqTqKIifcocImv0yuQ6o3nzD8ZoDw4qNkS4o1JmXGGVvLCs1W+qf21OsToDqA8NQUGRAJkRPFQaBG63Zh5pYTwo06oRRHobMuw9tFChjiAOFPjs5FisSDChvWJwDrG/Ka7R16y7//amzVe68ADmaComs+x2FOqc8j24CxuUTxZ8R8OlkndKxGAQQvnUAIuk9NVmSGMPODoyZrMpPnUSmmZopjAak5aJSxctzTl0EIvHceNCJUKvRI49E87/Nk7m0rEKzWCaGrOArSn6AtfrEl/A0QXn30z0wEghGA+AkTHs7/9D3SmpvWt0AIcpAoTwadYEKhidK9Nl6NKrSMRTXHDMOIq9TuPzOt0RwwG9VAkUWTLWGA8PKjS3v95Akdeu6eSfZRrWK/Uxs0+7s0te6Md68zA0iTpNYv4bTqYJZm1pGOjfVYUwajRU4I1TiUmtmoOArKW7FcJ+5CUJNFIxNOA4SXHzVZHS3HPlnq4Pa7gaip4q5u4p6+AEIQnhCtNq1KgwgqD0IjCG95i7NaTkiNcyJ75aBbQAg8yObhtpYD6j0TGhMOx8z1R+1q4n4/cZLeNR93rl/Swk3rzMkg1TSD0Ba5D/fFOL0uqJYGCQaBDTdu+p6fhSyjJoXUugaKkpIqFHQ8o8KErAoh80Fl7SwKHyD8wdGnyTw45TGkU5kS+h0YflLE0OPRBscM0GsSSiIkNENzQafatVFSYSMIxVgsMm6NBKO0jwIk9PItxhjp/CmYEBhCyzuQ4pLNEXinJs+rQfhPY3LenYlpoxPrqMhhabWpsJEU6Z331IpY8RqEO1katVMupLUu5cJEueFNy53ibtIuEyjaKAQOmTyj1FQiCEGbjlPabbQvQLEmMH/eaOr9xVFimik8a0jm4FdhaOqj1Y5VKZr9BuwqBJ4FyUvQQXkdpitR6jGdQFgUKOiUGU6EHDJ8HZEJrVNWyNYNrvIs7z1IjQnhxwDhL0D4NJPnMCzIkNYofNeUkE+aObWi1E8IzJ6ssYBUBdWYTFQIIwhbxogoKWGWRwskluChS5nLhEJmIfgrFBjWOu9qNx+aCJv/Q7b17520oXHoVB2H36NWuBOPnlrR07iaBlqoEU6jQlwvx0owGnbovN0bQcjCUdhEYJXKIghVCObh4UIIJRH4vg4FY9DTT44uTYWbTJj0Uf9BZnjwga22zGge1blBcGDlgUyaUELHNiZ8KEyIWJFHAXgVU8amRvlT0CJRYQ8tbj4FC4a3MfLwNyAU8SifOGN7mmb24tGT9leXB3bSOfayLJ27Bl0lDtWYcKGvJhBORoUfSiYE4Oeq3EgcmmrGR5hQuBFchQUlApeK6ADhL46+49Ep43CtGJZUaP03qNAW+7B/DkJXXIqFGrhBg9m1rQijkQlfzSC0G0yIEon8jkHqhwGEGt/JsLsIQx0UjSJKUXSA8DdH79YyDBZ72RPfTN/H8sk5Hj3ZJQT1iTGOJVp1k0wlFk1GF6IZtjMhzQixvCs4gUSKq2CYKWBIYleaBbr6zQdZ0zKQdpEBwt+A8B2PUgqcqgIps5F2gGCu17eCEIQKITcZ3Hhwlb4o08dJVj1BeASKjkg1NK0Nhhmg1jtW/JTDOhxsDHJU7joDhL86eo/xaEGFE0oH6ae2mSr8fP6Fz7uwn+vGQrqlJzAVRmsZLIaK5ssRsPJoAuFDbyZkCEQoa/b0VxFSMwjBKass8VdfNEegaBcZG8L8CIR+lWZWGKJgQgzzuG19/+wTBEjG65tmEHJqYBpH5ZJEtX9QkKBdpxs3gfBpcIsK9aBUgyAE66j4owoEq2FoXYMKTDhA+CMQvgxjwiUu9cUM0mzj9k34Y0ieX6tf8SQILQvFACpN8/okJ1GrLiSZDkz40nNCyoRbySFTTQMIQTK/iGDrUWjdHpu7lwcIf3J0sa6lV61uT5jwTO3eCwAnwTWVCs+DUERmsFkWzBe9NE7qCGxkwoptTYlIa0AkUg1nQvI3djTg+NlKZVCA8DFA+CMQPiQV+olOuVhzwqJEsQ9DpIBlTEiePkozJ0Fo3D7taQCstdETAK4haUuJ4sbHHXJBRlQpcOfcORPqia/bIH5dE6UgfA4Q/giEtxmEa1ZImXAq+gpJwXA/OfTyN55awfMHRSo8O6GDiYHuGBqx6KJXidCujpkGJnzn3DXBh+CQDUCsxaYrCNWKxs59Z/OeoyhQ/9T1/G/3E65sEuC3QlCJSJctQ1FYZ3xmu0x98w/kcaunG42SPwt/7Q3w5QZ8akURhIdJEI9ck8TpGbZg7NvUy1NRlhrusGEGoQMtBXQ14j/CgpYP0xnUdzEIn5EKGQQ5F1o6hBRFerigLrXfe4UMvf6Mwa45D8LJHI5DNada3TEaldH50mwebwGipVcrFSJsyTRx5zJTrUG47VRwU3/K/rwBwt+xuUnCDEfhVGxYSLYsVIJRLyBneWe+Z2BMuab3gQrPgfBxBITILWrsogQJDqRNuLYdhHdrQAtCRUcTi0dxhwkP33ZQFucBNzLgYgvzAcLrQDgFKkx0OCU7KeNCyWICVDTt43X5GITSHuH4eYkKbycD+7mN4ujFWMaiO0X6lR982/dM4lHAHY2mVsD/HITIXlW6j4tc3syYtvY7EMZSoc8o1HykytgZL4SXMva0rM6Y0WdX4TU85jHA50D4MrsX4lbPROlWsysXZn5oncER9VGgdhkSHBZArKWHKgjdXuzNWpWhRoJhofPjNUD4m6NzqZAToS8rhtHLzbNBOZiU4jNVJ0oAZrlnReGpbOT985/Zw5/GNFvtg0SUiRWKW+P3/DClOYUOm1FqFioOP2FCLEh/h+9nDIYBeM8Bwt+A8Jni0YloNLWd7KlIw0JS+lOKWil4V5mVQjH4VK05o/7f/PvWbZ0WhAG1hCEUsWhtlEWhjyK7LM8WMwFI8pnmrZVGUiQrKGB4CISoeBEqPMgy33WLO47CAcLrjqYqRYRgwiFOciBwZsMiMmWYJApoUmAspz/6ODGA/R2KGvO+eGb3KAGfuHhRh1+9fZDgb5FljGlsepz3CH1/VDwfGv8CKsUKQYeZ0z9jQpn6bj6sMeuoLhaRDhBeCMKH8QyBKShlfGhpucJrJQf+W5TFiGWjCyu35Z7/BTnycv+cX/OlPdvebEyMsBTlK2LMf+1da2/rKBC1qpHMh13h1agKsmr5///L9QszAwPY2G2SFtqbF7kpdjg+855IGoFydgrLEpuMdi3Vo4F1qB2KNn+DsGLIhYG5VMGJGATuB43CcDm8dXG2oR1UED4FhA1wgdRE03yVaCpV0ksOe3pJxIjy4PJHTpoEZgziJkAt9Y98ZSiHwejOpLGednNaFBadZ7PscXBDrX8iHaP2HyvOsWRRIPDeFMlmw3FLMYWeW9IMQLil+lYFYWGwvwauERIcSg5DJ2Z6zncV/M58iIElxu9OGqiFeWMSbOE5qyzF9zSKkWlMD0wFqjkhbS/YXx7gyhuKy0PZn0Qc7rweqVDGekSidriS+kZxkb8s9FyGCsKngHD0qVA7yVTqHkphyPRFFb4a1wT3ThjzDW8Tm3OraFB2f6Hb28pKfP9EC/wd0JB2NQlo24zC82yiTavgWUMEO7ie504oqSD8ydm2sVqhJJIaX4dDpxcyGtxNL6h8C2jIgLz4vjEnTAKz/Iw2WnW7Da/wO1Pk7IlMRXIfRSsbr2s7f55HgFSWyRpquz9F+gi9H/ebakIAK7zTvBpgD9h/N2MF4TNmV4994KgwtPhMONDeIuE8tODDOATdvcOhOV6QW+IXJ3qpQ1SQew+vML5qhefPM8BtpbEIDJ3tyD3c37KDVuXgGrY7Z8J3BeFPz5LgNU8o3Rs2+ZXYiNdwBV92GKcFWvC56lITF3bHMz9wZxJF2ME+xQLJTwWCGpAdCkXnuSkGIXqMmKdCPNczi7VyBdtNhHvs3wOEvwmTXaAWikJpAmsqDcTNBoOsls2OwBnucCxzb05NyO4+9A0bSuGpveqXKS7z/ZTBLzOLoqyaY0DHfswSBMElB/qa1PusWQDzMBIQY3bSw4NE4FAm3D2S1g7k0krTIByB0UU5tGI7le7I7YWxINVjurCVQc9XeNFSYsDz6J2I2LnINDUHoiNCBeETZ5UgkdIsQywAovM0outGyiGo92gdV+UkDcIB7sRdYqsS+2hJvtV1lTAgbydwW95DDsH0YYGzgwKHIEViBeETZ7uQC41QltQcpr9ZmeSo8/FHXCHGKHMMhBEpD4txB95ehACRSymynwdhKE8jNac6dqS6Y4LhReuo4oc+6YQVhE+c7UGLEmmQ7BvJdeJOeIpa25FbwuDuHYFrILwAwSwp/jgIkfIgejInUv7LmUIhpEFQLDoAOFt2YwXhM2dHkMkwkuBkeH9DOmmoPdQIWiC9OymOjnCP6gei0cJzTlwRRzsoET8zwMQApzkggnBRITqgpxvuRFhB+KxZEYVCrfwdbksXJ5Rc8SFAjUyBFooHDTNLNc/v0QQhJrqVGWaGW3RCohky4yhTClXEhcG7l3MKBEkeAFderoLwWYn2fYwMDW2j5vv7eAVvzwCDzrzDkWh4nA4cLS54RdcC8Rnk3ld2nssWyswxKNxINlTMHjd4FOjphJYUu7Yy4dNzfKedo2U25PXY0DB7p97zDy1OMWBAbgz1xuP412/gEgCBimigPPOgaMAoKwlX7KNIcSISj2BoqonovPzIPQAydF6qs1pBeFdm05yGqh95NoyYPSUXhMd9WqBBKo3m1tzcGA4mhJAI0qguA+F4baGoEi5B5H5SzNtlQkNMIJACLYZfQfjMeO4FhindUKxGk/BBeBAUx7rRj61ZwRUWVNwwH7FdBCphyZnsb7hcsNBuHp4QhCpgzkEBHgR55My02rapIHyRUNKlKMMEw6jfkHZU48jTht9zgTQ2Hqxbc27Np6gQTrwqk+HWP7MkMt6cRCEqKRzW91pgcCvbZCD6FNh1Z5dFu7aC8HVmLQwfJhrKJombnuQZsl8MiB1rhZBd83B0b4Ng9QTfeA8qpRAibGsrupwNcI/sjCJKD8TDAo/CA8XznMgcUGGkgvAVZtt27GSplImYwWOCPdEGKvIgx+CBNaflPMiES0Y0v8j/sEEERWeybQYxif2USogqlD6R20wxf7gQ5h7ypH+vJUwF4QvMrns9jkPeR4Z5ISTpM4rFh/G//wNrFlEIGZhJOlJaOJ23p24vncnpamagFIhibLcXzI2R94LAdrsWGFTd0EMQFfEeTrVfhjrpCJcNpCOuQyMbW7TRHKppNtQABTaPkW7rKPBAEjpFzILkvJ/HcMeZbMdeSynDGE9MioExIpBi/nITcv82zDC+637+AyBcXhn1gsOkYMotNVnccRrs2xKbR+vzCxwyvAjkJ37E8tlfw3jjBbtpBvOVSfoHEaDsTvG7I+FDUfiB7l0VqwrCFy5+MV/HIQrEC+Mx15bRxQ1h2nEwUt0wSEWlZaRPt0MZAG87k/ba1ozzGKbxMUc6FFRposB0PTTSeb30oyb6G31rXAXhSxtL23bQGxA3JHI5U5cgUC0QbK9Yj6bd3HcQgSJ4ubmCvxBEhtBDIE9+a5dIS5dbuMrn8Dn++/HRL/jUB+rmBKU6EpOd6YdGDo2vIHwDO83EiGsxwEuc+Fh+9KZv3bPmcXBQhNO+fLJHdT+MLyaehW9dWPTzc1jGeg3Une66ToJf131NX1c/TMQ3/r4d+8dAuHefXSlxQqJjxcPgm/fLtlO6oWlvDthvhl4rqbDugcqf3SSeNb68+wbf0Ynxnm1AKwij252qYzojdTLsTdt9Zpum/abgjGVx40wQXV5w+1oZovmD32AF4e/odz+b+3q211eWcU1FmaRHlZFv1kb8l6wRZBnT4wij1O+3gvANZwn5rNu873vTm/l3+jc9sZv+lYS3987WqbN0/A+4Zkmj4J8SugAAAABJRU5ErkJggg==;" vertex="1" parent="1">
          <mxGeometry x="550" y="-713.5" width="91.26" height="80" as="geometry" />
        </mxCell>
        <mxCell id="qDxGLgxu04z0kNvVjK_c-16" value="&lt;b&gt;&lt;font style=&quot;font-size: 10px;&quot;&gt;Spark Streaming&lt;/font&gt;&lt;/b&gt;&lt;div&gt;&lt;font style=&quot;font-size: 10px;&quot;&gt;streamer.py&lt;/font&gt;&lt;/div&gt;&lt;div&gt;&lt;font style=&quot;font-size: 10px;&quot;&gt;- Consumes Kafka Data&lt;/font&gt;&lt;/div&gt;&lt;div&gt;&lt;font style=&quot;font-size: 10px;&quot;&gt;- Aggregates Data&amp;nbsp;&lt;/font&gt;&lt;/div&gt;&lt;div&gt;&lt;font style=&quot;font-size: 10px;&quot;&gt;- Updates Prometheus Gauges&amp;nbsp;&lt;/font&gt;&lt;/div&gt;&lt;div&gt;&lt;font style=&quot;font-size: 10px;&quot;&gt;- Expose metrics on port 8000&lt;/font&gt;&lt;/div&gt;" style="text;html=1;align=center;verticalAlign=middle;whiteSpace=wrap;rounded=0;" vertex="1" parent="1">
          <mxGeometry x="963.75" y="-823.5" width="120" height="30" as="geometry" />
        </mxCell>
        <mxCell id="qDxGLgxu04z0kNvVjK_c-17" value="&lt;b&gt;ZooKeeper&lt;/b&gt;&lt;div&gt;&amp;nbsp;&lt;div&gt;Ports:&lt;/div&gt;&lt;div&gt;- 2181&lt;/div&gt;&lt;/div&gt;" style="text;html=1;align=center;verticalAlign=middle;whiteSpace=wrap;rounded=0;" vertex="1" parent="1">
          <mxGeometry x="490" y="-680" width="60" height="30" as="geometry" />
        </mxCell>
        <mxCell id="qDxGLgxu04z0kNvVjK_c-35" value="" style="shape=image;verticalLabelPosition=bottom;labelBackgroundColor=default;verticalAlign=top;aspect=fixed;imageAspect=0;image=data:image/jpeg,/9j/4AAQSkZJRgABAQAAAQABAAD/2wCEAAkGBxMTERUSEhMWEhUVFRgXGBYVFhUXGRgXFRgWFxgVFxYYHSggGBslHRUZITEiJykrLy4uGCAzODMuNygtLi0BCgoKDg0OGxAQGy0mICUtMDUzLS4tLS0vLy0tLS8wLS8tLy0tLS0tMC8vLS0tLS0vLS0rLy0tLS0tLS0tLS8vLf/AABEIAOMA3gMBEQACEQEDEQH/xAAcAAEAAwEBAQEBAAAAAAAAAAAABQYHBAMBAgj/xABPEAABAwEFBAYHAwgGBwkAAAABAAIDEQQFEiExBkFRcQcTImGBkTJCUnKhscEjYpIUNXOCssLR0jM0U6LD8BdDVHSz4fEVFiQlY2STlOP/xAAaAQEAAwEBAQAAAAAAAAAAAAAABAUGAwIB/8QANREAAQMCAwQJAwUAAwEAAAAAAAECAwQRBSExEkFR0RMyYXGRobHB8CKB4RUjQlLxFDRiM//aAAwDAQACEQMRAD8A3FAEAQBAEAQBAEAQBAEAQBAc14W5kMZkkOFo8ydwA3krxJI2Nu07Q6wwvmejGJmpmd+bSTWh+RMbAatY0kaaOcRq75buKo56p8q8E4GrpMPigbpdd6r7dhPbLbXkkQ2k65NlPwD/AObz4qXS1qquxJ48yur8KREWSFO9OXLwLurQoAgCAIAgCAIAgCAIAgCAIAgCAIAgCAIAgCAIAgCAIDLNrb6NomIafsoyQzgToX+O7u5lUNXP0r8tE05mvw6jSniuvWXXlz7SDUUsAgNH2FvkyxGF5q+IChOrmaA8xp5K5oZ9tuw7VPQy+LUiRP6RujvJfzzLQp5UBAEAQBAEAQBAEAQBAEAQBAEAQBAEAQBAEAQH5e8AVJAA1JyHmirY+oiqtkKrtJtXD1MkcL8cjm4QWg4RXInHocq6Vzoq+prI9hWsW6/N5cUOGTdI18jbNTPPXw5meKnNMEAQHXdV4vs8gljpiAIo4Egg7iAR3HXcukUro3bTdTjUU7J2bD9C1WTb8/62EHiWOp5Nd/FT2Ykv8m+Hz3KeTA0/g/xT3TkWG7dp7NNQNkwOPqydk8hXInkSpkdXE/JFsvaVk+HVEOatunFM/wAnHeu2cERLWVmcPZoG1986+AK5y10bFsmZ3p8ImkS7vpTt18OdiCl2+mPoxRt5lzvkQoi4i/c1PngWDcEiTrOXyTmW3Zq9/wApgEhADgS14GgcM8q7iCD4qwppulZtb95TV1L/AMaXYTTVCVUghhAEAQBAEAQBAEAQBACUBAXhtfZY6gOMpG6MVH4jRvxUSSuiZvv3fLFlDhVRJmqWTt5akLP0gGvYgFOLn/QN+qiuxJdzfMnswNP5P8E/J4Db6X+xZTm75rz+pP8A6oe/0SP+6+R22Xb9h/pYXN72ODvgcK6MxJP5N8M+RwkwN6dR6L3pbmdN57bwtYOpBleRvBaG+9XM8h5hdJcQYifRmpygweVzv3ck8b9xR70vaa0Gsry4bmjJo5N08dVVyzPl668jQQUsUCWjT77/ABOJcjuEAQBAEAQBAEAQFy6Npz1k0e4ta78JIP7Q8lZYa76nNKPHGfQx/aqfPAvqtjOBAEAQBAEAQBAEAQBAeNt/o3+475FeX9VT3F1070MVboswmhvVPq+nwIAgCAIAgCAkrJs/apM2QvpxdRg/vkV8F2ZTSv0avp6kWSup4+s9Ptn6XJSLYe1HUxN5ud9Gld0w+ZeHj+CI7GadNLr9vyfs7B2n24fxP/kXr9Ol4p58jz+tQcHeCczln2NtbdGNf7j2/vUXN1DMm6/cvOx1Zi1K7VVTvTlch7XYpIjSWN0fvNIB5HQ+CjPY5nWSxOjmjkS7HIvceC8nQIC19HT2i0Pq4Bxjo0HfnV1OVB/kKww5U6Rb8CnxpHLC2yZXz9jRFcGYCAIAgCAIAgCAIAgCA+OFRTih9RbGJyxFriw6tJaebTT6LMK3ZW3A3rXbSI5N5+V8PoQBAEAQFpuLY2SUB8xMTDmG07ZHI+j41Pcp0FC5/wBT8k8/wVFXizIl2Y/qXy/PzMu123LBB/RRgH2jm78Rz8FaRU8cfVQoJ6yafru+27wJBdiMEAQBAfmRgcCHAEHUEVB5hfFRFyU+oqot0K1e+xcElTF9i/uzYebd3hTxUKWgjdm3JfLwLWmxeaPKT6k8/HmUW9bpls7sMraV0cM2u5H6aqqlhfEtnIaGnqoqht41+29DjjkLSHNJaQQQRqCNCFzRVRbod3NRyWXQ1HZS/RaYu1QSsoHjjweO4/A17le0tR0rc9U15mRxCiWmky6q6cicUorwgCAIAgCAIAgCAIAgMr2ysXVWuTLKT7Qfrel/eDlQVkexMvbn8+5sMMm6SmbxTLw08rEIoxPCAIAgL7sbswGhtonbVxzYw+qNznD2uA3c9LajpEROkeme5DO4niKuVYYly3rx7E7PXu1uSsiiCAIAgCAIAgCA8bZZWSsLJGh7TqD8+4968vY16bLkyOkcr43I5i2UzLabZ11mdiFXROPZdvb913f371R1NMsK3TT5qaugr21LbLk5N3uhw3LeTrPM2VugycPaYfSH1HeAuUMqxPRyfEJFVTpPEsa/bsU16GUPaHtNWuAII3g5grRNcjkuhinNVrla7VD9r6eQgCAIAgCAIAgCAICtbc3T1sHWNFXxVPNh9IeFAfA8VBrodtm0mqem8tcJquil2HaO9d3IzfCqS5qbjClxcYUuLli2MuXr5sbxWOKhPBzvVb3jefDiplFB0j7ronqVmJ1fQx7Les7yTevL8Glq9MoEAQBAcluvKGH+lkazuJzPJupXOSZkfWWx2ip5Zeo1VIiTbOyg5F7u8MP71FGXEIeK+BNbhFSuqIn3DNtLKdS8c2H6VT9Qh4r4BcIqU3J4klYr7s8ppHK0k+qThd+F1Cu7KiJ+TXIRZaOeLN7V9vFCQXYjBAeVpgbIwseA5rhQg7wvLmo5LLoe2PcxyOatlQyraG5nWaYs1Yc2O4t4HvGh8DvWfqIVhfsrpuNhR1aVEe1v3p2/kuHR/b8cDoSc4jl7j6keRDvgrLDpdpisXd6KUmMQbEqSJ/L1T4halYFOEAQBAEAQBAEAQBAeNttAjjfIdGNLj4CtF4kejGq5dx0ijWR6MTepjrsyTlnnlkM+A3BZe9zbplkfKIfbii+XBq+zt3dRZ2R07VMT/fdmfLTkAtLTRdFGjd+/vMbWz9PMr927u+Zkku5FCA+OcACSaAZknQAb0VbH1EVVshRtoNr3OJjsxwt0Mm8+5wHfryVPU4gq/TFpx5Ggo8Ka1NubNeHMqTySSSSSdSTUnmTqqxVut1LpLIlkPzRD7cUQXGFfBcmLp2jngIAd1jPYeSR+q7Vvy7lKhrJYt904KQajD4Zt1l4p8zL/AHLfUVpbVho4ekw6jv7x3q6gqWTJ9OvAzdVRyU7rO03KSSkEUitpbqFogLQO23tMP3hu5HT/AKKNVQdLGqJruJlDU/8AHlR25cl7vwUrYm0Flra3QPa5h50xDxq2niqmgk2ZkTjl7+xfYrGj6ZV4WX29zSlfmVCAIAgCAIAgCAIAgIDbefDZSPbc1v7x+DVBxF+zDbiqJ7+xZYUzaqEXgir7e5nOFZ+5pxhS4JHZ2x9ZaYmnTFiPJna+NKeKkUrOkma3t9MyNWy9HA53ZbxyNUWmMeEAQFI22vkucbMw9kf0hG86hnIb+/kqXEam69E3TfyL/CqRETpna7uZUaKruXRMXXs1PMA4NDGH1n1FeQ1PyUuGjllzRLJxUhVGIQwrZVuvBCaj2E9qfyj/AIuU1ML4v8vyQFxrgzz/AAc1r2HlArHI2TuILD4ZkfJcn4ZInVci+XM6x4zGvXaqefIrtrsUkTsMjCx3A7+8HQjkq97HxrZ6WUtI5mSt2mLdDwwrxc9ntZZ3xvD2OLXN0I+XeO5e2SOY5HNXM8SMbI1WuS6KaXs/fDbTHi0e3J7eB4juP+dFoqWpSdl96aoZSspHU77bl0UlFJIhQb6snUXjG8ZNfIx/iXAPHnU/rKjqGdFVNVNFVF88/naaOll6aic1dURU8svnYX5XhnAgCAIAgCAIAgCA+PcACSQAMyTkAOJK+KqIl1PqIqrZCibYXzHPhjiJcGOJLqUBNKCnHfmqKvq2S2azdvNDhtI+G7379xWsKrblrcYUuLll2ChrO93sx08XOH0BVlhbbyq7gnr/AIVWLvtCjeK+iF8V8Z0IDnvG1dVE+Q+q0mnEgZDzXOaTo41fwQ6wx9JI1nFTKHkkkk1JJJPEnMlZNVVc1NilkSyFq2PuAPpPKKivYadDT1yN4rp58FbYfSI791+m5Pfl48CnxKuVv7Ua5719uZdVdFCEAQHNb7DHMwskaHA+YPEHcVzliZK3Zeh1hmfE7aYtlM5v25nWeTCe0x2bHcRwPeFnKqmdA6y6bl+bzUUlW2oZdNU1QjcKjXJVzuua8DBM2QaaOHFp1H1HeF2p51hkR6ffuI9VAk8asX7d5qMbw4BwNQRUHiDoVqUVFS6GRVFRbKRG0V0un6osoHRyA9qvommLTfkPJRKunWXZVuqL5E2iqkh2kdoqeZMqYQQgCAIAgCAIAgPOeZrGl7jha0VJO4Ly96MarnaIemMV7ka1M1M+v+/H2h1BVsQOTeP3ncT3bvis3V1jp1smTeHM01HRtgS65u48iHoodyaKJcCiXBa9gB2puTPm9W2EdZ/cnuU2MdVn39i5K8KMICD2yfSyuHFzB/eB+igYktqde9PUsMMS9QncvoUGCEvc1g1c4NHNxA+qzrU2nI1N628TRvejWq5dxq8EQY1rGigaAAO4CgWva1GtRqaIY57lc5XLqp+16PIQBAEBwX3d4nhczfq08HDT+HIlR6qBJo1bv3d5IpZ1hlR27f3GY4VlbmtuKJcF/wBjbXjs4adYyW+GrfgaeC0WGS7cNuGXLkZvE4tie6b8+ZPKwK4IAgCAIAgCAIAgKTthemN/UtPZYe13v4ch868Fn8Tqtt/RN0TXv/Hr3F/htNsN6R2q6d359CuYVV3LS4olxcYUuLiiXFyybDSUme32mV/CR/MrTCX2lc3inp/pVYs28bXcF9f8LqtAUIQEPtZDisr6eqWu8nCvwqoOJNV1O626y+ZOw5+zUJ23KRdZpPEToJGftBZ6B1pWL2p6l/UZxPROC+hp615kggCAIAgCAzS/IcNolA9sn8Xa+qydW1GzvROPrmaulftQsXs9MjhwqPckXLRsJJR8rOLWu/CSP3lb4Q76nt7EKjFm3a13avzyLir0owgCAIAgCAIAgPC3yubE9zBicGkgDeaZZLlM5zI3Oal1RDpC1rnojlslzMTnnrXfx71jb3zNZoMKXPowpcDClwMKXB2XPaeqnY/cDQ+67I/OvgpFLN0UzX7t/cvy5wqY+lic35c0la8yoQH4ljDmlrsw4EEdxyK8uajkVq6KfWuVqoqbjNbwsToZHRu1ByPEbnBZCeJ0Misdu9NymrhmSViPQvVwXoJ4xU9too8d/tcitJQ1STx/+k15/cz1ZTLC/sXQk1NIgQBAEAQGc386tplP3yPKg+iyVa69Q9e30yNRSJaBqdhwYVFuSSxbEN+1efufNw/grfB//o7u9yrxVf229/sXNaAoggCAIAgCAIAgCArd/bO4yZIRRxzczQO7xwPz+dNXYbtqskWu9OPd2+paUdfs/RJpx4FTfGQSCCCMiCKEcwqBUVFsupdI5FS6Hyi+C4oguKILiiC5eNmLx6yLA49uMAHvbud9PDvWnwyq6WLZXVvpuUz9fB0cm0mi+pMqyIIQEbfV0tnbn2Xj0XfQ8QodZRtqG8FTRfm4lUtU6B3ZvQp0tnms0gcasI0cM2nx0I7is49k9I+65Lx3L84L4F42SKpZbVOG8m7JtZlSWPxYf3T/ABVlFjO6Rv3TkvMgSYX/AEd48/we821kQHZY8nvwtHnU/JdX4zEifS1V8EObcLkVc1Q77jt0kzS6RgYK9mlcx4/PepdFUSztVz22Td2/OO8jVcMcTkax1+JJKaRTytMwYxzzo0EnwXiSRI2K9dEQ9sYr3I1N5msji4lx1JJPMmpWKVyuVXLqpqkRGpZNx+aL4fbnTd9tfC8PYeY3OHArtBUPgfts/wBOU0LZW7LjQLDa2yxtkboRpwO8HktbBM2aNHt3malidE9WOOhdjmEAQBAEAQBAEAQHFeN1RTem3Pc4ZOHjv8VFqKOKdPrTPimvzvJENTJD1Vy4biuWzZeRucZEg4ei745fFUk2ETNzjVHJ4Ly80LSLEo3ddLeaEVabBJH6bHNGlSMq8K6Kvlgli67VQmMmjf1VRTnwrjc6XGFLi572G0uieHs1G7cRvB7l1gndC9Ht1T5Y5yxtlYrXF8u+3NmYHtPMbweBWvpqlk7Ntn+GcmhdE7ZcdS7nIID49oIoQCDuOa+KiKllPqKqLdCPluOzuzMQHKrfg0hQ3YdTO1Yn2y9CS2tnbo739T92e54GGrY214mriOWKtF6joaeNbtYl/H1PL6qZ6WV3t6HcpZHCArG1l41+waeBf8w36+SoMXq0X9hv39k9/At8Op7fuu+3MrOFUdy1uMKXFxhS4uWLY+00e6I6OGIcxQHzFPJXWDTWe6Jd+fP52FZicd2o/hkWtaEpggCAIAgCAIAgCAIAgPC22VsjHMdoR5HcRyK4zwtmjWN2inSKRY3o5NxQrVZnRvLHDMHz4Edyxk0Tonqx+qfLmjjkbI1HNPKi53PdxRLi572G1vidiYaHeNxHAhdoKh8D9ti/nvOUsTZW7Li4XZfMctB6D/ZO/wB07/mtPSYjFUZaO4L7cfUpZ6R8WeqceZJKwIgQBAEAQEFfN/BoLIjidoXahvLif89ypq/FGsRWQrd3HcnNfi8CxpaJXfVJpw4lTOeZzJWbuXOgolxc+UXy4uetnsz3mjGl3IfM7l0ijfKto0Ve48PkaxLuWxZ7juIxuEkh7QrRo0FRTM79VocPw10LklkXPgnvx9O8qautSRuwxMuJPK5K4IAgCAIAgCAIAgCAIAgIq/7uEjC/IOYCa8QMyCqzE6Ns0e3o5qa9nBfmRMo6hY37O5Sn0WSuXlxRBcUQXPlEFyRsl8TR5B2IcH5/HX4qdDiVRFkjrp25/nzI0lJE/VLdxJw7T+3H4tP0P8VZR47/AHZ4Lz5kR2Hf1d4nQNpYvZk8m/zLv+uQf1d5czl+nScU8+R5TbTt9SNx94gfKq5Px1lvoYv3VE9LntuHO/k7w+IRFuvaWXIuwt9luQ8d5VXUYjPPk5bJwTLx3+3YTYqWOPNEuvFTgooJJuKILhrKmgFScgPovqXVbIFW2alxue6mxs7YBe7M1ANODRyWtoKBsEf1oiuXXl9iiqapZH/SuSEmBTRWKJbQiXPq+gIAgCAIAgCAIAgCAIAgCAj7/kpA/voPMgH4VVdir9ilf22TxWxJo23mQp1Fjrl5cUS4uKJcXFEuLiiXFxRLi4olxcUS4uKJcXFEuLn1kZJAAqToBqvrUVyo1qXVQrkRLqWe5bn6vtvzfuG5v/NanDcM6H9yXrcOH5+IVFVV9J9LdPUmVcEEIAgCAIAgCAIAgCAIAgCAIAgIzaIfYHm35qqxn/qL3p6kuiX91PuVTCshcubjClxcYUuLii+XFxhX24uMKXFxhS4uMKXFxhS4uMKXFyd2Wize6mgaAeda/RX+Asu571Tgnrf2K7EHZNQsK0pWBAEAQBAEAQBAEAQBAEAQBAEAQHNeMOOJ7d5GXMZj4hRK6FZad7E1tl3pmnmdYH7EiKU6iwe0hen7igc70Wl3IErpHG+VbRtVe5Lnhz2t1WxJWW4nuzecA4an+AVvTYJM/OVdlPFeSefcRZK1jermTkFgjY3CGgg61Fa86rRQ0UETNhrUtvvnfvK9873O2lU8Jbmhd6uH3SR8NFGkwikfns27lt5aeR0bVypvucztnmbnuHOh/gojsAi3PXy5IdUr3b0Q8pNnsjhfU0yBC5PwFEauw/PddD22vzzQhXxkEgihGoKzrmq1Va5LKhPRUVLofmi+XPoovlwWu5LNgiFdXdo+OnwotphNOsNMl9XZr99PKxT1Um3JluO9WZGCAIAgCAIAgCAIAgCAIAgCAIAgCA8xA32W+QXJIY00angh623cT0XU8hAEAQBAEBx2+7mS5nJ3tD68VX1uGxVWa5O4p78fljvDUOj7uBBWi6ZG+riHFufw1WZqMJqof47ScUz8tfUsGVUbt9u89bqu4vdVwIa0513nguuF4c6aTakSzW8crrw5+B5qKhGNs1c1LItiVQQBAEAQBAEAQBAEBzW+3xQtxzSNjbxe4AV4Cup7kBWbT0kWFpo10kneyM0/v0QHRd+3thlOHrurJ/tWlg/EeyPNAWZrgRUZg7wgPqAIAgCAIAgCAIAgFUAqgCAIAgCAIAgCAIAgCAIAgIHbDaVlihxkYpH1EbOJGrj90VFeYG9AZLZrJbL0nJqZXb3uNI4wdBwaPugVOueZQFxsfRUyn21oeXf+m1rQPF1a/BAcl79Fz2gus03WU9SQBpPJ4yrzA5oDz6N5bdHajZcLhEzOVktaR1rQs4EnQDIip70BqyAIAgCAIAgCAIDNekra+WOQ2SzvMeEAyvaaOq4VDGu9XIgkjPMaUNQKvBsRb5miXqicQqDI9ocQd5DjUeKA1DYW4TY7KGPAEj3F8lKHM5AV7mgDnVAWJAEAQBAEAQBAEAQBAEAQGHbYWx9svFzGZ/aCCIbsnYK8i6prwPcgNhuK6Y7LAyGMZNGZ3ucfSe7vP8BuQEggCA+UQH1AUm8ekFkNsdZpIaMY4NdLjJoMIdXqwyp1pSqAj7T0rMDvs7M5zeL5Aw+Qa75oCybG7SOtzJJDB1LWODQcePE6lXeqKUBb59yA5dpNvbPZXGNoM8oyLWEBrTwc86HuAJG9AVpvStJXOytpwEpr54PogJ3/AEi2d1mkmjaTJHhJgeQxxDntYS1wBBAxVy4ZgVQErsdtJ+XRPk6rqsEmCmPHXstdWuEU9L4IDKNrpQ29JnkYg2dpLeIbhOHxAogLZ/pXH+yH/wCYfyIC/wB3W4S2eOcjAHxtkIJ9EOaHZnLSuqAp199JsEbiyzxm0EevXAz9U0Jd5U4FARtl6VnYvtLMMPFkmY8HNofMICYvXpGhZDHLAzr8bnNc0v6t0ZaAaOGE615ZZEoCz3FeP5RZ458ODrG4sNcVO6tBXyQFNu/pRicXddAYmtYXAtf1hc4FoDA3C3Mgk1Jp2UBwzdKz8XYsrcP3pDUjwbQfFAWbZfbiC2OEdDDKdGOIIdTM4Hj0uRAPcgLSgIraDaGCxsDpnUJrhY3N7qey36mg70BRbR0rOxfZ2UYfvyGp8A2g8ygJa4ekqCZwZOw2dxNA4uxR+LqAt8RTvQHM7pM+1fH+S1wOcMXXa4XYa06vfqgKdsaP/NYcf9s+vvYZKfGiA3NAUjpGvC3ROg/I+toRJj6uLrMwWYa9k01KAp3/AG7fP/uf/rf/AJID8TbR3uxpc91oY0audZ2tA3Zkx0CAsvRntBarTaJWzymRrYqgFrBRxcAD2WjdVAU3bz842nf2x+wxAaBcPRxZmRNNpaZpSAXdtzWtJ9VoYRWnE1r3aID02xtjLtsAisreqMji1lCSW4que+pNa7ga5Fw4ICj7DbIm2uc+RxZCw0JHpPdrgaTpkQSe8cagDRXbAXeW4eop94SS4udcX/JAZntrss6wyihL4pK4HHUEasdTKueu/wACgLr0O/1Wb9P/AIcaApe0jA695GuFQ60sBB3glgI8kBq//dCw/wCyxfhCApvSne/VNjsEPYZgDnhuXYHZjj5dkkjuagPHYjYFk0TbRaqlrxVkQJbVu5z3DPPUAEZZ1zoALPeHR5YZGEMjMLqZPY95pza4kH596AyS/Lpkss74JNW6EaOafRcO4/A1G5AbVsL+b7N+jHzKAxK6LvdaJ44GGjpHYancNS6m+gBPggNisuwFgZHgMPWGmb3OfiJ41aRh8KIDNdtNnzYLS3qnOwO7cTq9ppacxUb2mhB7wgNaui+g+wstcmQ6nG+m4sBx08WlAY6wT3nbde3Kd9S2ONudPdaPMniUBp1g6PLDGwB8ZmdTN73vFeTWkAfPvQFY232BZDE60WWoawVfESXUbvexxzy1INcs65UIFGu70j7v1CAmtqrM+xXk97RSkonj4EOdjpyxYm+CA2a6LyjtELJojVrxXvB3tPeDkUB2IAgM76Wb9aI22Nhq55D5Keqxpq1p7y4A8m94QHr0RXWWQSWhwp1zg1vuR1FfFznD9VAUvbD86zfpmfsxoDc0BmnTMw/+Fd6o60HmeqI+DT5ICb6K5Wm72hurZJA7mXYhX9VzUBcEBRel6Rv5HG0+kZwWjfkx+I8s6eIQHn0O/wBVm/T/AOHGgKbf/wCeHf71H+0xAbggMT6UYyLwkr60cZbyw4fm0oDYLnla6zwuZ6JiYW04FoogOxAZH0vSNNrjA9JsIxci9xaD8T4oC/7C/m+zfox8ygMo6PfzlZ/ef/wpEBuiAzDpm9Ky8pvnEgJC62E7OuA16mc+AkkJ+AKAgOiKRotkgPpOhOHwewkD4HwQGvIDkvaRrYJXSegI3l1fZDTX4ID+fbs9L9X6hAbTttsuLbCMJDZo6mNx0NdWO+6aDPcQDxBAyy6r4td2zOZQsNe3DIOy7diFPg4HPvCAu1m6VIC37SzytdwYWPHm4tPwQEffPSi9zS2yxdWT/rJCHEcmDKveSeSAgtltl57wl62QuERdWSZ2rzvawn0nHSug+BA2mzWdsbGxsaGtYA1rRoABQBAYjth+dZv0zP2Y0BuaAhNsLiFsszoqgPBxxk6B7a0r3EEg80BklxX3aLtne0spnSWF+VaaEHcc8nCoIO8UQF2d0qQYaizy46aEsw196tafqoCgbQ33PbZHTSDssGTWg4Y2FwGveSAXHU07gANB6Hf6rN+n/wAONAU2/wD88O/3qP8AaYgNwQFK6StmHWmNs8IxSxAgtGr4znQcXA5gb6nfRAUvZDbiSxt6l7OthBNBWjmEnPCTqK17J370BZLw6VI8B6iB5fuMpaGg8aNJLuWXNAZvb55ZnOtEuJxe81eRkXADsg6ZCmQ0FEBuGwv5vs36MfMoDKOj385Wf3n/APCkQG6IDMOmb0rLym+cSAtHR2wG7IARUESAg7wZZKhAZptDc8122oPjJa0OxQy65ew77wFQQdR3FAWy7+lSPAOvgeH7zEWlp76PILeWfNAV7a7biS2N6iJhiiJFW1xPkNcgaaCtOyK579yArdhYRI5pFCAQQdQQQCCgP6LQHFel0QWhuGeJsgGmIZivsuGbfAoDFtrbsihmLIm4W1pTE4/FxKAuOwmzNkkZ1kkLZHCnplzm+LCcJ8QgNEa0AAAUAyAGgA3BAfUBn1+XFA+2Pkcyri9pJxPGYDaZA03IDQUAQEVf9x2e0sPXxNeWtNHZhw30D2kEDuqgMku+6YXWzqnMqytKYnD4g1QGm3tcFmjsUkDImsjcWFwbUFxD2kFzgcROQzJQDYiwRwwvbE3CDJU5uOeFo9YnggIO8rjgdbjKWVf1zXVxP1BbQ0rTcgL+gCAqm2eztlkjfM6FvWD121aT3uwkYjzqgKNsPccE85bNHjA3Ynj5EVQF32vuWzujhjMQDGF2FrasArStA0hATmz0DY7NExgo1raAVJyz3nNAU7Zm4rPHaonsZRzS6hxvOrHDQupoUBoSAqW3V1xTGHrW4sIfTtOFK4K+iRwCAmNl7M2OyxsYMLRioKk6vcdTnqUB32uyslYWSsbIw6tcAQfAoDIdt7jggnDYY8AO7E8/tE0QF62K2fs0cTZmQt6w+uauI93ETh8KICvv2fs/XSO6vMucSccm91T6yA//2Q==;" vertex="1" parent="1">
          <mxGeometry x="876.4300000000001" y="-203.5" width="104.64" height="107" as="geometry" />
        </mxCell>
        <mxCell id="qDxGLgxu04z0kNvVjK_c-39" value="&lt;b&gt;Prometheus&lt;/b&gt;&lt;br&gt;&lt;div&gt;&lt;font style=&quot;font-size: 10px;&quot;&gt;&lt;b&gt;(Scrapes Metrics)&lt;/b&gt;&lt;/font&gt;&lt;/div&gt;&lt;div&gt;&lt;font style=&quot;font-size: 10px;&quot;&gt;- Self metrics on port 9090&lt;/font&gt;&lt;/div&gt;&lt;div&gt;&lt;font style=&quot;font-size: 10px;&quot;&gt;- Also scrapes &lt;b&gt;Kafka &lt;/b&gt;endpoint on port 8080 and streamer endpoint on port 8000&lt;/font&gt;&lt;/div&gt;" style="text;html=1;align=center;verticalAlign=middle;whiteSpace=wrap;rounded=0;" vertex="1" parent="1">
          <mxGeometry x="981.07" y="-423.5" width="97.68" height="20" as="geometry" />
        </mxCell>
        <mxCell id="qDxGLgxu04z0kNvVjK_c-43" value="&lt;b&gt;Dashboard Visual&lt;/b&gt;&lt;div&gt;- Port 3000&lt;/div&gt;" style="text;html=1;align=center;verticalAlign=middle;whiteSpace=wrap;rounded=0;" vertex="1" parent="1">
          <mxGeometry x="973.75" y="-180" width="120" height="60" as="geometry" />
        </mxCell>
      </root>
    </mxGraphModel>
  </diagram>
</mxfile>
